<?xml version="1.0" encoding="UTF-8"?>
<svg version="1.1" xmlns="http://www.w3.org/2000/svg" width="512" height="512">
<path d="M0 0 C0.83644043 -0.0049649 1.67288086 -0.00992981 2.53466797 -0.01504517 C5.29354688 -0.02961407 8.05236829 -0.03645986 10.8112793 -0.04199219 C12.73552959 -0.04774782 14.65977987 -0.0535055 16.58403015 -0.05926514 C20.61640692 -0.06976002 24.64876384 -0.07561263 28.68115234 -0.07910156 C33.83582851 -0.08458418 38.99024026 -0.10861372 44.14483356 -0.13707352 C48.11950944 -0.15574104 52.09412212 -0.16090768 56.06883812 -0.16243744 C57.96855299 -0.16545502 59.86826699 -0.17345318 61.76793861 -0.18662262 C64.43143195 -0.20376992 67.09428563 -0.20178186 69.7578125 -0.1953125 C70.53470932 -0.20452728 71.31160614 -0.21374207 72.11204529 -0.22323608 C77.81459286 -0.18007458 83.77332306 0.56677167 88.13988209 4.61310959 C92.62064788 9.87817112 92.92296659 13.4307213 92.8503418 20.17675781 C92.36419595 25.40796103 89.99485611 27.86232879 86.25415039 31.27929688 C81.23847798 34.51635531 75.04843791 33.76480108 69.29956055 33.77050781 C67.38123917 33.79531219 67.38123917 33.79531219 65.42416382 33.82061768 C62.04071203 33.86087871 58.65801108 33.88425661 55.27441406 33.89935303 C51.81519372 33.91897765 48.35625047 33.96094134 44.8972168 34.00097656 C38.122545 34.07487284 31.34797824 34.12650656 24.57299805 34.16113281 C25.07106649 34.65735767 25.56913494 35.15358253 26.08229637 35.66484451 C38.19762029 47.73601155 50.30741179 59.81270076 62.41106224 71.89557266 C68.26441341 77.73860856 74.11962607 83.57975608 79.97924805 89.41650391 C85.08612033 94.50345002 90.18947456 99.59389471 95.28862441 104.68858218 C97.98903016 107.38637925 100.69117211 110.0823844 103.39753342 112.77420807 C105.94464017 115.30774317 108.48701759 117.84592889 111.02584267 120.38776207 C112.40333954 121.76444613 113.78580761 123.13615043 115.16841125 124.50770569 C115.98733353 125.32937729 116.8062558 126.15104889 117.6499939 126.99761963 C118.36346167 127.70924381 119.07692944 128.420868 119.81201744 129.15405655 C123.97473778 133.89851379 124.00493953 138.110764 123.88549805 144.24707031 C123.31697649 149.54853383 120.79434021 152.00085776 117.07299805 155.53613281 C112.01521318 157.88439007 107.05614011 158.13210589 101.57299805 157.16113281 C95.54758721 153.77799685 91.00544545 148.86073641 86.17114258 143.98632812 C84.77994453 142.59556816 84.77994453 142.59556816 83.36064148 141.17671204 C80.82972112 138.64636327 78.30499586 136.10991505 75.78137064 133.57229328 C73.13843306 130.91681606 70.48979483 128.26703707 67.84176636 125.61663818 C62.83366562 120.60233216 57.83068313 115.58295175 52.82953727 110.56171012 C47.13335126 104.84313544 41.43145545 99.13026841 35.72908235 93.41786432 C24.00404044 81.67194199 12.28615907 69.91890318 0.57299805 58.16113281 C0.56935242 58.87443756 0.56570679 59.58774231 0.56195068 60.32266235 C0.5240068 67.06105341 0.46708225 73.79898956 0.38909531 80.53704262 C0.34966809 84.00078793 0.31745684 87.46428085 0.30200195 90.92822266 C0.28389252 94.91504218 0.23391993 98.90116238 0.18237305 102.88769531 C0.18053009 104.74426254 0.18053009 104.74426254 0.1786499 106.63833618 C-0.00276981 117.31773068 -0.00276981 117.31773068 -4.42700195 122.16113281 C-8.24630367 125.78946945 -11.30979201 126.47113739 -16.42700195 126.66113281 C-21.54421189 126.47113739 -24.60770023 125.78946945 -28.42700195 122.16113281 C-33.16152244 116.01905218 -33.57662244 111.40948708 -33.57226562 103.84765625 C-33.57562424 103.01136185 -33.57898285 102.17506744 -33.58244324 101.31343079 C-33.5919404 98.549108 -33.59389591 95.7848459 -33.5949707 93.02050781 C-33.59818477 91.09482804 -33.60154896 89.1691485 -33.60505676 87.24346924 C-33.61104539 83.20511306 -33.612897 79.16677827 -33.61230469 75.12841797 C-33.61220323 69.9659249 -33.62584017 64.80356987 -33.6430769 59.64110947 C-33.65422396 55.66214372 -33.65622304 51.68321102 -33.65569496 47.70423126 C-33.65687158 45.80173518 -33.66127545 43.89923816 -33.66902733 41.99675751 C-33.67887932 39.3284708 -33.67592842 36.66047947 -33.66992188 33.9921875 C-33.67554138 33.21371964 -33.68116089 32.43525177 -33.68695068 31.63319397 C-33.6347622 22.46023831 -31.40027432 14.46412489 -25.01293945 7.65332031 C-17.64166611 1.07041845 -9.45261871 0.01349566 0 0 Z " fill="#000000" transform="translate(340.427001953125,306.8388671875)"/>
<path d="M0 0 C0.83308182 -0.0049649 1.66616364 -0.00992981 2.52449036 -0.01504517 C5.27919343 -0.02964218 8.03383883 -0.03646608 10.78857422 -0.04199219 C12.70946249 -0.04774738 14.63035076 -0.05350506 16.55123901 -0.05926514 C20.58119982 -0.06976932 24.61114072 -0.07561524 28.64111328 -0.07910156 C33.78553286 -0.08457316 38.92968601 -0.1085751 44.07402229 -0.13707352 C48.04449205 -0.15577372 52.01489872 -0.1609095 55.98540878 -0.16243744 C57.88067958 -0.16544982 59.77594964 -0.17343015 61.67117691 -0.18662262 C85.50183298 -0.34061151 85.50183298 -0.34061151 94.71826172 7.16113281 C102.25814046 15.05170358 103.86435848 23.05660046 103.87939453 33.58813477 C103.88435944 34.4245752 103.88932434 35.26101563 103.8944397 36.12280273 C103.9090086 38.88168164 103.91585439 41.64050305 103.92138672 44.39941406 C103.92714235 46.32366435 103.93290003 48.24791464 103.93865967 50.17216492 C103.94915455 54.20454169 103.95500716 58.23689861 103.95849609 62.26928711 C103.96397871 67.42396327 103.98800825 72.57837503 104.01646805 77.73296833 C104.03513557 81.7076442 104.04030221 85.68225688 104.04183197 89.65697289 C104.04484955 91.55668776 104.05284771 93.45640176 104.06601715 95.35607338 C104.08316445 98.01956672 104.08117639 100.68242039 104.07470703 103.34594727 C104.08392181 104.12284409 104.0931366 104.89974091 104.10263062 105.70018005 C104.05946911 111.40272763 103.31262286 117.36145782 99.26628494 121.72801685 C94.00122341 126.20878264 90.44867323 126.51110136 83.70263672 126.43847656 C78.4714335 125.95233071 76.01706574 123.58299088 72.60009766 119.84228516 C69.36303923 114.82661275 70.11459345 108.63657268 70.10888672 102.88769531 C70.09235046 101.60881439 70.07581421 100.32993347 70.05877686 99.01229858 C70.01851582 95.6288468 69.99513792 92.24614585 69.9800415 88.86254883 C69.96041689 85.40332849 69.91845319 81.94438523 69.87841797 78.48535156 C69.80452169 71.71067976 69.75288797 64.93611301 69.71826172 58.16113281 C69.22203686 58.65920126 68.725812 59.15726971 68.21455002 59.67043114 C56.14338298 71.78575505 44.06669377 83.89554656 31.98382187 95.99919701 C26.14078597 101.85254817 20.29963846 107.70776084 14.46289062 113.56738281 C9.37594451 118.67425509 4.28549983 123.77760932 -0.80918765 128.87675917 C-3.50698472 131.57716492 -6.20298986 134.27930688 -8.89481354 136.98566818 C-11.42834864 139.53277493 -13.96653436 142.07515235 -16.50836754 144.61397743 C-17.8850516 145.99147431 -19.2567559 147.37394238 -20.62831116 148.75654602 C-21.44998276 149.57546829 -22.27165436 150.39439056 -23.1182251 151.23812866 C-23.82984928 151.95159643 -24.54147346 152.6650642 -25.27466202 153.40015221 C-30.01911925 157.56287254 -34.23136947 157.5930743 -40.36767578 157.47363281 C-45.66913929 156.90511126 -48.12146323 154.38247497 -51.65673828 150.66113281 C-54.00499554 145.60334795 -54.25271136 140.64427488 -53.28173828 135.16113281 C-49.89860232 129.13572198 -44.98134188 124.59358022 -40.10693359 119.75927734 C-39.17976028 118.83181198 -38.25258698 117.90434662 -37.2973175 116.94877625 C-34.76696874 114.41785588 -32.23052052 111.89313063 -29.69289875 109.36950541 C-27.03742153 106.72656782 -24.38764253 104.07792959 -21.73724365 101.42990112 C-16.72293763 96.42180038 -11.70355722 91.41881789 -6.68231559 86.41767204 C-0.96374091 80.72148602 4.74912612 75.01959022 10.46153021 69.31721711 C22.20745254 57.59217521 33.96049135 45.87429383 45.71826172 34.16113281 C45.00495697 34.15748718 44.29165222 34.15384155 43.55673218 34.15008545 C36.81834112 34.11214157 30.08040497 34.05521701 23.34235191 33.97723007 C19.8786066 33.93780286 16.41511368 33.90559161 12.95117188 33.89013672 C8.96435235 33.87202729 4.97823216 33.8220547 0.99169922 33.77050781 C-0.86486801 33.76866486 -0.86486801 33.76866486 -2.75894165 33.76678467 C-13.43833615 33.58536496 -13.43833615 33.58536496 -18.28173828 29.16113281 C-21.91007492 25.34183109 -22.59174286 22.27834275 -22.78173828 17.16113281 C-22.59174286 12.04392287 -21.91007492 8.98043453 -18.28173828 5.16113281 C-12.1536139 0.43737027 -7.54480129 0.01076561 0 0 Z " fill="#000000" transform="translate(101.28173828125,306.8388671875)"/>
<path d="M0 0 C4.8846525 2.26787438 7.73212562 5.1153475 10 10 C10.82133416 16.10133947 11.03950929 21.00184271 7.43434906 26.19192886 C4.23106803 30.22983019 0.47955958 33.77755839 -3.17480469 37.40185547 C-4.56556465 38.79305351 -4.56556465 38.79305351 -5.98442078 40.21235657 C-8.51476954 42.74327693 -11.05121777 45.26800219 -13.58883953 47.79162741 C-16.24431675 50.43456499 -18.89409575 53.08320322 -21.54449463 55.73123169 C-26.55880065 60.73933243 -31.57818106 65.74231492 -36.59942269 70.74346077 C-42.31799737 76.43964679 -48.0308644 82.14154259 -53.74326849 87.8439157 C-65.48919083 99.5689576 -77.24222963 111.28683898 -89 123 C-87.93004288 123.00546844 -87.93004288 123.00546844 -86.83847046 123.01104736 C-80.1000794 123.04899125 -73.36214325 123.1059158 -66.62409019 123.18390274 C-63.16034489 123.22332995 -59.69685196 123.25554121 -56.23291016 123.27099609 C-52.24609063 123.28910553 -48.25997044 123.33907812 -44.2734375 123.390625 C-43.03572601 123.39185364 -41.79801453 123.39308228 -40.52279663 123.39434814 C-29.84340213 123.57576786 -29.84340213 123.57576786 -25 128 C-21.37166337 131.81930172 -20.68999542 134.88279006 -20.5 140 C-20.68999542 145.11720994 -21.37166337 148.18069828 -25 152 C-31.12812438 156.72376254 -35.73693699 157.1503672 -43.28173828 157.16113281 C-44.1148201 157.16609772 -44.94790192 157.17106262 -45.80622864 157.17617798 C-48.56093171 157.19077499 -51.31557711 157.19759889 -54.0703125 157.203125 C-55.99120077 157.20888019 -57.91208904 157.21463788 -59.83297729 157.22039795 C-63.8629381 157.23090213 -67.892879 157.23674805 -71.92285156 157.24023438 C-77.06727114 157.24570598 -82.21142429 157.26970791 -87.35576057 157.29820633 C-91.32623033 157.31690653 -95.296637 157.32204231 -99.26714706 157.32357025 C-101.16241786 157.32658263 -103.05768792 157.33456296 -104.95291519 157.34775543 C-128.78357126 157.50174432 -128.78357126 157.50174432 -138 150 C-145.53987874 142.10942923 -147.14609676 134.10453235 -147.16113281 123.57299805 C-147.16609772 122.73655762 -147.17106262 121.90011719 -147.17617798 121.03833008 C-147.19074688 118.27945117 -147.19759267 115.52062976 -147.203125 112.76171875 C-147.20888063 110.83746846 -147.21463831 108.91321817 -147.22039795 106.9889679 C-147.23089283 102.95659112 -147.23674544 98.9242342 -147.24023438 94.8918457 C-147.24571699 89.73716954 -147.26974653 84.58275778 -147.29820633 79.42816448 C-147.31687385 75.45348861 -147.32204049 71.47887593 -147.32357025 67.50415993 C-147.32658783 65.60444505 -147.33458599 63.70473106 -147.34775543 61.80505943 C-147.36490273 59.14156609 -147.36291467 56.47871242 -147.35644531 53.81518555 C-147.3656601 53.03828873 -147.37487488 52.26139191 -147.3843689 51.46095276 C-147.34120739 45.75840518 -146.59436114 39.79967499 -142.54802322 35.43311596 C-137.28296169 30.95235017 -133.73041152 30.65003145 -126.984375 30.72265625 C-121.75317178 31.2088021 -119.29880402 33.57814193 -115.88183594 37.31884766 C-112.64477751 42.33452007 -113.39633173 48.52456013 -113.390625 54.2734375 C-113.37408875 55.55231842 -113.35755249 56.83119934 -113.34051514 58.14883423 C-113.3002541 61.53228601 -113.2768762 64.91498696 -113.26177979 68.29858398 C-113.24215517 71.75780432 -113.20019147 75.21674758 -113.16015625 78.67578125 C-113.08625997 85.45045305 -113.03462625 92.22501981 -113 99 C-112.50377514 98.50193155 -112.00755028 98.00386311 -111.4962883 97.49070168 C-99.42512127 85.37537776 -87.34843205 73.26558626 -75.26556015 61.16193581 C-69.42252425 55.30858464 -63.58137674 49.45337198 -57.74462891 43.59375 C-52.6576828 38.48687772 -47.56723811 33.38352349 -42.47255063 28.28437364 C-39.77475356 25.58396789 -37.07874842 22.88182593 -34.38692474 20.17546463 C-31.85338965 17.62835788 -29.31520392 15.08598046 -26.77337074 12.54715538 C-25.39668668 11.1696585 -24.02498238 9.78719044 -22.65342712 8.40458679 C-21.83175552 7.58566452 -21.01008392 6.76674225 -20.16351318 5.92300415 C-19.451889 5.20953638 -18.74026482 4.49606861 -18.00707626 3.76098061 C-12.62663463 -0.95974354 -6.87535606 -0.7373036 0 0 Z " fill="#000000" transform="translate(454,48)"/>
<path d="M0 0 C6.02541084 3.38313596 10.5675526 8.3003964 15.40185547 13.17480469 C16.32932083 14.101978 17.25678619 15.02915131 18.21235657 15.98442078 C20.74327693 18.51476954 23.26800219 21.05121777 25.79162741 23.58883953 C28.43456499 26.24431675 31.08320322 28.89409575 33.73123169 31.54449463 C38.73933243 36.55880065 43.74231492 41.57818106 48.74346077 46.59942269 C54.43964679 52.31799737 60.14154259 58.0308644 65.8439157 63.74326849 C77.5689576 75.48919083 89.28683898 87.24222963 101 99 C101.00364563 98.28669525 101.00729126 97.5733905 101.01104736 96.83847046 C101.04899125 90.1000794 101.1059158 83.36214325 101.18390274 76.62409019 C101.22332995 73.16034489 101.25554121 69.69685196 101.27099609 66.23291016 C101.28910553 62.24609063 101.33907812 58.25997044 101.390625 54.2734375 C101.39185364 53.03572601 101.39308228 51.79801453 101.39434814 50.52279663 C101.57576786 39.84340213 101.57576786 39.84340213 106 35 C109.81930172 31.37166337 112.88279006 30.68999542 118 30.5 C123.11720994 30.68999542 126.18069828 31.37166337 130 35 C134.72376254 41.12812438 135.1503672 45.73693699 135.16113281 53.28173828 C135.16609772 54.1148201 135.17106262 54.94790192 135.17617798 55.80622864 C135.19077499 58.56093171 135.19759889 61.31557711 135.203125 64.0703125 C135.20888019 65.99120077 135.21463788 67.91208904 135.22039795 69.83297729 C135.23090213 73.8629381 135.23674805 77.892879 135.24023438 81.92285156 C135.24570598 87.06727114 135.26970791 92.21142429 135.29820633 97.35576057 C135.31690653 101.32623033 135.32204231 105.296637 135.32357025 109.26714706 C135.32658263 111.16241786 135.33456296 113.05768792 135.34775543 114.95291519 C135.50174432 138.78357126 135.50174432 138.78357126 128 148 C120.10942923 155.53987874 112.10453235 157.14609676 101.57299805 157.16113281 C100.3183374 157.16858017 100.3183374 157.16858017 99.03833008 157.17617798 C96.27945117 157.19074688 93.52062976 157.19759267 90.76171875 157.203125 C88.83746846 157.20888063 86.91321817 157.21463831 84.9889679 157.22039795 C80.95659112 157.23089283 76.9242342 157.23674544 72.8918457 157.24023438 C67.73716954 157.24571699 62.58275778 157.26974653 57.42816448 157.29820633 C53.45348861 157.31687385 49.47887593 157.32204049 45.50415993 157.32357025 C43.60444505 157.32658783 41.70473106 157.33458599 39.80505943 157.34775543 C37.14156609 157.36490273 34.47871242 157.36291467 31.81518555 157.35644531 C31.03828873 157.3656601 30.26139191 157.37487488 29.46095276 157.3843689 C23.75840518 157.34120739 17.79967499 156.59436114 13.43311596 152.54802322 C8.95235017 147.28296169 8.65003145 143.73041152 8.72265625 136.984375 C9.2088021 131.75317178 11.57814193 129.29880402 15.31884766 125.88183594 C20.33452007 122.64477751 26.52456013 123.39633173 32.2734375 123.390625 C34.19175888 123.36582062 34.19175888 123.36582062 36.14883423 123.34051514 C39.53228601 123.3002541 42.91498696 123.2768762 46.29858398 123.26177979 C49.75780432 123.24215517 53.21674758 123.20019147 56.67578125 123.16015625 C63.45045305 123.08625997 70.22501981 123.03462625 77 123 C76.50193155 122.50377514 76.00386311 122.00755028 75.49070168 121.4962883 C63.37537776 109.42512127 51.26558626 97.34843205 39.16193581 85.26556015 C33.30858464 79.42252425 27.45337198 73.58137674 21.59375 67.74462891 C16.48687772 62.6576828 11.38352349 57.56723811 6.28437364 52.47255063 C3.58396789 49.77475356 0.88182593 47.07874842 -1.82453537 44.38692474 C-4.37164212 41.85338965 -6.91401954 39.31520392 -9.45284462 36.77337074 C-10.8303415 35.39668668 -12.21280956 34.02498238 -13.59541321 32.65342712 C-14.82379662 31.42091972 -14.82379662 31.42091972 -16.07699585 30.16351318 C-17.1471975 29.09607691 -17.1471975 29.09607691 -18.23901939 28.00707626 C-22.40173973 23.26261903 -22.43194149 19.05036881 -22.3125 12.9140625 C-21.74397844 7.61259899 -19.22134216 5.16027505 -15.5 1.625 C-10.44221514 -0.72325726 -5.48314207 -0.97097307 0 0 Z " fill="#000000" transform="translate(70,48)"/>
</svg>
