<?xml version="1.0" encoding="UTF-8"?>
<svg version="1.1" xmlns="http://www.w3.org/2000/svg" width="512" height="512">
<path d="M0 0 C1.26093157 -0.0055344 2.52186313 -0.01106879 3.82100475 -0.0167709 C7.2864296 -0.03140334 10.75139439 -0.02141825 14.21680379 -0.00703418 C17.96735215 0.00414183 21.71783944 -0.00788866 25.46838379 -0.01687622 C32.80149164 -0.03076504 40.13442657 -0.02328526 47.46752609 -0.00820064 C56.01574358 0.00871044 64.56391862 0.00544285 73.11214767 0.00170528 C88.3678399 -0.00416513 103.62344943 0.00996703 118.87911987 0.03465271 C133.66756285 0.0585795 148.45589539 0.06565263 163.24435425 0.05516052 C179.36837832 0.04374127 195.49235139 0.04183305 211.61637485 0.05625862 C213.33684913 0.05778438 215.05732341 0.05930474 216.7777977 0.06081963 C218.04739618 0.06195635 218.04739618 0.06195635 219.34264312 0.06311603 C225.29527125 0.06785041 231.24787653 0.06601349 237.2005043 0.06175423 C244.4573143 0.05681855 251.71402007 0.06285228 258.97080626 0.08264852 C262.67031531 0.09249341 266.36966595 0.09765606 270.06918335 0.08975601 C274.08517109 0.08135582 278.10073952 0.09633036 282.11669922 0.11352539 C283.27779744 0.10751535 284.43889567 0.1015053 285.63517869 0.09531313 C299.536059 0.20340512 310.68160175 4.7907327 320.86105347 14.27854919 C332.21493823 26.4679085 333.54873175 41.13144839 333.46261597 56.92698669 C333.46531673 58.68668837 333.46920399 60.44638858 333.47421265 62.20608521 C333.48007251 65.8714181 333.47165403 69.53635807 333.45285034 73.2016449 C333.4299779 77.88671759 333.44325812 82.57087766 333.4671402 87.25591755 C333.48162173 90.88060337 333.47698289 94.50507403 333.46662903 98.12976646 C333.46397262 99.85724688 333.46719306 101.58474722 333.47654724 103.31220436 C333.48676171 105.72639662 333.47114916 108.13912372 333.44894409 110.5532074 C333.45704102 111.25724701 333.46513794 111.96128662 333.47348022 112.68666077 C333.38171006 118.10056801 331.90272917 121.13021131 328.93136597 125.50120544 C323.68943316 129.56370337 317.27072266 129.25750939 310.93136597 128.50120544 C306.91348813 127.25354864 304.50314135 125.4362143 302.27281189 121.78901672 C300.77421719 118.1160423 300.5473646 115.47759573 300.5307312 111.52122498 C300.52375214 110.85044922 300.51677307 110.17967346 300.50958252 109.48857117 C300.48970489 107.28692315 300.49010628 105.08574745 300.48995972 102.88401794 C300.47817478 101.34232842 300.46480783 99.80065026 300.44993591 98.25898743 C300.41382375 94.20806242 300.3935749 90.15723802 300.37838745 86.10618591 C300.35352481 79.63042538 300.31359636 73.15488739 300.25648689 66.67933273 C300.2402783 64.42826255 300.23639104 62.17740587 300.23347473 59.92628479 C300.44217622 48.12903532 300.44217622 48.12903532 295.80636597 37.62620544 C289.12244714 32.68591762 281.0568354 33.21468236 273.08956909 33.24723816 C271.32368816 33.24255819 271.32368816 33.24255819 269.52213287 33.23778367 C266.27194788 33.23120827 263.02191346 33.23354554 259.77173233 33.23975611 C256.25975004 33.24429341 252.74778763 33.23729051 249.23580933 33.23179626 C242.36275034 33.22291425 235.4897351 33.22481896 228.61667442 33.23062155 C223.02959205 33.23514272 217.44252191 33.23574897 211.85543823 33.23357391 C211.0595279 33.23326745 210.26361756 33.23296098 209.44358873 33.23264523 C207.82659085 33.23200576 206.20959297 33.23135734 204.5925951 33.23070005 C189.43855586 33.22500024 174.28454083 33.23154916 159.13050556 33.24230078 C146.13442607 33.25123597 133.13838231 33.24968383 120.14230347 33.24046326 C105.04159711 33.22975445 89.94091196 33.22554953 74.84020233 33.23168778 C73.22923279 33.23232487 71.61826325 33.23295361 70.0072937 33.23357391 C68.81842646 33.23403674 68.81842646 33.23403674 67.60554171 33.23450892 C62.02672598 33.23623402 56.44792374 33.23332472 50.86911011 33.22861481 C44.06818011 33.2229992 37.26729626 33.22453673 30.46637154 33.2351763 C26.99804266 33.24042385 23.52979067 33.2425054 20.0614624 33.23587799 C16.29861912 33.2304153 12.53599232 33.23726584 8.77316284 33.24723816 C7.68132942 33.24277672 6.589496 33.23831527 5.46457672 33.23371863 C-1.54546095 33.2697671 -8.11175122 33.31568336 -13.94363403 37.62620544 C-18.20672461 43.39391623 -18.36285636 50.09380351 -18.30914307 57.01805115 C-18.31170634 58.24724463 -18.31170634 58.24724463 -18.3143214 59.50127029 C-18.317596 62.22660019 -18.3066463 64.95167976 -18.29568481 67.67698669 C-18.29512026 69.63873285 -18.29543812 71.60047943 -18.29656982 73.56222534 C-18.29714261 78.87360292 -18.28540017 84.1848898 -18.27142191 89.49624634 C-18.25890231 95.05225665 -18.25774308 100.60826914 -18.25537109 106.16429138 C-18.24915995 116.67904566 -18.23275405 127.19375825 -18.21267211 137.70849419 C-18.19030177 149.68184389 -18.17931682 161.65519561 -18.16928124 173.62856102 C-18.14838752 198.25279892 -18.11321861 222.87699984 -18.06863403 247.50120544 C-17.41352844 246.84165863 -16.75842285 246.18211182 -16.08346558 245.50257874 C-9.90894313 239.28798284 -3.72962039 233.07820898 2.45514297 226.87380409 C5.63462153 223.6838882 8.81221276 220.49213853 11.98556519 217.29612732 C15.04806398 214.2118986 18.11542189 211.13258051 21.18621063 208.05660629 C22.35693503 206.88218643 23.52589762 205.70600758 24.69306183 204.52804947 C26.32808899 202.8785056 27.96926753 201.23532604 29.61203003 199.5934906 C30.09323807 199.10509201 30.57444611 198.61669342 31.07023621 198.11349487 C35.44328079 193.76708219 38.52476195 192.19260246 44.68136597 192.00120544 C45.66620972 191.94964294 46.65105347 191.89808044 47.66574097 191.84495544 C55.49046046 193.41738711 61.51492306 200.80729285 66.93136597 206.30589294 C67.65251587 207.02987274 68.37366577 207.75385254 69.1166687 208.49977112 C71.39302187 210.78721684 73.66227696 213.08155603 75.93136597 215.37620544 C77.48428529 216.93916868 79.03766644 218.5016732 80.59152222 220.06370544 C84.37682279 223.87092124 88.15633878 227.68380432 91.93136597 231.50120544 C95.03893855 230.11984387 97.14604256 228.53118014 99.53646851 226.12315369 C100.23456131 225.42491989 100.93265411 224.7266861 101.65190125 224.0072937 C102.40734726 223.24151505 103.16279327 222.47573639 103.94113159 221.68675232 C104.74483688 220.8801265 105.54854218 220.07350067 106.37660217 219.24243164 C108.12105318 217.49036953 109.86318976 215.73600072 111.60328674 213.97961426 C114.35561701 211.20178765 117.1141205 208.43023005 119.87435913 205.66026306 C125.73263166 199.77980442 131.58242428 193.89094279 137.43136597 188.00120544 C144.2080889 181.1772157 150.98807944 174.35654006 157.77650452 167.54418945 C160.49714734 164.8105576 163.21170761 162.07098109 165.92611694 159.3311615 C167.59098211 157.65903246 169.25612805 155.98718291 170.92160034 154.31565857 C171.67704636 153.54987991 172.43249237 152.78410126 173.21083069 151.99511719 C173.90892349 151.29688339 174.6070163 150.5986496 175.32626343 149.8792572 C175.92945152 149.27162788 176.53263962 148.66399857 177.15410614 148.03795624 C180.79192476 144.89242818 183.91944348 144.14924449 188.68136597 144.00120544 C189.66620972 143.94964294 190.65105347 143.89808044 191.66574097 143.84495544 C199.23160824 145.36536896 205.11032022 152.38047575 210.38839722 157.69261169 C211.3928614 158.6942057 211.3928614 158.6942057 212.4176178 159.71603394 C213.81910689 161.11617235 215.21811509 162.51879815 216.61471558 163.92381287 C218.74864519 166.06850878 220.89311357 168.20225097 223.03878784 170.33518982 C224.40596644 171.70368922 225.77252494 173.07280847 227.13839722 174.44261169 C227.77590408 175.0760701 228.41341095 175.7095285 229.07023621 176.36218262 C233.94962266 181.2933038 237.35624403 185.145719 237.43136597 192.37620544 C237.30489411 197.27247286 236.57098082 200.28416215 233.51339722 204.09886169 C229.60330335 207.56484613 226.34832991 208.96089816 221.11886597 209.06370544 C219.6551355 209.12751404 219.6551355 209.12751404 218.16183472 209.19261169 C209.83095988 207.40958286 203.66687037 199.49093265 197.93136597 193.62620544 C197.1566394 192.84245544 196.38191284 192.05870544 195.58370972 191.25120544 C193.69489503 189.33907206 191.81095206 187.42240362 189.93136597 185.50120544 C186.84607986 186.87535365 184.74501461 188.44277102 182.37095642 190.83456421 C181.68272293 191.52293869 180.99448944 192.21131317 180.28540039 192.92054749 C179.54087616 193.67540436 178.79635193 194.43026123 178.02926636 195.20799255 C177.23692093 196.00325851 176.4445755 196.79852448 175.6282196 197.6178894 C173.90832561 199.34539447 172.19074609 201.07520618 170.47520638 202.80703545 C167.76041095 205.54733531 165.03943608 208.28135858 162.31672668 211.01379395 C156.04579903 217.30953922 149.78417694 223.61450222 143.52301788 229.91996002 C137.3298777 236.15670368 131.13282161 242.38948116 124.92892265 248.6155262 C122.24764915 251.30977167 119.572469 254.00996961 116.89744568 256.7104187 C115.25288061 258.36224927 113.60803384 260.01379945 111.96286011 261.6650238 C111.22036011 262.41785645 110.47786011 263.17068909 109.71286011 263.94633484 C104.60072962 269.05950832 100.67528017 272.91515209 93.11886597 273.06370544 C91.6551355 273.12751404 91.6551355 273.12751404 90.16183472 273.19261169 C82.3584535 271.52248053 76.3536345 264.20103203 70.93136597 258.69651794 C70.21021606 257.97253815 69.48906616 257.24855835 68.74606323 256.50263977 C66.46971007 254.21519405 64.20045498 251.92085486 61.93136597 249.62620544 C60.37844665 248.06324221 58.82506549 246.50073769 57.27120972 244.93870544 C53.48590914 241.13148964 49.70639316 237.31860657 45.93136597 233.50120544 C42.01786169 235.1418375 39.0928115 237.78901385 35.9694519 240.58543396 C35.38365356 241.10508224 34.79785522 241.62473053 34.19430542 242.16012573 C28.75380984 247.01659771 23.42693774 251.99405536 18.13375473 257.01025486 C14.58959768 260.36466273 11.01941834 263.67002002 7.34640503 266.88328552 C-11.85239922 283.35690273 -11.85239922 283.35690273 -19.99636841 306.39524841 C-20.61434167 318.34155149 -21.37998575 337.31525901 -13.94363403 347.37620544 C-8.12786793 351.67481517 -1.3563886 351.79423073 5.62301636 351.75657654 C6.8661132 351.76200722 6.8661132 351.76200722 8.13432312 351.76754761 C9.9195706 351.77439932 11.70483884 351.77695504 13.49009895 351.77560043 C16.31982033 351.77462894 19.14916836 351.78764934 21.97883606 351.80458069 C30.01905493 351.85067512 38.0592322 351.87546553 46.09957886 351.88206482 C51.03025577 351.88708599 55.96053782 351.91135923 60.89108086 351.94739151 C62.76367253 351.95716818 64.63631864 351.95953313 66.5089283 351.95421982 C69.12941752 351.94712965 71.74873186 351.96446861 74.36911011 351.98704529 C75.13553833 351.97887283 75.90196655 351.97070038 76.69161987 351.96228027 C82.18121261 352.04612506 85.39643219 353.3797316 89.93136597 356.50120544 C93.99386389 361.74313825 93.68766992 368.16184875 92.93136597 374.50120544 C91.70535299 378.44938284 89.88958725 380.88216932 86.36437988 383.1595459 C81.98056077 384.87279056 78.29082987 384.92974328 73.62814331 384.90525818 C72.25122818 384.91555305 72.25122818 384.91555305 70.84649658 384.92605591 C67.8199402 384.94431482 64.793903 384.94048558 61.76730347 384.93479919 C59.65228101 384.93936338 57.53726004 384.94466966 55.42224121 384.95068359 C50.98886087 384.95961443 46.55566064 384.95719411 42.12228394 384.94725037 C36.46682147 384.93579632 30.8119867 384.95591784 25.15660667 384.9851675 C20.78627629 385.00360539 16.41609396 385.00322135 12.04573441 384.99752998 C9.96232858 384.99737751 7.87891224 385.00336046 5.79554367 385.01582146 C-11.36731506 385.10397061 -24.91504934 383.37899016 -38.32254028 371.50511169 C-46.2732084 363.28288376 -51.18466473 352.57049596 -51.2000618 341.10374928 C-51.20390294 340.02707518 -51.20774409 338.95040109 -51.21170163 337.84110051 C-51.21083515 336.66407384 -51.20996867 335.48704717 -51.20907593 334.27435303 C-51.21204705 333.01940243 -51.21501817 331.76445184 -51.21807933 330.47147244 C-51.22613638 326.99038648 -51.22793818 323.50932115 -51.2286768 320.02822697 C-51.23052961 316.2728 -51.23807811 312.51738369 -51.24481201 308.76196289 C-51.25838676 300.55110707 -51.26441874 292.34025613 -51.26882267 284.12939095 C-51.2715866 279.00097503 -51.27582424 273.872561 -51.28032684 268.74414635 C-51.2925185 254.54077555 -51.30281795 240.33740626 -51.30620193 226.13403034 C-51.3064215 225.2251973 -51.30664107 224.31636426 -51.30686729 223.37999083 C-51.30708556 222.46900194 -51.30730384 221.55801305 -51.30752873 220.61941844 C-51.3079722 218.77345486 -51.30841876 216.92749129 -51.30886841 215.08152771 C-51.30908984 214.16586897 -51.30931127 213.25021023 -51.30953941 212.30680426 C-51.31348658 197.47317686 -51.33093862 182.63959861 -51.35422793 167.8059902 C-51.37795412 152.57095447 -51.39040437 137.3359434 -51.39156985 122.10088891 C-51.39248591 113.54924002 -51.39822079 104.99765517 -51.41638947 96.44602394 C-51.43180757 89.16344494 -51.43690085 81.88094976 -51.42865136 74.59835754 C-51.42475087 70.88470709 -51.4256449 67.17122539 -51.43970871 63.45759583 C-51.45483689 59.42593471 -51.44656337 55.39465201 -51.43612671 51.36297607 C-51.44418311 50.19710301 -51.45223952 49.03122995 -51.46054006 47.8300274 C-51.37637355 33.91204638 -46.79024099 22.76291553 -37.29129028 12.57151794 C-26.8975442 2.89017274 -13.81856273 -0.11475287 0 0 Z " fill="#000000" transform="translate(83.06863403320313,31.498794555664063)"/>
<path d="M0 0 C15.11782379 11.65390684 23.8965511 26.14942147 27 45 C28.62671508 60.05122236 24.71006793 75.58752144 16 88 C14.26246495 90.02056849 12.52069271 91.96269806 10.68623352 93.88871765 C10.1655877 94.44389971 9.64494187 94.99908178 9.1085189 95.57108754 C7.98752551 96.76639478 6.86460226 97.95989458 5.73992372 99.15173507 C3.40244289 101.63476568 1.08487865 104.13600212 -1.23390257 106.63648283 C-19.36001078 126.16699413 -37.72616528 145.46054879 -56.25894642 164.60524464 C-65.42733566 174.08466702 -74.52796312 183.61404106 -83.4855957 193.29321289 C-127.23610866 240.49558772 -162.86272618 275.66388838 -229.62406921 278.81962585 C-232.08238742 278.8918403 -234.54108236 278.95238341 -237 279 C-238.21810678 279.03078959 -239.43621357 279.06157917 -240.69123268 279.09330177 C-247.38202888 279.19383337 -252.51457934 279.20188627 -258 275 C-262.31813088 270.34970521 -263.19284093 267.58572712 -263.11888504 261.44119263 C-262.94209697 257.81101564 -262.33761717 254.33632395 -261.62646484 250.77734375 C-261.48004547 250.0102005 -261.3336261 249.24305725 -261.18276978 248.45266724 C-260.70135249 245.94572736 -260.20712189 243.44155605 -259.7109375 240.9375 C-259.36642469 239.17833588 -259.02207735 237.41913934 -258.67788696 235.65991211 C-257.95612373 231.98390943 -257.22700741 228.30944879 -256.49365234 224.63574219 C-255.55952193 219.94923327 -254.65210373 215.25798211 -253.75121117 210.56498718 C-253.04946984 206.93318365 -252.32933056 203.30520294 -251.60417557 199.67800903 C-251.26192678 197.95070482 -250.92624011 196.22208587 -250.59751511 194.49215698 C-250.1342369 192.06470468 -249.64518247 189.64375382 -249.14990234 187.22265625 C-249.02186218 186.52109406 -248.89382202 185.81953186 -248.76190186 185.09671021 C-246.81659982 175.94033928 -240.57074539 169.11949333 -234.08172607 162.70077515 C-233.40986904 162.02423814 -232.73801201 161.34770114 -232.04579568 160.65066302 C-229.81459169 158.40758639 -227.57293177 156.17527637 -225.33105469 153.94287109 C-223.72017841 152.32792566 -222.10994016 150.7123436 -220.50028992 149.09617615 C-216.14140228 144.72364913 -211.77312287 140.36062063 -207.40265179 135.99967527 C-202.8210816 131.42572043 -198.24685838 126.84442752 -193.67144775 122.26431274 C-185.4949854 114.08204886 -177.3109954 105.90736115 -169.12399748 97.73564048 C-161.71563171 90.34067198 -154.31516 82.93788003 -146.92041016 75.52929688 C-138.31521777 66.90801415 -129.70496578 58.29184127 -121.08730054 49.68302405 C-116.53216939 45.13255863 -111.97906238 40.5801176 -107.43123627 36.02235031 C-103.15344717 31.73586365 -98.86832513 27.45684259 -94.5775547 23.18335152 C-93.00851391 21.61826089 -91.44198957 20.05064254 -89.87824821 18.48025703 C-65.31467076 -6.17800722 -32.43669843 -21.31680046 0 0 Z M-62 38 C-60.58098338 41.22745524 -58.87144235 43.37258107 -56.37646484 45.85058594 C-55.63584808 46.59105164 -54.89523132 47.33151733 -54.13217163 48.09442139 C-53.33316437 48.88310608 -52.5341571 49.67179077 -51.7109375 50.484375 C-50.48330185 51.70776581 -50.48330185 51.70776581 -49.23086548 52.95587158 C-46.61690027 55.55864562 -43.99606495 58.15437762 -41.375 60.75 C-39.60110546 62.5138634 -37.82766234 64.2781809 -36.0546875 66.04296875 C-31.70834858 70.36726136 -27.35634919 74.6857933 -23 79 C-15.5715259 75.44149008 -10.73368591 69.66336039 -7.69140625 62.078125 C-4.90779006 53.71154979 -5.35114752 46.05111174 -9 38 C-12.77409082 30.76262584 -19.01713068 26.56469866 -26.5 23.625 C-41.84821659 20.88424704 -51.60288041 27.12788509 -62 38 Z M-92.07969666 67.77189636 C-92.60198351 68.28541871 -93.12427036 68.79894106 -93.66238409 69.32802469 C-95.42293616 71.06172498 -97.17616138 72.80265114 -98.92944336 74.54370117 C-100.1855792 75.78404014 -101.4420831 77.02400647 -102.69892883 78.2636261 C-106.83688151 82.34904798 -110.96385282 86.44547198 -115.08984375 90.54296875 C-116.51062286 91.95302957 -117.93142027 93.36307196 -119.35223579 94.77309608 C-125.26465201 100.64222916 -131.17415768 106.51426722 -137.07620907 112.39382458 C-145.53102633 120.81620833 -154.00227166 129.22123965 -162.49777502 137.60258883 C-168.47039256 143.49767941 -174.42359968 149.41193393 -180.36285692 155.34063131 C-183.90934783 158.87982863 -187.46364636 162.41023349 -191.03886223 165.92043114 C-194.40741412 169.22859939 -197.75114898 172.56001001 -201.07787895 175.91021538 C-202.29826054 177.1310367 -203.52713272 178.34344274 -204.76524734 179.54627609 C-212.42117852 186.99589139 -216.74963997 193.02927869 -218 204 C-218.28349088 205.44739747 -218.57887291 206.89256843 -218.89135742 208.33398438 C-219.8454978 213.35502946 -219.8454978 213.35502946 -220.78979492 218.37792969 C-221.19245308 220.52642859 -221.60290847 222.67335021 -222.01367188 224.8203125 C-222.27390716 226.20303669 -222.53368982 227.58584616 -222.79296875 228.96875 C-223.0252417 230.20044922 -223.25751465 231.43214844 -223.49682617 232.70117188 C-223.93024862 235.54270714 -224.10488347 238.13522178 -224 241 C-215.06380781 240.28437065 -206.27383314 238.86355141 -197.44970703 237.31835938 C-195.73151916 237.02249088 -194.01139259 236.73767093 -192.28955078 236.46386719 C-189.76854621 236.06200266 -187.25590228 235.62463628 -184.7421875 235.1796875 C-183.98364471 235.0658371 -183.22510193 234.95198669 -182.443573 234.83468628 C-171.37134926 232.76007088 -163.5491502 221.6880493 -155.89257812 214.00610352 C-154.68965798 212.80290083 -153.48651667 211.59991922 -152.28317261 210.3971405 C-149.03770596 207.15195923 -145.79531863 203.90371735 -142.55349922 200.65489316 C-139.1573813 197.25249825 -135.75840653 193.8529597 -132.35974121 190.45310974 C-125.93354114 184.02380912 -119.50989313 177.591965 -113.08717108 171.15919012 C-105.77109296 163.83191112 -98.45215454 156.507492 -91.1329813 149.18330491 C-76.08548228 134.12537042 -61.04155668 119.06387021 -46 104 C-47.51679778 100.8209617 -49.09491398 98.65243926 -51.59179688 96.14941406 C-52.32595825 95.40894836 -53.06011963 94.66848267 -53.81652832 93.90557861 C-54.60926147 93.11689392 -55.40199463 92.32820923 -56.21875 91.515625 C-57.03243042 90.70003113 -57.84611084 89.88443726 -58.68444824 89.04412842 C-60.40354646 87.32367022 -62.12516894 85.6057311 -63.84912109 83.89013672 C-66.49679634 81.25319068 -69.13361531 78.6057262 -71.76953125 75.95703125 C-73.439463 74.28842058 -75.11001478 72.62043014 -76.78125 70.953125 C-77.57398315 70.15634338 -78.36671631 69.35956177 -79.18347168 68.53863525 C-80.28471375 67.44684967 -80.28471375 67.44684967 -81.40820312 66.33300781 C-82.05503052 65.68777161 -82.70185791 65.0425354 -83.36828613 64.37774658 C-87.16164271 61.17480508 -89.20495818 64.93130693 -92.07969666 67.77189636 Z " fill="#000000" transform="translate(454,201)"/>
<path d="M0 0 C0.75023437 0.3403125 1.50046875 0.680625 2.2734375 1.03125 C14.18965695 7.05036426 21.43418372 16.15207471 26.375 28.375 C30.14918739 40.649038 29.56986376 55.42512687 24 67 C23.5875 67.86753906 23.175 68.73507813 22.75 69.62890625 C16.62247068 81.03098496 6.96877494 87.60778901 -5 92 C-18.03271608 95.62514116 -33.11511058 93.64082181 -44.88671875 87.4921875 C-56.61196275 80.61380425 -63.93635376 70.8620185 -67.64453125 57.71484375 C-69.02187466 47.19557262 -69.53538596 34.7657101 -65 25 C-64.6596875 24.24976562 -64.319375 23.49953125 -63.96875 22.7265625 C-57.94963574 10.81034305 -48.84792529 3.56581628 -36.625 -1.375 C-25.54257524 -4.80595793 -10.63331161 -4.938317 0 0 Z M-32 34 C-35.88937897 39.44139076 -35.79042609 44.51850609 -35 51 C-32.81356301 55.61581142 -30.50400196 57.72864085 -26 60 C-20.45191396 60.82885269 -15.52859117 60.7240695 -10.4375 58.3125 C-7.1679801 55.21064779 -5.24149477 52.61649202 -4.56640625 48.09765625 C-4.55849328 41.94928199 -4.5534946 37.68685704 -9 33 C-15.97985862 28.01096016 -25.63684985 27.96316524 -32 34 Z " fill="#000000" transform="translate(196,99)"/>
</svg>
