<?xml version="1.0" encoding="UTF-8"?>
<svg version="1.1" xmlns="http://www.w3.org/2000/svg" width="512" height="512">
<path d="M0 0 C1.79063144 -0.0071165 3.58126065 -0.01481763 5.37188721 -0.02307129 C9.11387477 -0.03646533 12.85565154 -0.03810841 16.59765625 -0.03222656 C21.35617505 -0.02634308 26.11366914 -0.05688971 30.8719902 -0.09734344 C34.5681488 -0.12339442 38.26406654 -0.12608208 41.96030426 -0.12245178 C43.71272602 -0.1241276 45.4651608 -0.13361911 47.21749115 -0.15159607 C62.14595823 -0.2878855 75.32414048 1.6125641 86.578125 12.46875 C93.28354342 19.35918702 98.3766598 26.97439476 103.46484375 35.09179688 C108.58089181 43.05492318 108.58089181 43.05492318 116.91235352 47.046875 C119.68284958 47.48532332 122.3092863 47.61129553 125.11328125 47.64453125 C143.62936358 48.0106805 156.28570592 49.75283492 170.328125 62.78125 C181.28616083 74.35955201 183.03189196 87.14817734 182.98217773 102.46826172 C182.98788977 104.06601435 182.99485724 105.66376291 183.00297546 107.26150513 C183.02083093 111.57569016 183.0197528 115.88967094 183.01403308 120.20388174 C183.01092986 123.81693439 183.0170463 127.42994844 183.02307183 131.04299557 C183.03709074 139.57280482 183.03557802 148.10251386 183.02416992 156.63232422 C183.01269392 165.40631258 183.02676165 174.17999507 183.0535664 182.95394313 C183.07578153 190.51097944 183.08234764 198.06792015 183.07648998 205.62498677 C183.07313276 210.1279026 183.0754527 214.63062249 183.09274101 219.13351059 C183.10830092 223.37068114 183.10415535 227.60740155 183.08543587 231.8445549 C183.08177472 233.3908022 183.08478542 234.93708352 183.09532166 236.48329926 C183.1966693 252.59886264 179.30248969 264.32288405 168.265625 276.21875 C158.59915223 285.36737601 147.28128963 288.94267309 134.19314575 288.85643005 C133.19668152 288.86181559 132.20021728 288.86720113 131.17355716 288.87274987 C127.8605307 288.88696826 124.54790725 288.87994076 121.23486328 288.87280273 C118.84894491 288.8785095 116.46302928 288.88547495 114.07711792 288.89360046 C108.28448828 288.90965568 102.49198335 288.91163928 96.69933619 288.90638756 C91.98761469 288.90233477 87.27592515 288.90380254 82.56420517 288.90913582 C81.8918366 288.90988424 81.21946803 288.91063266 80.52672466 288.91140376 C79.16050077 288.91293535 77.79427688 288.9144737 76.42805301 288.91601873 C63.63544638 288.92972514 50.84290102 288.92431929 38.05029581 288.91283352 C26.36749755 288.90290407 14.68485774 288.91584008 3.00208391 288.93976771 C-9.01711896 288.96419739 -21.03624816 288.97375704 -33.05547535 288.96711498 C-39.7940177 288.96363121 -46.53243829 288.96579886 -53.27096176 288.98336601 C-59.60926719 288.99886504 -65.94727079 288.99484636 -72.28556442 288.97606087 C-74.60583947 288.97238318 -76.92613703 288.97545939 -79.2463913 288.98594666 C-97.90380467 289.06380902 -110.95997642 287.34190645 -125.171875 274.15625 C-136.12991083 262.57794799 -137.87564196 249.78932266 -137.82592773 234.46923828 C-137.83163977 232.87148565 -137.83860724 231.27373709 -137.84672546 229.67599487 C-137.86458093 225.36180984 -137.8635028 221.04782906 -137.85778308 216.73361826 C-137.85467986 213.12056561 -137.8607963 209.50755156 -137.86682183 205.89450443 C-137.88084074 197.36469518 -137.87932802 188.83498614 -137.86791992 180.30517578 C-137.85644392 171.53118742 -137.87051165 162.75750493 -137.8973164 153.98355687 C-137.91953153 146.42652056 -137.92609764 138.86957985 -137.92023998 131.31251323 C-137.91688276 126.8095974 -137.9192027 122.30687751 -137.93649101 117.80398941 C-137.95205092 113.56681886 -137.94790535 109.33009845 -137.92918587 105.0929451 C-137.92552472 103.5466978 -137.92853542 102.00041648 -137.93907166 100.45420074 C-138.0404193 84.33863736 -134.14623969 72.61461595 -123.109375 60.71875 C-111.56530703 49.79311424 -98.88024015 48.0699479 -83.61132812 47.94140625 C-76.45946773 47.79268255 -69.19454429 47.55952228 -63.43359375 42.83984375 C-62.99660156 42.20175781 -62.55960937 41.56367187 -62.109375 40.90625 C-61.55507812 40.1225 -61.00078125 39.33875 -60.4296875 38.53125 C-59.31261455 36.82738775 -58.19597675 35.12323921 -57.08105469 33.41796875 C-47.58749106 18.90503584 -39.18674845 6.25049495 -21.68319702 1.12117004 C-14.56860042 -0.3020888 -7.22940476 -0.00351282 0 0 Z M-19.421875 112.46875 C-20.13859375 113.07332031 -20.8553125 113.67789063 -21.59375 114.30078125 C-31.82968331 123.72339428 -39.45815891 137.81022508 -40.61474609 151.80200195 C-41.35142215 173.79289842 -37.21824977 189.69891953 -21.8046875 206.18359375 C-8.51347561 218.93008384 7.09337341 224.0224209 25.16430664 223.95849609 C42.1550874 223.48936807 55.80613636 216.64282835 68.16015625 205.03515625 C81.71242563 190.65092203 86.20915838 174.56691917 85.91796875 155.24609375 C85.24859255 138.33392905 76.75114726 123.93770096 64.578125 112.46875 C39.57496525 91.86824913 5.38647245 91.4616816 -19.421875 112.46875 Z " fill="#000000" transform="translate(233.421875,47.53125)"/>
<path d="M0 0 C3.87169696 2.2102207 5.95282191 4.18158446 7.75 8.375 C8.48571167 13.88517382 8.7202875 19.35232403 6.0625 24.375 C3.75 27.375 3.75 27.375 1.3125 29.1875 C-3.10263595 32.9565185 -5.49166376 38.04171609 -6.7734375 43.67578125 C-7.27125921 50.34896276 -4.25621107 55.24671736 -0.25 60.375 C31.99229895 95.66024685 96.1849681 102.81354635 140.75 106.375 C139.7909375 105.2303125 139.7909375 105.2303125 138.8125 104.0625 C135.08733444 99.20849639 135.12200491 94.27815385 135.75 88.375 C137.07639447 84.1401261 139.37077313 81.67079696 142.875 78.9375 C147.27548396 76.74198972 151.95126055 76.55172322 156.75 77.375 C162.69919597 79.71012663 166.5161791 83.72218854 170.921875 88.18359375 C172.06731781 89.3282888 172.06731781 89.3282888 173.23590088 90.49610901 C174.84300427 92.10554621 176.4464319 93.71866124 178.04638672 95.33520508 C180.49676191 97.80923065 182.96024369 100.26960981 185.42578125 102.72851562 C186.98777388 104.29608351 188.54899855 105.86441709 190.109375 107.43359375 C190.84581238 108.16911972 191.58224976 108.90464569 192.34100342 109.66246033 C193.02221252 110.35320145 193.70342163 111.04394257 194.40527344 111.75561523 C195.00450623 112.35945541 195.60373901 112.96329559 196.22113037 113.58543396 C199.41132897 117.31961178 200.06309433 120.38421396 200.125 125.25 C200.15335938 126.25804687 200.18171875 127.26609375 200.2109375 128.3046875 C199.14522265 135.40343221 193.05110513 140.40774005 188.203125 145.29296875 C187.10807648 146.40155998 187.10807648 146.40155998 185.99090576 147.532547 C184.45043753 149.08747138 182.90718685 150.63964355 181.36132812 152.18920898 C179.00923553 154.55321768 176.6764627 156.93524553 174.34375 159.31835938 C172.8396957 160.83187686 171.33452358 162.3442845 169.828125 163.85546875 C169.138255 164.56487106 168.44838501 165.27427338 167.73760986 166.00517273 C162.78770167 170.90999006 158.35999539 173.77686769 151.28125 174.6953125 C144.82085984 174.07412114 140.91871261 171.28594681 136.75 166.375 C134.10545817 161.50904303 134.43583007 156.6411342 135.75 151.375 C137.92636474 147.39750581 140.54121858 144.52996538 143.75 141.375 C143.18643799 141.31554199 142.62287598 141.25608398 142.04223633 141.19482422 C84.62524669 135.0069855 10.10686026 126.39263227 -29.125 78.9375 C-38.83094359 65.71938122 -41.59679135 52.39845008 -40.25 36.375 C-37.77069193 22.75289261 -30.14179813 10.66935388 -19.4453125 1.89453125 C-13.31929855 -2.32662761 -6.74935952 -3.04036569 0 0 Z " fill="#000000" transform="translate(72.25,290.625)"/>
<path d="M0 0 C11.03950557 6.23128342 18.27986814 17.96019892 22.5 29.625 C26.13088121 43.09019625 25.26614743 57.01529614 19 69.5 C16.93073003 73.08913079 14.62105842 76.29530509 12 79.5 C11.34257812 80.31984375 10.68515625 81.1396875 10.0078125 81.984375 C0.0291217 93.75411287 -12.46368018 101.46540268 -26 108.5 C-26.62229492 108.83209473 -27.24458984 109.16418945 -27.88574219 109.50634766 C-46.12684638 119.15465395 -66.65936273 125.17018012 -86.625 130.125 C-87.60017578 130.37266113 -88.57535156 130.62032227 -89.58007812 130.87548828 C-97.34087729 132.69267058 -106.07265783 134.32340886 -113.5 130.875 C-117.94809958 126.64930539 -120.61288249 122.86937393 -121.09375 116.58203125 C-120.8607051 111.40649247 -118.99300385 107.71367137 -115.75 103.75 C-111.03162545 100.32464155 -105.07058362 99.43340047 -99.49707031 98.09960938 C-49.33061365 86.09001983 -49.33061365 86.09001983 -11.125 53.625 C-8.83718476 47.26995766 -9.33706073 42.29301503 -12.1875 36.1875 C-14.29897534 32.31049725 -16.44708994 30.14190748 -20 27.5 C-23.82834774 22.43002596 -24.65338296 18.49425558 -24.375 12.15234375 C-23.77147226 7.8836423 -22.76018922 5.8812318 -20 2.5 C-13.76795808 -2.13266833 -7.1221385 -3.11593559 0 0 Z " fill="#000000" transform="translate(456,290.5)"/>
<path d="M0 0 C8.34468007 4.97590182 13.53387008 11.86345977 16.109375 21.2578125 C17.10789012 32.35758522 16.45884702 41.9922991 9.359375 51.0703125 C3.70168013 57.1280464 -3.34488592 60.84888618 -11.625 61.59375 C-22.35447774 61.83515993 -31.19802606 60.58332943 -39.359375 52.9609375 C-46.75303791 44.73737365 -48.47252567 36.02335615 -48.203125 25.24609375 C-47.72879865 16.86039919 -44.11592977 9.8548755 -37.890625 4.2578125 C-27.15195714 -3.81766573 -12.32399863 -5.91386512 0 0 Z " fill="#000000" transform="translate(271.890625,178.7421875)"/>
</svg>
