<?xml version="1.0" encoding="UTF-8"?>
<svg version="1.1" xmlns="http://www.w3.org/2000/svg" width="512" height="512">
<path d="M0 0 C1.2655351 -0.00384115 2.53107021 -0.00768229 3.83495486 -0.01163983 C5.231784 -0.01085969 6.6286131 -0.00998092 8.02544212 -0.00901413 C9.51524665 -0.01159926 11.00505049 -0.01461283 12.49485338 -0.01801753 C16.58550313 -0.0260735 20.67613532 -0.02787632 24.76679206 -0.028615 C29.18005006 -0.030468 33.593299 -0.0380166 38.00655174 -0.04475021 C47.65545353 -0.05832421 57.30435115 -0.06435683 66.9532609 -0.06876087 C72.98005225 -0.07152494 79.00684201 -0.0757626 85.03363228 -0.08026505 C101.72562179 -0.09245661 118.41761002 -0.10275607 135.10960388 -0.10614014 C136.17764968 -0.1063597 137.24569549 -0.10657927 138.34610631 -0.10680549 C139.41668337 -0.10702377 140.48726043 -0.10724204 141.59027922 -0.10746694 C143.75961534 -0.1079104 145.92895146 -0.10835696 148.09828758 -0.10880661 C149.1743494 -0.10902804 150.25041121 -0.10924947 151.35908096 -0.10947761 C168.7908339 -0.1134247 186.22254502 -0.13087652 203.65428181 -0.15416613 C221.55844785 -0.17789351 239.46259291 -0.19034262 257.36677492 -0.19150805 C267.41635693 -0.19242405 277.46588445 -0.19815728 287.51545143 -0.21632767 C296.07374488 -0.23174736 304.63196699 -0.23683809 313.19027169 -0.22858956 C317.55427801 -0.22468966 321.91814074 -0.22558037 326.28212929 -0.23964691 C330.28321586 -0.25242539 334.28405152 -0.25115392 338.28513794 -0.2390562 C339.72661854 -0.23710601 341.16811715 -0.24014605 342.60957249 -0.24890056 C359.32789453 -0.34394574 373.05633135 3.05474277 385.38393211 14.74470901 C393.35264846 23.16838667 398.7496004 34.11422344 398.77596569 45.84895706 C398.78042353 46.77399505 398.78488138 47.69903303 398.78947431 48.65210247 C398.78919776 50.16360677 398.78919776 50.16360677 398.78891563 51.70564651 C398.79259232 52.78288766 398.79626901 53.8601288 398.80005711 54.97001362 C398.81108622 58.58632315 398.81493652 62.20260394 398.81874657 65.81892776 C398.82501185 68.40937771 398.83165871 70.99982675 398.83865929 73.59027481 C398.85839696 81.36881399 398.86848697 89.14735442 398.87738708 96.92591238 C398.88177483 100.59322411 398.88714041 104.2605344 398.89237595 107.927845 C398.90938634 120.12644526 398.92387877 132.32504464 398.93112469 144.52365494 C398.93303444 147.68734615 398.93495479 150.85103736 398.93691063 154.01472855 C398.93739437 154.80100392 398.93787811 155.58727929 398.93837651 156.39738119 C398.94667036 169.12414991 398.97199719 181.85082445 399.00449131 194.57755208 C399.03761411 207.65766856 399.0555782 220.73773727 399.05876893 233.81789589 C399.06092931 241.15627129 399.06960849 248.49450938 399.0952301 255.83284378 C399.11929353 262.74067225 399.1227301 269.64825051 399.11246872 276.55611229 C399.11197407 279.08560444 399.11827351 281.61510886 399.13202477 284.14456367 C399.23115135 303.46600429 398.14623128 319.05156242 384.32924461 333.94392776 C373.39166692 344.12466415 360.14569161 347.33576321 345.52065086 347.22908401 C344.77588997 347.22766907 344.03112907 347.22625412 343.26379967 347.2247963 C340.91057188 347.21924765 338.55744311 347.2067051 336.20424461 347.19392776 C334.59812621 347.18890611 332.99200629 347.18434438 331.38588524 347.18025589 C327.47110387 347.17015062 323.55653365 347.15056579 319.64174461 347.13142776 C319.64174461 341.19142776 319.64174461 335.25142776 319.64174461 329.13142776 C322.19666649 329.10564651 324.75158836 329.07986526 327.38393211 329.05330276 C329.88957261 329.01476523 332.3950154 328.96964314 334.90053368 328.92390823 C336.62667279 328.89588022 338.35293591 328.87457635 340.07924461 328.86043167 C352.79141254 328.75008299 363.25780365 328.21800702 372.95424461 319.04939651 C380.02823352 311.00928413 380.94327867 300.81376309 380.8957119 290.54916763 C380.89883188 289.50737647 380.90195186 288.46558532 380.90516639 287.39222473 C380.91312046 283.91403957 380.90683274 280.43603013 380.90053368 276.95784378 C380.9032447 274.45898207 380.90680626 271.96012115 380.91115379 269.46126175 C380.91932138 263.38596249 380.91813323 257.31073176 380.91232851 251.2354352 C380.90780496 246.2957676 380.90720212 241.35611385 380.90937614 236.41644478 C380.90983584 235.36039274 380.90983584 235.36039274 380.91030483 234.28300632 C380.91094431 232.85259517 380.91159273 231.42218402 380.91225001 229.99177288 C380.91794847 216.58933011 380.91140323 203.18691473 380.90064928 189.78447645 C380.89171616 178.29586512 380.89326478 166.80729422 380.9024868 155.31868362 C380.91320135 141.96453735 380.91739715 128.61041507 380.91126227 115.2562651 C380.9106252 113.83091891 380.90999646 112.40557272 380.90937614 110.98022652 C380.90906759 110.27900471 380.90875904 109.5777829 380.90844114 108.85531195 C380.90671761 103.92468092 380.90962197 98.99406517 380.91433525 94.06343651 C380.92054577 87.42074111 380.9160937 80.77811006 380.90454674 74.13541794 C380.90190532 71.69939361 380.90265638 69.26336284 380.90707207 66.82734108 C380.91254936 63.49836502 380.90566664 60.16963217 380.8957119 56.84067154 C380.90017334 55.88015225 380.90463479 54.91963297 380.90923142 53.93000704 C380.84102665 42.14403649 378.29036296 33.78004611 369.82924461 25.31892776 C360.96560495 19.2360378 353.37549324 18.54951384 342.74542809 18.61003494 C341.23652829 18.60398723 339.72763463 18.59620592 338.21875173 18.58684981 C334.08917066 18.56633176 329.95993768 18.57064244 325.83032835 18.579211 C321.37005478 18.5841532 316.9098642 18.56610758 312.4496212 18.55113602 C303.71777426 18.52565872 294.98605038 18.52205256 286.25417253 18.52673654 C279.1549335 18.53030522 272.05573177 18.52679862 264.95649719 18.51828766 C263.94539906 18.51709728 262.93430093 18.5159069 261.89256347 18.51468045 C259.83838404 18.5122569 257.78420462 18.50982863 255.73002521 18.5073957 C236.47266029 18.48565085 217.21536544 18.48996665 197.95799658 18.50216539 C180.35176909 18.51250199 162.74576297 18.4899965 145.13957926 18.45196895 C127.04997692 18.41319763 108.96047928 18.39670277 90.87083513 18.40421546 C80.71952454 18.40803751 70.56840234 18.40308393 60.4171257 18.37478638 C51.77465004 18.35093807 43.1324787 18.34817172 34.48999878 18.37236671 C30.08329691 18.38413034 25.67715138 18.3863834 21.27048683 18.36236191 C17.23038933 18.34059522 13.19131095 18.34690565 9.15126065 18.37488528 C7.69574078 18.38016609 6.2401404 18.37548694 4.7846997 18.35941355 C-5.74127955 18.2513068 -14.58676432 19.92461693 -22.6203559 27.17220533 C-29.3682693 34.28113802 -31.48618345 42.06998974 -31.4785099 51.73099136 C-31.47979154 52.70520146 -31.47979154 52.70520146 -31.48109907 53.69909257 C-31.48274119 55.8670771 -31.47725333 58.03498361 -31.47178078 60.20296097 C-31.47149861 61.76032891 -31.47165723 63.31769699 -31.47222328 64.87506485 C-31.47251009 69.09778626 -31.46663219 73.32047925 -31.45964932 77.54319406 C-31.45339638 81.95811713 -31.45281045 86.37304086 -31.45162392 90.78796768 C-31.44851633 99.14597573 -31.44031064 107.5039707 -31.43027443 115.86197299 C-31.41909553 125.37823015 -31.41359836 134.89448794 -31.40857899 144.41075003 C-31.39812757 163.98431658 -31.38053919 183.55787135 -31.35825539 203.13142776 C-30.56161476 202.26840042 -29.76497414 201.40537308 -28.94419289 200.51619339 C-16.74888039 187.30460485 -4.55356789 174.09301631 7.64174461 160.88142776 C8.13658348 160.3453389 8.63142235 159.80925003 9.14125633 159.25691605 C10.14282988 158.1719052 11.14445762 157.08694439 12.14613914 156.00203323 C14.62250733 153.31977019 17.09797526 150.63668842 19.57143211 147.95174026 C22.04987229 145.26179116 24.53222053 142.57548705 27.01625633 139.89070511 C28.16249723 138.65012056 29.30721189 137.408125 30.45082664 136.16511917 C32.323682 134.12999827 34.20110689 132.09917341 36.07924461 130.06892776 C36.65851707 129.43744827 37.23778954 128.80596878 37.83461571 128.15535355 C45.24786879 120.16405221 52.27072414 115.13400898 63.49941063 114.65364456 C75.38576151 114.5266745 83.63847938 117.28693428 92.25502586 125.59236526 C95.4136746 128.95262988 98.29405218 132.484013 101.15346336 136.10017776 C104.05936455 139.6401767 107.13399596 142.98026449 110.26674461 146.31892776 C115.7744345 152.19573005 121.12098856 158.16889288 126.34096336 164.30330276 C127.35756218 165.49629091 128.37450049 166.68898982 129.39174461 167.88142776 C130.16397362 168.78695389 130.16397362 168.78695389 130.95180321 169.71077347 C134.33276451 173.6562806 137.79276504 177.51262142 141.32924461 181.31892776 C144.69757908 184.94425984 147.92096481 188.64375169 151.01674461 192.50642776 C155.627461 198.23665263 160.619311 203.56227855 165.64565086 208.92439651 C170.01164755 213.58334096 174.17350294 218.4021358 178.30580711 223.26814651 C183.49276285 229.36823859 188.71639647 235.4349139 194.07924461 241.38142776 C194.80470482 242.20453445 194.80470482 242.20453445 195.54482079 243.04426956 C199.06252574 246.89926358 201.88025738 248.74400868 207.03627586 249.46736526 C213.97081611 249.57939338 219.08093477 248.35788926 224.30580711 243.62361526 C225.44688503 242.46090554 226.57366252 241.28405238 227.68861961 240.09627151 C229.89956147 237.87206401 232.25156276 235.9606845 234.70424461 234.00642776 C239.20210084 230.39086707 243.44265799 226.58865523 247.64174461 222.63142776 C252.54103281 218.01779883 257.56378353 213.68129663 262.82143211 209.47517776 C268.29860521 204.92351037 273.45316535 200.00654755 278.64174461 195.13142776 C282.5257215 196.68145524 284.6715408 199.13619398 287.39174461 202.25642776 C288.19096336 203.16650589 288.99018211 204.07658401 289.81361961 205.01424026 C290.41690086 205.71291214 291.02018211 206.41158401 291.64174461 207.13142776 C287.35063237 212.38804027 282.82281788 216.76711605 277.64174461 221.13142776 C275.38825887 223.04401997 273.13919242 224.96174545 270.89174461 226.88142776 C270.29088036 227.39431351 269.6900161 227.90719925 269.07094383 228.43562698 C264.04595241 232.74372142 259.16342103 237.19164167 254.30190086 241.68220901 C250.8053196 244.90152832 247.2432575 248.03065998 243.64174461 251.13142776 C242.60912916 252.04151212 241.57658298 252.95167508 240.54408836 253.86189651 C230.6044535 262.54988433 221.37682377 268.77647003 207.66908836 268.31502151 C193.32734545 267.01625096 184.48497638 259.31381979 175.46596336 248.52986526 C174.01314854 246.72911855 172.56540923 244.92426768 171.12221336 243.11580276 C168.25173115 239.66218322 165.22100377 236.3981278 162.14174461 233.13142776 C158.31945382 229.0728818 154.62734898 224.98843322 151.14174461 220.63142776 C146.58132535 214.93511072 141.62439798 209.65823711 136.63783836 204.33845901 C132.26057747 199.66749456 128.09031572 194.83395236 123.94252586 189.95955276 C118.11156248 183.11624297 112.18766127 176.39159559 106.08705711 169.78767776 C101.35755591 164.65020042 96.8242012 159.34892017 92.28676414 154.04231644 C90.71802017 152.21001767 89.14487274 150.3815686 87.57143211 148.55330276 C85.80324444 146.49705876 84.06200614 144.42788073 82.33705711 142.33455276 C77.41880174 136.47857554 73.96744216 133.59489536 66.14174461 132.75642776 C55.8691213 133.85706598 50.78360481 140.51294033 44.34486961 147.91658401 C40.78706614 151.99583872 37.10991317 155.94858998 33.39174461 159.88142776 C27.98937557 165.61957113 22.62914547 171.39078186 17.31361961 177.20955276 C14.45296806 180.33786762 11.58064712 183.45510497 8.70424461 186.56892776 C8.20513573 187.10928665 7.70602684 187.64964554 7.19179344 188.20637894 C6.18053849 189.30107668 5.16922649 190.39572173 4.15785789 191.49031448 C1.15286559 194.74306139 -1.85033763 197.9974604 -4.85361671 201.25178909 C-7.37734283 203.98627165 -9.90202213 206.71986254 -12.42856789 209.45174026 C-12.9403257 210.00539261 -13.45208351 210.55904495 -13.97934914 211.12947464 C-15.37879373 212.64341925 -16.77866368 214.15697064 -18.17856789 215.67049026 C-18.65302345 216.20456497 -19.12747902 216.73863968 -19.61631203 217.28889847 C-21.35825539 219.13142776 -21.35825539 219.13142776 -23.81699562 221.30794144 C-29.21373257 226.42243156 -32.00049825 230.15807274 -32.55698586 237.69148636 C-32.61818248 240.55903391 -32.55548497 243.41326618 -32.47544289 246.27986526 C-32.46691576 247.82482165 -32.46228252 249.36980387 -32.46131325 250.91478348 C-32.44905113 254.13826331 -32.40403025 257.35892535 -32.33237648 260.58162308 C-32.24198388 264.67559528 -32.2123278 268.76702398 -32.20490265 272.86190224 C-32.19596484 276.04865617 -32.1652167 279.2348967 -32.12714958 282.42142487 C-32.10961338 283.92898929 -32.0960456 285.43660614 -32.08682823 286.94424438 C-31.98252997 298.93551084 -31.18393291 311.48221878 -22.35825539 320.47908401 C-14.8830975 326.65484922 -8.22990329 328.2783641 1.28499413 328.28964615 C2.16637558 328.29458413 3.04775704 328.2995221 3.95584702 328.30460972 C6.91462087 328.31999029 9.87337301 328.32834688 12.8321743 328.33675003 C14.95096592 328.34632811 17.06975563 328.35633815 19.18854332 328.36674881 C24.94637506 328.39381151 30.704215 328.41481371 36.46207523 328.4347508 C42.47724152 328.4566019 48.49238246 328.48399488 54.50752831 328.51080704 C65.90069792 328.56074575 77.29388159 328.60568022 88.68707871 328.6488294 C101.65671172 328.69819169 114.6263193 328.75311357 127.59592772 328.80850899 C154.27784314 328.92234714 180.95978322 329.028985 207.64174461 329.13142776 C207.64174461 335.07142776 207.64174461 341.01142776 207.64174461 347.13142776 C180.24218356 347.20096713 152.84264387 347.25445897 125.44301224 347.28686428 C112.72000048 347.30231263 99.99704467 347.32336328 87.27406883 347.35774612 C76.18070217 347.38771071 65.08737604 347.40701753 53.99397004 347.41369325 C48.12376264 347.41759354 42.25367118 347.42671737 36.38350105 347.44861794 C30.8497439 347.46909466 25.31614961 347.47523906 19.78235817 347.47075081 C17.75963262 347.47157103 15.7369012 347.47746958 13.7142086 347.48904419 C-5.10760206 347.59139795 -21.73554815 346.24188395 -36.03403664 332.63924026 C-50.243197 317.30767563 -49.94509652 300.22071416 -49.87583351 280.53572464 C-49.88125989 277.94409162 -49.88838544 275.35246169 -49.89707375 272.76083755 C-49.91477602 266.47696187 -49.91105629 260.19327827 -49.89942318 253.90939534 C-49.89035624 248.79824517 -49.88917888 243.6871485 -49.89351845 238.57599258 C-49.89413138 237.84603662 -49.89474431 237.11608066 -49.89537582 236.36400482 C-49.89665484 234.88069425 -49.89795169 233.3973837 -49.89926618 231.91407317 C-49.91064768 218.03456359 -49.89759657 204.15516003 -49.87606472 190.27566785 C-49.85819593 178.38980691 -49.86130072 166.50410229 -49.87973976 154.61824417 C-49.90118958 140.78533564 -49.90954927 126.9525198 -49.89729071 113.11959696 C-49.89601663 111.64201897 -49.89475915 110.16444096 -49.89351845 108.68686295 C-49.89290135 107.96003782 -49.89228424 107.2332127 -49.89164844 106.48436257 C-49.88820784 101.38471546 -49.8939959 96.28512759 -49.90343666 91.18548965 C-49.91588567 84.31034937 -49.90690814 77.43550773 -49.88385963 70.56039619 C-49.87859039 68.04381103 -49.88005555 65.52720094 -49.88891029 63.01062584 C-49.9486829 44.29072553 -49.09070379 28.26089391 -35.60825539 13.88142776 C-25.62959923 4.47298053 -13.62259279 0.0155658 0 0 Z " fill="#000000" transform="translate(81.35825538635254,14.868572235107422)"/>
<path d="M0 0 C13.1656225 8.26468336 22.03251042 20.50710841 25.875 35.5 C29.1081275 51.66563751 25.9997659 66.21167941 17 80 C14.66690863 83.01929471 12.23078298 85.90643755 9.7265625 88.78515625 C6.68973695 92.300959 3.94340448 96.0125158 1.1875 99.75 C-2.90818601 105.28376502 -7.12647535 110.68319168 -11.5 116 C-15.80643842 121.23705893 -19.9659646 126.55032685 -24 132 C-28.54879409 138.14507275 -33.28919292 144.09517049 -38.14453125 150 C-41.89051541 154.57743172 -45.48112021 159.24626266 -49 164 C-53.03404273 169.44968305 -57.19373635 174.76279056 -61.5 180 C-66.35499825 185.90581993 -70.9995961 191.93196965 -75.55297852 198.07250977 C-79.39697983 203.24015603 -83.38363617 208.27535451 -87.42993164 213.28540039 C-91.19900167 217.96506893 -94.86515684 222.71551945 -98.5 227.5 C-103.59166293 234.19792075 -108.79582922 240.79318019 -114.0703125 247.34765625 C-117.53220196 251.65241029 -120.94218096 255.99738644 -124.34814453 260.34643555 C-125.5640287 261.89872209 -126.78196072 263.44940394 -128 265 C-128.64839844 265.86367188 -129.29679687 266.72734375 -129.96484375 267.6171875 C-140.90203926 280.42273311 -156.65639926 285.69250624 -172.91015625 287.28515625 C-189.26069051 287.83900351 -205.46394677 281.61036807 -217.5625 270.6875 C-229.08531287 259.66932196 -235.91017711 244.82870578 -236.34350586 228.90576172 C-236.52504777 213.23686553 -233.61675793 200.75265726 -224 188 C-223.48953125 187.29617188 -222.9790625 186.59234375 -222.453125 185.8671875 C-213.3936178 174.43068089 -200.01172499 168.05580052 -186 165 C-173.43147449 164.08248791 -161.64409705 164.50322221 -150.0625 169.75 C-147.25985591 171.13370677 -147.25985591 171.13370677 -145.11328125 170.94921875 C-141.87625073 169.49524756 -140.18430562 166.84163291 -138.125 164.0625 C-137.1446754 162.77723379 -136.16419935 161.49208308 -135.18359375 160.20703125 C-134.66651855 159.52205566 -134.14944336 158.83708008 -133.61669922 158.13134766 C-130.84374955 154.47567708 -128.01070354 150.86689735 -125.1875 147.25 C-123.99696819 145.71908246 -122.80686854 144.18782876 -121.6171875 142.65625 C-120.72338379 141.50576172 -120.72338379 141.50576172 -119.81152344 140.33203125 C-119.2137207 139.56246094 -118.61591797 138.79289063 -118 138 C-111.08110662 129.09309036 -104.15998735 120.18855113 -97.18286133 111.32714844 C-93.43689987 106.56564556 -89.71670819 101.78435871 -86 97 C-81.84785525 91.65512253 -77.68693181 86.31767502 -73.5 81 C-66.96286228 72.69557924 -60.48345279 64.34635324 -54 56 C-47.08560878 47.09888613 -40.17080486 38.19866261 -33.19604492 29.34472656 C-30.57965376 26.02028026 -27.97644562 22.68599069 -25.3828125 19.34375 C-24.44791992 18.13912109 -24.44791992 18.13912109 -23.49414062 16.91015625 C-22.28093883 15.34579783 -21.06864513 13.78073458 -19.85742188 12.21484375 C-18.24606347 10.13699058 -16.62552414 8.06678213 -15 6 C-14.53174805 5.39671875 -14.06349609 4.7934375 -13.58105469 4.171875 C-9.34337572 -1.14500376 -6.56267104 -1.46538274 0 0 Z M-4 21 C-10.39980427 28.55721568 -16.55990949 36.2516291 -22.56494141 44.12646484 C-25.3366062 47.74500102 -28.13813979 51.34037506 -30.9375 54.9375 C-31.53788086 55.70916504 -32.13826172 56.48083008 -32.75683594 57.27587891 C-36.76411718 62.42235745 -40.78837923 67.55517059 -44.82275391 72.68041992 C-50.91601334 80.42693214 -56.95390314 88.21666883 -63 96 C-69.91889338 104.90690964 -76.84001265 113.81144887 -83.81713867 122.67285156 C-87.56310013 127.43435444 -91.28329181 132.21564129 -95 137 C-99.15214494 142.34487772 -103.31309839 147.682301 -107.5 153 C-111.7041302 158.34126815 -115.88828742 163.69781814 -120.0625 169.0625 C-120.65321289 169.82103271 -121.24392578 170.57956543 -121.85253906 171.36108398 C-124.60038796 174.89419586 -127.33745778 178.43433483 -130.04296875 182 C-130.50372803 182.60577881 -130.9644873 183.21155762 -131.43920898 183.83569336 C-132.6659262 185.45174307 -133.88782999 187.07144341 -135.109375 188.69140625 C-137.61641519 191.75268879 -138.47684487 191.92390471 -142.4375 192.5 C-146.59057093 192.47751045 -148.91743499 190.99789524 -152.3125 188.6875 C-161.14819071 182.6753358 -170.38832657 180.82537451 -181 182 C-193.39978508 184.49480706 -203.66606849 190.02088561 -211.27734375 200.2421875 C-218.04118388 211.07046671 -220.81362842 222.71334848 -218.3515625 235.3203125 C-215.14839419 246.90099793 -208.82460271 256.01568528 -199 263 C-187.67855804 269.17533198 -176.21665021 270.72293236 -163.53125 268.3515625 C-156.55669617 266.24841096 -151.35148025 262.88296544 -146 258 C-145.41992188 257.48824219 -144.83984375 256.97648438 -144.2421875 256.44921875 C-138.98514524 251.52226984 -134.80670687 245.6869855 -130.48339844 239.95410156 C-127.70854099 236.29874294 -124.88291732 232.68274286 -122.0625 229.0625 C-121.46236084 228.29123779 -120.86222168 227.51997559 -120.24389648 226.7253418 C-116.2388777 221.58114659 -112.21685699 216.45062509 -108.18383789 211.32836914 C-104.43752622 206.56647871 -100.71702785 201.78477019 -97 197 C-92.41266751 191.09492405 -87.80942832 185.20307217 -83.18359375 179.328125 C-79.43744268 174.56625367 -75.71695789 169.78468013 -72 165 C-67.41266751 159.09492405 -62.80942832 153.20307217 -58.18359375 147.328125 C-54.43744268 142.56625367 -50.71695789 137.78468013 -47 133 C-42.84785525 127.65512253 -38.68693181 122.31767502 -34.5 117 C-29.18302462 110.24560647 -23.90462262 103.46155687 -18.6328125 96.671875 C-16.17674965 93.5097107 -13.71250828 90.3541621 -11.2421875 87.203125 C5.93733738 66.13498114 5.93733738 66.13498114 9 40 C7.42698601 33.22804148 3.87465628 26.97864895 -1 22 C-1.99 21.67 -2.98 21.34 -4 21 Z " fill="#000000" transform="translate(421,210)"/>
<path d="M0 0 C2.55548009 1.69460516 4.90683732 3.49463006 7.26171875 5.45703125 C7.97070312 6.03066406 8.6796875 6.60429688 9.41015625 7.1953125 C18.75269689 15.55348583 23.38583129 27.57896712 24.47265625 39.8359375 C25.03945967 53.41741942 20.22410236 66.8099974 11.015625 76.8359375 C0.76399725 86.31127272 -11.00031048 91.34031418 -24.97265625 91.4921875 C-37.29630496 90.88779803 -47.18386284 87.24704487 -56.73828125 79.45703125 C-57.69347656 78.70679688 -57.69347656 78.70679688 -58.66796875 77.94140625 C-66.24763089 71.27130356 -71.89802367 59.37189845 -72.95532227 49.41259766 C-73.77662651 34.52793383 -71.05852934 22.45869993 -61.73828125 10.45703125 C-46.40272018 -6.55954325 -20.08162061 -11.31560648 0 0 Z M-48.73828125 22.45703125 C-53.98252498 30.01569887 -56.87254871 38.22085333 -55.73828125 47.45703125 C-53.68978804 56.84710413 -48.58178883 64.57505257 -40.515625 69.93359375 C-32.75246626 73.96753418 -23.6750129 75.03594924 -15.16796875 72.7734375 C-6.61654303 69.18303053 0.24314601 63.9303009 4.26171875 55.45703125 C7.30761227 47.70287274 7.87152562 38.41068554 4.69921875 30.58203125 C0.00590375 21.72236995 -6.82711406 15.75581849 -16.11328125 12.14453125 C-28.60880855 9.77468986 -40.21009989 12.591476 -48.73828125 22.45703125 Z " fill="#000000" transform="translate(313.73828125,77.54296875)"/>
<path d="M0 0 C17.35122463 5.92144967 30.53200367 16.39829845 39.3125 32.625 C47.05901648 48.96725001 46.67684645 66.11195082 41.0625 82.9375 C34.4517755 98.7309026 22.43866679 109.94376609 7 116.875 C-8.22916386 122.68612831 -24.87939294 122.59648663 -39.96484375 116.34375 C-54.92079563 109.63345467 -64.52108447 99.03785141 -73.9375 85.9375 C-74.50855469 85.15246094 -75.07960938 84.36742187 -75.66796875 83.55859375 C-76.77172877 82.02817019 -77.85783677 80.48501729 -78.9375 78.9375 C-74.79739729 74.39674219 -70.11359824 71.21907862 -64.9375 67.9375 C-61.16565408 72.07154304 -57.62231745 76.30823174 -54.27514648 80.79614258 C-46.6101196 91.03819172 -38.1172133 99.59075249 -24.9375 101.9375 C-10.58143872 102.86516921 0.88125412 101.32347481 12.5859375 92.19921875 C20.54766541 84.92817702 25.69231018 75.42701224 26.44140625 64.625 C26.95143349 51.69750953 24.40784372 41.13736455 16.0625 30.9375 C8.909029 23.29068618 -1.18198837 17.27183399 -11.84277344 16.86474609 C-16.54339931 16.77611548 -21.23757587 16.83483175 -25.9375 16.9375 C-26.44127768 14.66750175 -26.94040019 12.39646997 -27.4375 10.125 C-27.7159375 8.86042969 -27.994375 7.59585937 -28.28125 6.29296875 C-28.9375 2.9375 -28.9375 2.9375 -28.9375 -0.0625 C-21.79895886 -3.63177057 -7.55918638 -1.85564364 0 0 Z " fill="#000000" transform="translate(402.9375,376.0625)"/>
<path d="M0 0 C6.89487614 4.71313034 10.9074685 10.1476138 12.92578125 18.31640625 C14.20826546 27.57144697 11.82175415 34.93107586 6.73828125 42.62890625 C-0.04646968 49.11211269 -7.17521738 51.68229777 -16.42578125 51.51953125 C-25.23337852 50.84402231 -31.28078004 46.88616575 -37.07421875 40.31640625 C-42.21071914 33.26062211 -42.09339364 24.70224878 -41.07421875 16.31640625 C-38.54298512 7.78189286 -33.40296071 3.02186997 -26.07421875 -1.55859375 C-18.15711057 -4.54989933 -7.43003033 -4.01585443 0 0 Z M-22.07421875 17.31640625 C-24.39824826 20.52578034 -24.54992566 23.43146646 -24.07421875 27.31640625 C-22.15146373 30.57029936 -20.59539615 32.03844497 -17.26171875 33.81640625 C-12.90936126 34.49912899 -10.81888223 33.57733514 -7.07421875 31.31640625 C-4.39323005 27.74175465 -3.96173516 26.13191231 -4.57421875 21.69140625 C-6.26496809 17.88722024 -7.46733962 16.36576939 -11.07421875 14.31640625 C-15.67992362 13.64474096 -18.41243018 14.46834847 -22.07421875 17.31640625 Z " fill="#000000" transform="translate(260.07421875,411.68359375)"/>
<path d="M0 0 C6.54462782 3.86579513 11.76462134 9.46974379 14.0625 16.80859375 C16.05775699 26.80269351 13.85669611 34.91700303 8.3125 43.3125 C1.52774907 49.79570644 -5.60099863 52.36589152 -14.8515625 52.203125 C-23.65915977 51.52761606 -29.70656129 47.5697595 -35.5 41 C-40.64508233 33.93242723 -40.4284212 25.40221187 -39.5 17 C-38.58787893 13.94253294 -37.35405525 11.58151443 -35.5 9 C-34.9225 8.113125 -34.345 7.22625 -33.75 6.3125 C-25.04852478 -2.63068286 -11.46623409 -5.26492721 0 0 Z M-20.5 18 C-22.82402951 21.20937409 -22.97570691 24.11506021 -22.5 28 C-20.57724498 31.25389311 -19.0211774 32.72203872 -15.6875 34.5 C-11.33514251 35.18272274 -9.24466348 34.26092889 -5.5 32 C-2.8190113 28.4253484 -2.38751641 26.81550606 -3 22.375 C-4.69074934 18.57081399 -5.89312087 17.04936314 -9.5 15 C-14.10570487 14.32833471 -16.83821143 15.15194222 -20.5 18 Z " fill="#000000" transform="translate(399.5,411)"/>
</svg>
