<?xml version="1.0" encoding="UTF-8"?>
<svg version="1.1" xmlns="http://www.w3.org/2000/svg" width="512" height="512">
<path d="M0 0 C3.37077948 1.86468652 4.64130802 3.10976809 6.078125 6.67578125 C7.09232179 10.3329061 7.47106409 13.78419278 7.8125 17.5625 C9.82350732 35.79185059 19.10030185 50.2929117 33.18359375 61.78125 C44.03496152 69.58627049 57.31212243 73.28524592 70.53710938 73.31884766 C71.45511322 73.32889328 72.37311707 73.3389389 73.31893921 73.34928894 C76.3272036 73.3799669 79.33537964 73.39711309 82.34375 73.4140625 C84.43982699 73.43278653 86.53589654 73.45236086 88.63195801 73.4727478 C94.12930911 73.52394443 99.62668461 73.56363678 105.12414551 73.60089111 C111.73061264 73.64807163 118.33695987 73.70961584 124.94332886 73.76873779 C134.9621705 73.85679793 144.98099093 73.92667135 155 74 C155 56.84 155 39.68 155 22 C150.71 22 146.42 22 142 22 C135.64116095 18.18469657 135.64116095 18.18469657 134 16 C133.09093413 11.16802824 133.30143461 7.14099014 135.875 2.9375 C139.02473592 0.06568196 140.75236745 -0.13161828 144.92114258 -0.17700195 C146.45832695 -0.19625481 146.45832695 -0.19625481 148.02656555 -0.21589661 C149.13799423 -0.22328354 150.24942291 -0.23067047 151.39453125 -0.23828125 C152.53403732 -0.246353 153.6735434 -0.25442474 154.84757996 -0.26274109 C157.26271031 -0.27658987 159.6778603 -0.28730846 162.09301758 -0.29516602 C165.78699824 -0.31238115 169.48008471 -0.35626194 173.17382812 -0.40039062 C175.51822257 -0.41051706 177.86262464 -0.41903331 180.20703125 -0.42578125 C181.86506523 -0.45204338 181.86506523 -0.45204338 183.55659485 -0.47883606 C191.23689665 -0.45711082 191.23689665 -0.45711082 195.17456055 1.90161133 C198.43348695 5.64782939 198.39039025 8.68248904 198.35546875 13.515625 C198 16 198 16 195.6875 19.0625 C189.30017817 23.66731341 186.39168748 22 177 22 C177 39.49 177 56.98 177 75 C183.24333252 74.98428955 189.48666504 74.9685791 195.91918945 74.95239258 C216.54263184 74.90269264 237.16607657 74.86939647 257.78956318 74.84456348 C270.29406605 74.82910591 282.79851211 74.80803754 295.30297852 74.77368164 C306.20404337 74.74374539 317.10506707 74.72441693 328.00617188 74.71773452 C333.77623889 74.71382944 339.5461882 74.70467494 345.31621742 74.68280983 C350.75229368 74.662378 356.18820425 74.65617975 361.62431526 74.66067696 C363.61443737 74.65985475 365.60456529 74.6539292 367.59465408 74.64238358 C384.21644201 74.55071869 398.21636436 75.97009315 410.890625 87.7265625 C419.69163767 97.21209838 422.45491133 107.58066501 422.38768005 120.1632843 C422.39575836 121.98111814 422.39575836 121.98111814 422.40399987 123.8356759 C422.41579663 127.18280527 422.41422456 130.52943428 422.40683305 133.8765434 C422.40209204 137.49289384 422.41461955 141.10919152 422.42485046 144.7255249 C422.44202636 151.80414053 422.44288089 158.88266733 422.43763756 165.96129838 C422.43359188 171.71712481 422.43504415 177.47292505 422.44038582 183.22875023 C422.44113424 184.04877265 422.44188266 184.86879506 422.44265376 185.71366664 C422.44418529 187.37970033 422.44572364 189.04573402 422.44726873 190.7117677 C422.46098974 206.32801486 422.4555592 221.94421189 422.44408352 237.56045791 C422.4341546 251.83389167 422.4470866 266.10719573 422.47101771 280.38060949 C422.49542603 295.04962033 422.50501214 309.71857082 422.49836498 324.38760155 C422.49487622 332.61787352 422.49708198 340.84804581 422.51461601 349.07830238 C422.52935981 356.08559877 422.52994523 363.09272529 422.5125451 370.10001842 C422.50404998 373.67208816 422.50184858 377.24385474 422.51719666 380.81590843 C422.53366124 384.69601459 422.51885677 388.57565625 422.50120544 392.45576477 C422.51081045 393.5738782 422.52041546 394.69199163 422.53031152 395.84398729 C422.41833774 407.84123938 418.34993855 418.07786918 410.22265625 426.9375 C396.86785368 439.6095417 380.16421214 439.29414166 362.95458984 439.22705078 C360.92358404 439.22648602 358.89257783 439.22680449 356.86157227 439.22793579 C351.3705679 439.22850778 345.87965156 439.21677839 340.38866758 439.20278788 C334.64181691 439.19025484 328.89496404 439.18910799 323.14810181 439.18673706 C312.27571349 439.18052985 301.40336557 439.1641293 290.53099501 439.14403808 C278.14890035 439.12165545 265.76680373 439.11067971 253.38469386 439.10064721 C227.92310171 439.0797624 202.46156491 439.04309564 177 439 C177 455.83 177 472.66 177 490 C181.29 490 185.58 490 190 490 C196.35883905 493.81530343 196.35883905 493.81530343 198 496 C198.90906587 500.83197176 198.69856539 504.85900986 196.125 509.0625 C192.97526408 511.93431804 191.24763255 512.13161828 187.07885742 512.17700195 C186.05406784 512.18983719 185.02927826 512.20267242 183.97343445 512.21589661 C182.30629143 512.22697701 182.30629143 512.22697701 180.60546875 512.23828125 C179.46596268 512.246353 178.3264566 512.25442474 177.15242004 512.26274109 C174.73728969 512.27658987 172.3221397 512.28730846 169.90698242 512.29516602 C166.21300176 512.31238115 162.51991529 512.35626194 158.82617188 512.40039062 C156.48177743 512.41051706 154.13737536 512.41903331 151.79296875 512.42578125 C150.68761276 512.44328934 149.58225677 512.46079742 148.44340515 512.47883606 C140.76310335 512.45711082 140.76310335 512.45711082 136.82543945 510.09838867 C133.56651305 506.35217061 133.60960975 503.31751096 133.64453125 498.484375 C134 496 134 496 136.3125 492.9375 C142.69982183 488.33268659 145.60831252 490 155 490 C155 473.17 155 456.34 155 439 C145.74159058 439.02356567 145.74159058 439.02356567 136.29614258 439.04760742 C115.89623212 439.09733089 95.49631926 439.13061302 75.09636402 439.15543652 C62.7286806 439.17088692 50.3610547 439.19194153 37.9934082 439.22631836 C27.21025146 439.25627662 16.4271364 439.27558827 5.6439392 439.28226548 C-0.06247609 439.28616685 -5.76877217 439.29529753 -11.47514915 439.31719017 C-16.8537778 439.33765687 -22.2322389 439.34381329 -27.61090279 439.33932304 C-29.57760913 439.3401437 -31.54432147 439.34604831 -33.51099396 439.35761642 C-50.99995436 439.45538204 -65.41338674 438.24406607 -78.8125 425.75 C-83.03601745 421.32500734 -85.75641701 416.66752491 -88 411 C-88.34454538 410.20523097 -88.68909077 409.41046194 -89.04407692 408.591609 C-90.42281601 403.41138915 -90.28205029 398.41597592 -90.26742554 393.07722473 C-90.27195665 391.86704436 -90.27648776 390.65686398 -90.28115618 389.41001147 C-90.29161717 386.05846567 -90.29312761 382.70713468 -90.29076743 379.35558784 C-90.29035885 375.7378466 -90.30140242 372.12013723 -90.31088257 368.50241089 C-90.32748558 361.41685614 -90.33299183 354.33133466 -90.33410732 347.24576209 C-90.33505827 341.48417133 -90.3391709 335.72259154 -90.34550858 329.96100426 C-90.36312023 313.61692394 -90.37234774 297.27286987 -90.37084763 280.92878 C-90.37076772 280.04792469 -90.3706878 279.16706938 -90.37060547 278.25952148 C-90.37052371 277.37758732 -90.37044195 276.49565316 -90.37035771 275.58699372 C-90.36954516 261.30050431 -90.38867513 247.01412042 -90.4168822 232.72766153 C-90.44563297 218.04967987 -90.45942124 203.37174964 -90.45769465 188.69373912 C-90.45703143 180.45672346 -90.46249351 172.21981839 -90.48405075 163.98282814 C-90.50229158 156.96817235 -90.50658626 149.95367725 -90.4930319 142.93900798 C-90.48651638 139.36289548 -90.48633316 135.78709098 -90.5037384 132.21100807 C-90.52244987 128.32642855 -90.50987729 124.4422951 -90.49447632 120.55769348 C-90.50476344 119.43821581 -90.51505057 118.31873814 -90.52564943 117.16533691 C-90.46756243 110.5166141 -89.41379143 105.43150432 -86.66230357 99.35539359 C-85.76087064 97.02219017 -85.76087064 97.02219017 -86.75974405 94.87717849 C-87.83568086 93.24870379 -88.91732953 91.6240057 -90 90 C-90.6820176 86.23095539 -90.83098707 82.54371829 -88.984375 79.11328125 C-85.8662299 75.23438388 -83.5064973 74.17631081 -78.62890625 73.60546875 C-77.97825195 73.53948486 -77.32759766 73.47350098 -76.65722656 73.40551758 C-58.17519334 71.48192135 -42.06774065 64.13241403 -30 49.58984375 C-21.48887187 38.01544321 -16.86982314 25.05869868 -16.40625 10.7265625 C-15.81650705 6.76848003 -14.01290077 4.12977394 -11.375 1.1875 C-7.63911821 -0.68044089 -4.08767886 -0.64964896 0 0 Z " fill="#D6D5D5" transform="translate(90,0)"/>
<path d="M0 0 C1.53718437 -0.01925285 1.53718437 -0.01925285 3.10542297 -0.03889465 C4.21685165 -0.04628159 5.32828033 -0.05366852 6.47338867 -0.0612793 C7.61289474 -0.06935104 8.75240082 -0.07742279 9.92643738 -0.08573914 C12.34156773 -0.09958792 14.75671772 -0.1103065 17.171875 -0.11816406 C20.86585567 -0.1353792 24.55894214 -0.17925999 28.25268555 -0.22338867 C30.59708 -0.2335151 32.94148206 -0.24203136 35.28588867 -0.2487793 C36.39124466 -0.26628738 37.49660065 -0.28379547 38.63545227 -0.30183411 C46.31575407 -0.28010887 46.31575407 -0.28010887 50.25341797 2.07861328 C53.51234437 5.82483134 53.46924767 8.85949099 53.43432617 13.69262695 C53.07885742 16.17700195 53.07885742 16.17700195 50.76635742 19.23950195 C44.3790356 23.84431536 41.4705449 22.17700195 32.07885742 22.17700195 C32.07885742 39.66700195 32.07885742 57.15700195 32.07885742 75.17700195 C38.32218994 75.1612915 44.56552246 75.14558105 50.99804688 75.12939453 C71.62148926 75.07969459 92.24493399 75.04639842 112.8684206 75.02156544 C125.37292347 75.00610787 137.87736953 74.98503949 150.38183594 74.95068359 C161.28290079 74.92074735 172.18392449 74.90141888 183.0850293 74.89473647 C188.85509631 74.8908314 194.62504562 74.88167689 200.39507484 74.85981178 C205.8311511 74.83937995 211.26706167 74.8331817 216.70317268 74.83767891 C218.6932948 74.8368567 220.68342271 74.83093115 222.67351151 74.81938553 C239.29529944 74.72772064 253.29522178 76.1470951 265.96948242 87.90356445 C273.56248143 96.08713005 277.56326038 105.93146885 277.43962097 116.99755859 C277.44218425 117.84968933 277.44474752 118.70182007 277.44738847 119.57977295 C277.4523032 122.41576471 277.43587183 125.25121604 277.41943359 128.0871582 C277.41858682 130.12772102 277.41906344 132.16828476 277.42076111 134.20884705 C277.42162052 139.73513707 277.40400329 145.26123105 277.38303924 150.78747559 C277.3642636 156.56769818 277.36252129 162.34792545 277.35896301 168.12817383 C277.34964518 179.06794296 277.32503486 190.00762197 277.29491454 200.94735146 C277.26136247 213.40436104 277.24488248 225.86137497 277.22982824 238.3184185 C277.19848513 263.93799625 277.14572963 289.55749405 277.07885742 315.17700195 C275.97499304 314.24004462 274.87245872 313.30152018 273.77046871 312.36235905 C273.15634906 311.83989096 272.5422294 311.31742287 271.90950006 310.77912241 C269.11349442 308.33214682 266.50871101 305.71413846 263.90332031 303.06738281 C263.32993423 302.48932388 262.75654816 301.91126495 262.16578674 301.31568909 C260.93328057 300.07276208 259.70188536 298.82873259 258.47151375 297.58369255 C256.51862914 295.60858699 254.56163377 293.63764182 252.6033783 291.66786194 C247.04017422 286.07124834 241.48119792 280.47048948 235.93261719 274.859375 C232.52699883 271.41596594 229.1139869 267.98003293 225.69622612 264.54867744 C224.40215571 263.246594 223.11085895 261.94174747 221.82249641 260.63401604 C220.01653838 258.80137297 218.20128689 256.97841607 216.38378906 255.15722656 C215.60186188 254.35676407 215.60186188 254.35676407 214.80413818 253.54013062 C206.57475397 245.35433711 197.32007678 241.19050269 185.70385742 240.67700195 C167.38268434 241.21522678 156.14378289 255.95922099 144.14135742 268.0168457 C142.92754823 269.23252535 141.71351409 270.44798042 140.49926758 271.66322327 C137.33490513 274.83136589 134.17355841 278.00250055 131.01287842 281.17431641 C127.78280853 284.41468191 124.54984873 287.65216138 121.31713867 290.88989258 C115.65586242 296.56069175 109.99705833 302.23394809 104.34008789 307.90904236 C102.92066934 309.33268491 101.50038954 310.75546983 100.07885742 312.17700195 C99.43561523 311.87407227 98.79237305 311.57114258 98.12963867 311.2590332 C92.96479944 308.8644929 87.82088077 306.70479822 82.45385742 304.80200195 C74.36305296 301.74269658 68.10948453 297.25865553 63.07885742 290.17700195 C61.59448242 286.87231445 61.59448242 286.87231445 60.32885742 283.30200195 C59.90088867 282.12895508 59.47291992 280.9559082 59.03198242 279.74731445 C58.00068189 275.88416409 57.47162427 273.14241844 58.07885742 269.17700195 C60.77026367 266.6340332 60.77026367 266.6340332 62.43481445 265.43334961 C65.1551982 263.35448196 67.05621916 260.63338519 69.01635742 257.86450195 C69.44384277 257.26202637 69.87132812 256.65955078 70.31176758 256.03881836 C74.98084038 249.20940216 78.13182175 241.87454436 81.07885742 234.17700195 C81.4784668 233.1715332 81.87807617 232.16606445 82.28979492 231.13012695 C86.78498025 218.89511125 88.56801606 205.15838233 89.07885742 192.17700195 C89.12768066 191.03424805 89.12768066 191.03424805 89.17749023 189.8684082 C90.1056558 165.22983139 82.89574309 143.89509819 66.01635742 125.55200195 C50.04658244 110.15452267 31.59688431 108.15509408 10.07885742 107.17700195 C10.07885742 79.12700195 10.07885742 51.07700195 10.07885742 22.17700195 C5.78885742 22.17700195 1.49885742 22.17700195 -2.92114258 22.17700195 C-9.27998163 18.36169852 -9.27998163 18.36169852 -10.92114258 16.17700195 C-11.83020845 11.34503019 -11.61970797 7.3179921 -9.04614258 3.11450195 C-5.89640666 0.24268391 -4.16877513 0.04538368 0 0 Z " fill="#C2E4DA" transform="translate(234.921142578125,-0.177001953125)"/>
<path d="M0 0 C3.37077948 1.86468652 4.64130802 3.10976809 6.078125 6.67578125 C7.09232179 10.3329061 7.47106409 13.78419278 7.8125 17.5625 C9.82350732 35.79185059 19.10030185 50.2929117 33.18359375 61.78125 C44.03496152 69.58627049 57.31212243 73.28524592 70.53710938 73.31884766 C71.45511322 73.32889328 72.37311707 73.3389389 73.31893921 73.34928894 C76.3272036 73.3799669 79.33537964 73.39711309 82.34375 73.4140625 C84.43982699 73.43278653 86.53589654 73.45236086 88.63195801 73.4727478 C94.12930911 73.52394443 99.62668461 73.56363678 105.12414551 73.60089111 C110.74167862 73.6410091 116.35911131 73.69206581 121.9765625 73.7421875 C132.98431126 73.83879915 143.99210192 73.92223918 155 74 C155 84.89 155 95.78 155 107 C160.0428125 106.87625 160.0428125 106.87625 165.1875 106.75 C182.87673313 106.61903588 197.90502667 112.37281596 210.796875 124.765625 C211.52390625 125.50296875 212.2509375 126.2403125 213 127 C213.93585938 127.92039063 213.93585938 127.92039063 214.890625 128.859375 C228.24907327 142.93990156 235.47183463 162.89321689 235.125 182.0625 C235.11597656 183.02349609 235.10695313 183.98449219 235.09765625 184.97460938 C235.07435208 187.31667805 235.04164058 189.65819792 235 192 C203.87664598 193.01244646 168.81039282 189.59389919 144.3515625 168.3125 C140.83629882 164.85562941 137.60218083 161.20079021 135 157 C135 156.34 135 155.68 135 155 C118.94555293 162.11040867 105.8803665 170.94164035 98.8203125 187.8203125 C98.54960937 188.53960937 98.27890625 189.25890625 98 190 C97.67 190 97.34 190 97 190 C97 185.38 97 180.76 97 176 C93.37 176 89.74 176 86 176 C86 184.91 86 193.82 86 203 C77.09 203 68.18 203 59 203 C59 194.09 59 185.18 59 176 C50.42 176 41.84 176 33 176 C33 184.91 33 193.82 33 203 C24.09 203 15.18 203 6 203 C6 211.58 6 220.16 6 229 C14.91 229 23.82 229 33 229 C33 237.91 33 246.82 33 256 C24.09 256 15.18 256 6 256 C6 264.91 6 273.82 6 283 C-2.91 283 -11.82 283 -21 283 C-21 274.09 -21 265.18 -21 256 C-29.58 256 -38.16 256 -47 256 C-47 264.91 -47 273.82 -47 283 C-55.91 283 -64.82 283 -74 283 C-74 274.09 -74 265.18 -74 256 C-79.28 256 -84.56 256 -90 256 C-90.0927542 236.89321252 -90.16405931 217.78648901 -90.20724869 198.67952251 C-90.22783886 189.80702213 -90.25589134 180.93466456 -90.30175781 172.06225586 C-90.3417345 164.32545316 -90.36745856 156.58875393 -90.37635398 148.85185081 C-90.38155047 144.7584459 -90.39368935 140.6653369 -90.42292023 136.57202721 C-90.45026101 132.71177501 -90.45840777 128.85193797 -90.45243073 124.99159813 C-90.45352269 123.58198279 -90.46136503 122.17235221 -90.4768219 120.7628212 C-90.55932694 112.84437445 -90.02528071 106.5148044 -86.66372299 99.27534199 C-85.76158133 97.01236001 -85.76158133 97.01236001 -86.75958633 94.88607311 C-87.83345189 93.25323965 -88.91594318 91.62608523 -90 90 C-90.6820176 86.23095539 -90.83098707 82.54371829 -88.984375 79.11328125 C-85.8662299 75.23438388 -83.5064973 74.17631081 -78.62890625 73.60546875 C-77.97825195 73.53948486 -77.32759766 73.47350098 -76.65722656 73.40551758 C-58.17519334 71.48192135 -42.06774065 64.13241403 -30 49.58984375 C-21.48887187 38.01544321 -16.86982314 25.05869868 -16.40625 10.7265625 C-15.81650705 6.76848003 -14.01290077 4.12977394 -11.375 1.1875 C-7.63911821 -0.68044089 -4.08767886 -0.64964896 0 0 Z " fill="#D2D2D3" transform="translate(90,0)"/>
<path d="M0 0 C1.27275686 0.93344193 2.5235723 1.89701367 3.76049805 2.87744141 C6.58168511 5.10475512 9.41012729 7.31787849 12.27694702 9.48600769 C22.4085079 17.17467115 32.12557023 25.2851383 41.5625 33.8125 C42.30954697 34.48749416 43.05659393 35.16248833 43.82627869 35.85793686 C63.66035575 54.01386299 76.07847028 70.47429498 77.51603889 97.94315147 C77.76582503 105.08228086 77.59170238 112.17954933 77.25 119.3125 C77.20395252 120.31200809 77.15790504 121.31151619 77.11046219 122.34131241 C74.72982443 170.12088234 74.72982443 170.12088234 59.3125 184.75 C45.96792475 195.70526083 30.26453747 195.29063433 13.95458984 195.22705078 C11.92358404 195.22648602 9.89257783 195.22680449 7.86157227 195.22793579 C2.3705679 195.22850778 -3.12034844 195.21677839 -8.61133242 195.20278788 C-14.35818309 195.19025484 -20.10503596 195.18910799 -25.85189819 195.18673706 C-36.72428651 195.18052985 -47.59663443 195.1641293 -58.46900499 195.14403808 C-70.85109965 195.12165545 -83.23319627 195.11067971 -95.61530614 195.10064721 C-121.07689829 195.0797624 -146.53843509 195.04309564 -172 195 C-172 211.83 -172 228.66 -172 246 C-167.71 246 -163.42 246 -159 246 C-152.64116095 249.81530343 -152.64116095 249.81530343 -151 252 C-150.09093413 256.83197176 -150.30143461 260.85900986 -152.875 265.0625 C-156.02473592 267.93431804 -157.75236745 268.13161828 -161.92114258 268.17700195 C-162.94593216 268.18983719 -163.97072174 268.20267242 -165.02656555 268.21589661 C-166.69370857 268.22697701 -166.69370857 268.22697701 -168.39453125 268.23828125 C-169.53403732 268.246353 -170.6735434 268.25442474 -171.84757996 268.26274109 C-174.26271031 268.27658987 -176.6778603 268.28730846 -179.09301758 268.29516602 C-182.78699824 268.31238115 -186.48008471 268.35626194 -190.17382812 268.40039062 C-192.51822257 268.41051706 -194.86262464 268.41903331 -197.20703125 268.42578125 C-198.86506523 268.45204338 -198.86506523 268.45204338 -200.55659485 268.47883606 C-208.23689665 268.45711082 -208.23689665 268.45711082 -212.17456055 266.09838867 C-215.43348695 262.35217061 -215.39039025 259.31751096 -215.35546875 254.484375 C-215 252 -215 252 -212.6875 248.9375 C-206.30017817 244.33268659 -203.39168748 246 -194 246 C-194 228.51 -194 211.02 -194 193 C-190.33044189 192.99589111 -186.66088379 192.99178223 -182.88012695 192.98754883 C-170.76615406 192.97036402 -158.65242235 192.92613598 -146.53858662 192.86790943 C-139.19276423 192.83326304 -131.84712943 192.8079044 -124.5012207 192.80444336 C-118.09814709 192.80140294 -111.69540757 192.78090251 -105.292463 192.73947543 C-101.90235721 192.71815012 -98.51272633 192.70554197 -95.12255287 192.71384621 C-91.33679666 192.71872973 -87.55243118 192.69275556 -83.7668457 192.65942383 C-82.64403198 192.66804947 -81.52121826 192.67667511 -80.36437988 192.68556213 C-75.57550017 192.61471844 -72.84288985 192.56627275 -68.80203247 189.85153198 C-66.68256899 186.4976979 -66.38236456 184.66397106 -66.40063477 180.71606445 C-66.39455704 179.4673909 -66.38847931 178.21871735 -66.38221741 176.9322052 C-66.40113387 175.57588563 -66.42088458 174.21957748 -66.44140625 172.86328125 C-66.44566246 171.45949239 -66.44798561 170.05569647 -66.44847107 168.65190125 C-66.45462992 165.71039873 -66.47728259 162.76965962 -66.51293945 159.82836914 C-66.55800259 156.08407813 -66.57295547 152.34048157 -66.57667637 148.5959444 C-66.58113907 145.6951378 -66.59650546 142.79447275 -66.6155529 139.89372826 C-66.62435047 138.51483497 -66.63112073 137.13592703 -66.63571358 135.75701332 C-66.67275817 127.93294138 -67.07881736 120.59745092 -69 113 C-69.20142105 112.16700882 -69.4028421 111.33401764 -69.61036682 110.4757843 C-74.30311367 91.86943946 -87.65599864 78.54900093 -103 68 C-101.36694298 63.88012041 -98.39359753 61.0979901 -95.31616211 58.02563477 C-94.73535889 57.43811432 -94.15455566 56.85059387 -93.55615234 56.24526978 C-91.63517995 54.30530809 -89.70675789 52.37296998 -87.77734375 50.44140625 C-86.43398018 49.09161317 -85.09076645 47.74167096 -83.74769592 46.3915863 C-80.92919282 43.56110649 -78.10658389 40.73479364 -75.28149414 37.91088867 C-71.67582076 34.30541799 -68.08407164 30.68641935 -64.49579525 27.06364536 C-61.72385369 24.26937373 -58.94277477 21.48433371 -56.15912056 18.70173454 C-54.83193415 17.37219936 -53.50796311 16.03944592 -52.18739128 14.70334053 C-37.50870733 -0.13168794 -21.115603 -10.80144307 0 0 Z " fill="#28A851" transform="translate(439,244)"/>
<path d="M0 0 C0.99 1.051875 0.99 1.051875 2 2.125 C8.24331517 8.30308812 14.71614228 12.0632385 22.9375 15.0625 C43.623032 22.73846252 59.17893602 35.07991739 69 55 C74.52645786 67.17452746 75.17246727 78.43060829 75.23828125 91.60546875 C75.24235678 92.29797541 75.2464323 92.99048206 75.25063133 93.70397377 C75.27136022 97.36018181 75.28572578 101.01635364 75.29516602 104.67260742 C75.30628572 108.43871751 75.34078568 112.2042458 75.38033772 115.97014904 C75.4064855 118.87926827 75.41485547 121.78824712 75.41844749 124.69747353 C75.42330749 126.08613388 75.43490491 127.4747882 75.45348549 128.86333275 C75.47786371 130.80351852 75.47449341 132.74399252 75.4699707 134.68432617 C75.47583694 135.7860466 75.48170319 136.88776703 75.48774719 138.02287292 C74.88617049 141.69479626 73.56032346 143.35153545 71 146 C67.6924676 147.6537662 64.00155151 147.14795554 60.36515808 147.14717102 C59.46042844 147.15084771 58.55569879 147.1545244 57.6235531 147.1583125 C54.57349265 147.16937914 51.52346623 147.1731982 48.47338867 147.17700195 C46.29404084 147.1832643 44.11469408 147.18991089 41.93534851 147.19691467 C36.00143989 147.21434441 30.06753933 147.22488156 24.13361144 147.2331202 C20.42925039 147.23826558 16.72489187 147.24434148 13.02053261 147.25063133 C1.43892599 147.26968787 -10.14267424 147.2839187 -21.72429353 147.2922433 C-23.05781353 147.29321183 -24.39133352 147.29418608 -25.72485352 147.29516602 C-26.7170644 147.29589163 -26.7170644 147.29589163 -27.72931995 147.2966319 C-37.78093869 147.30441791 -47.83245905 147.32626079 -57.8840332 147.35668945 C-69.55122467 147.39189399 -81.21833628 147.41328095 -92.88558215 147.41702431 C-99.06345763 147.41937927 -105.24115683 147.4283977 -111.41898537 147.45348549 C-117.22938584 147.47669963 -123.03949314 147.48102623 -128.8499279 147.47072411 C-130.98447772 147.47022703 -133.11904165 147.47659772 -135.25354767 147.49028015 C-138.1641223 147.50789584 -141.07363297 147.50094374 -143.98420715 147.48774719 C-144.83206923 147.49871644 -145.6799313 147.50968568 -146.55348617 147.52098733 C-150.57114583 147.47690353 -152.52650058 147.30064963 -156.00098705 145.0945158 C-159.2806016 141.65821765 -159.1368233 139.51219167 -159.17700195 134.84472656 C-159.18983719 133.54867493 -159.20267242 132.25262329 -159.21589661 130.91729736 C-159.22407185 129.49174382 -159.23151407 128.06618592 -159.23828125 126.640625 C-159.24235678 125.92075157 -159.2464323 125.20087814 -159.25063133 124.45919037 C-159.27151978 120.63702176 -159.28580031 116.81488917 -159.29516602 112.99267578 C-159.30613911 109.07930845 -159.34042275 105.16652425 -159.38033772 101.25336075 C-159.40675646 98.21776424 -159.4148807 95.18230011 -159.41844749 92.14659882 C-159.4232615 90.70676559 -159.43472347 89.26693613 -159.45348549 87.8272171 C-159.69413835 68.10878368 -153.30785121 50.720847 -140 36 C-139.06027344 34.93845703 -139.06027344 34.93845703 -138.1015625 33.85546875 C-128.86780281 23.99984361 -116.536543 17.80998248 -103.875 13.5625 C-97.26013468 11.27356945 -91.6006034 8.58947482 -87.41796875 2.81640625 C-86.71607422 1.91728516 -86.71607422 1.91728516 -86 1 C-85.34 1 -84.68 1 -84 1 C-83.88785156 1.87398438 -83.88785156 1.87398438 -83.7734375 2.765625 C-82.16687405 12.78302061 -77.80736589 23.21854633 -70 30 C-64.07471642 34.27430713 -57.99760794 37.0109049 -51 39 C-49.515 39.495 -49.515 39.495 -48 40 C-35.75284452 41.30152698 -23.75442666 37.41474055 -14 30 C-5.06928184 22.04799068 -1.5028119 11.59632466 0 0 Z " fill="#ED5151" transform="translate(298,290)"/>
<path d="M0 0 C1.69140625 2.125 1.69140625 2.125 3.5625 5 C14.06214327 19.82861012 30.7949941 26.87482315 48 31 C49.51400391 31.41185547 49.51400391 31.41185547 51.05859375 31.83203125 C66.61166129 35.8540347 83.01845078 36.26654726 99 37 C101.00491784 63.39808487 90.5711076 89.66310924 74.05078125 109.75 C72 112 72 112 69 114 C68.29564875 118.72921553 69.2277461 121.84143958 71 126.25 C74.09506138 134.3814695 74.05313609 140.98514281 70.9375 149.125 C65.66607163 160.55629972 57.86893238 168.41289459 46.2109375 173.1875 C34.68780252 177.42215031 23.87026933 177.03597254 12.65625 171.93359375 C1.6227881 166.20904074 -5.11185639 158.24404467 -9.875 146.8125 C-11.0507243 142.82810097 -11.25581059 140.09296945 -11 136 C-11.66 136 -12.32 136 -13 136 C-13.20625 136.556875 -13.4125 137.11375 -13.625 137.6875 C-15.56274457 140.94643405 -17.99156223 142.69566469 -21 145 C-21.33 145 -21.66 145 -22 145 C-22.495 136.09 -22.495 136.09 -23 127 C-31.58 127 -40.16 127 -49 127 C-49 109.51 -49 92.02 -49 74 C-57.91 74 -66.82 74 -76 74 C-76 82.91 -76 91.82 -76 101 C-84.58 101 -93.16 101 -102 101 C-102 92.09 -102 83.18 -102 74 C-110.91 74 -119.82 74 -129 74 C-129 65.42 -129 56.84 -129 48 C-120.09 48 -111.18 48 -102 48 C-102 39.09 -102 30.18 -102 21 C-93.42 21 -84.84 21 -76 21 C-76 29.91 -76 38.82 -76 48 C-67.09 48 -58.18 48 -49 48 C-49 39.09 -49 30.18 -49 21 C-45.37 21 -41.74 21 -38 21 C-37.505 26.445 -37.505 26.445 -37 32 C-36.61070312 31.24976563 -36.22140625 30.49953125 -35.8203125 29.7265625 C-28.75544856 16.80144276 -19.6775941 9.00875121 -7 2 C-6.27554688 1.5978125 -5.55109375 1.195625 -4.8046875 0.78125 C-3 0 -3 0 0 0 Z " fill="#FCF2C1" transform="translate(225,155)"/>
<path d="M0 0 C3.37077948 1.86468652 4.64130802 3.10976809 6.078125 6.67578125 C7.09232179 10.3329061 7.47106409 13.78419278 7.8125 17.5625 C9.82350732 35.79185059 19.10030185 50.2929117 33.18359375 61.78125 C45.3219908 70.51198696 59.40488977 73.22375986 74 73.625 C75.15628906 73.66367188 76.31257812 73.70234375 77.50390625 73.7421875 C80.33569418 73.83580032 83.16782441 73.91895883 86 74 C86 81.26 86 88.52 86 96 C84.35773438 96.02578125 82.71546875 96.0515625 81.0234375 96.078125 C59.91397198 96.55931202 40.8093181 99.58007397 25 115 C13.98321872 127.60591181 7.6901682 141.27027723 6.5 158 C6.19216082 162.0729492 5.77825664 164.82484956 3 168 C0.3017982 170.11480682 -1.55721934 170.92463308 -4.9375 171.5 C-9.25011712 170.79589925 -10.88856971 169.03907145 -14 166 C-15.24923833 163.50152335 -15.33482854 161.14034044 -15.59448242 158.3894043 C-17.43452957 139.27805235 -24.8243124 123.53846222 -39.52734375 110.8125 C-50.55974693 102.25874247 -63.06435062 97.43912582 -77.015625 96.87890625 C-85.23761822 96.51617125 -85.23761822 96.51617125 -88.1875 93.5 C-90.45542046 89.12056739 -91.09589148 85.83227738 -90 81 C-88.04686644 77.43534559 -85.9258467 75.30861557 -82 74 C-80.22023207 73.79170735 -78.43999782 73.58631125 -76.65722656 73.40551758 C-58.17519334 71.48192135 -42.06774065 64.13241403 -30 49.58984375 C-21.48887187 38.01544321 -16.86982314 25.05869868 -16.40625 10.7265625 C-15.81650705 6.76848003 -14.01290077 4.12977394 -11.375 1.1875 C-7.63911821 -0.68044089 -4.08767886 -0.64964896 0 0 Z " fill="#15AAF6" transform="translate(90,0)"/>
<path d="M0 0 C14.19 0 28.38 0 43 0 C43 8.91 43 17.82 43 27 C51.58 27 60.16 27 69 27 C69 18.09 69 9.18 69 0 C77.91 0 86.82 0 96 0 C96 8.91 96 17.82 96 27 C104.91 27 113.82 27 123 27 C123 35.91 123 44.82 123 54 C114.09 54 105.18 54 96 54 C96 62.91 96 71.82 96 81 C87.42 81 78.84 81 70 81 C70 89.58 70 98.16 70 107 C60.76 107 51.52 107 42 107 C42 98.42 42 89.84 42 81 C33.42 81 24.84 81 16 81 C16 89.58 16 98.16 16 107 C10.555 107.495 10.555 107.495 5 108 C-0.12626135 96.58993441 -0.12626135 96.58993441 -0.12025452 91.9947052 C-0.12162918 91.18282242 -0.12300385 90.37093964 -0.12442017 89.53445435 C-0.12082489 88.64756927 -0.11722961 87.7606842 -0.11352539 86.84692383 C-0.11367142 85.91014297 -0.11381744 84.97336212 -0.1139679 84.00819397 C-0.1132705 80.90778295 -0.10548617 77.80743179 -0.09765625 74.70703125 C-0.09579146 72.55897555 -0.09436784 70.41091943 -0.09336853 68.26286316 C-0.0895482 62.60591459 -0.07972201 56.94899165 -0.06866455 51.29205322 C-0.05664276 44.50640645 -0.05204588 37.72075111 -0.04621124 30.93509674 C-0.03651003 20.62338 -0.01735006 10.3117195 0 0 Z " fill="#D2D2D2" transform="translate(0,309)"/>
<path d="M0 0 C3.57898672 2.78310016 6.81863739 5.77351168 10 9 C10.62390625 9.61359375 11.2478125 10.2271875 11.890625 10.859375 C25.24907327 24.93990156 32.47183463 44.89321689 32.125 64.0625 C32.11597656 65.02349609 32.10695313 65.98449219 32.09765625 66.97460938 C32.07435208 69.31667805 32.04164058 71.65819792 32 74 C0.87664598 75.01244646 -34.18960718 71.59389919 -58.6484375 50.3125 C-62.16370118 46.85562941 -65.39781917 43.20079021 -68 39 C-68 38.34 -68 37.68 -68 37 C-84.05444707 44.11040867 -97.1196335 52.94164035 -104.1796875 69.8203125 C-104.58574219 70.89925781 -104.58574219 70.89925781 -105 72 C-105.33 72 -105.66 72 -106 72 C-107.14148117 48.4410969 -100.5813145 27.63114496 -84.75 9.875 C-62.17970577 -14.51298413 -27.62679174 -17.83279569 0 0 Z " fill="#6E6E6A" transform="translate(293,118)"/>
<path d="M0 0 C8.91 0 17.82 0 27 0 C27 8.58 27 17.16 27 26 C31.95 26 36.9 26 42 26 C42 34.91 42 43.82 42 53 C37.05 53 32.1 53 27 53 C27 59.93 27 66.86 27 74 C67.26 74 107.52 74 149 74 C149 74.66 149 75.32 149 76 C122.36547467 76.07016821 95.73096325 76.12302645 69.09636402 76.15543652 C56.7286806 76.17088692 44.3610547 76.19194153 31.9934082 76.22631836 C21.21025146 76.25627662 10.4271364 76.27558827 -0.3560608 76.28226548 C-6.06247609 76.28616685 -11.76877217 76.29529753 -17.47514915 76.31719017 C-22.8537778 76.33765687 -28.2322389 76.34381329 -33.61090279 76.33932304 C-35.57760913 76.3401437 -37.54432147 76.34604831 -39.51099396 76.35761642 C-58.81959496 76.46555408 -72.98162844 74.34851748 -87.28515625 60.24609375 C-89.17065419 57.776478 -89.65085141 56.05639304 -90 53 C-86.7 53 -83.4 53 -80 53 C-80 44.42 -80 35.84 -80 27 C-71.42 27 -62.84 27 -54 27 C-54 35.58 -54 44.16 -54 53 C-44.76 53 -35.52 53 -26 53 C-26 44.42 -26 35.84 -26 27 C-17.42 27 -8.84 27 0 27 C0 18.09 0 9.18 0 0 Z " fill="#CAD6D0" transform="translate(96,363)"/>
<path d="M0 0 C9.40328383 5.51172211 15.57964703 13.73894109 19 24 C19.93256757 36.98933403 19.22510063 47.76954138 10.8125 58.375 C4.14084359 65.3518956 -4.18014914 69.48507492 -13.796875 70.3359375 C-26.56529236 70.46210763 -35.34528876 68.56804006 -44.83984375 59.359375 C-47.80556593 56.12014137 -50.10162222 52.95881221 -52 49 C-52.31710937 48.34902344 -52.63421875 47.69804687 -52.9609375 47.02734375 C-56.60432097 38.08601275 -56.38536712 27.58021099 -53 18.625 C-47.92377925 8.04598532 -39.97813922 1.13734934 -29.109375 -3.13671875 C-19.30095233 -5.85991148 -9.09932263 -4.27192036 0 0 Z " fill="#FEFDF0" transform="translate(407,132)"/>
<path d="M0 0 C0.19335938 0.89203125 0.38671875 1.7840625 0.5859375 2.703125 C0.97652344 4.45882813 0.97652344 4.45882813 1.375 6.25 C1.63023437 7.41015625 1.88546875 8.5703125 2.1484375 9.765625 C2.84748506 12.88479346 2.84748506 12.88479346 4.07421875 15.109375 C6.46963408 20.00127804 5.5680573 26.00672749 4.125 31.0703125 C-0.51622372 43.00924984 -7.85121418 51.78587882 -19.5 57.25 C-30.73982306 61.8533405 -41.56155281 62.62365804 -53 58 C-65.17541987 52.46018396 -72.74825493 44.11668817 -77.875 31.8125 C-79.0507243 27.82810097 -79.25581059 25.09296945 -79 21 C-79.66 21 -80.32 21 -81 21 C-81.309375 21.8353125 -81.309375 21.8353125 -81.625 22.6875 C-83.56274457 25.94643405 -85.99156223 27.69566469 -89 30 C-89.33 30 -89.66 30 -90 30 C-90 24.06 -90 18.12 -90 12 C-85.38 12 -80.76 12 -76 12 C-75.34 8.37 -74.68 4.74 -74 1 C-72.94683594 1.54269531 -71.89367187 2.08539063 -70.80859375 2.64453125 C-54.54516995 10.79902106 -39.00127052 14.37077157 -21 10 C-15.44133289 8.11267065 -5.22766643 0 0 0 Z " fill="#F3E5B4" transform="translate(293,270)"/>
<path d="M0 0 C5.28 0 10.56 0 16 0 C16 8.91 16 17.82 16 27 C24.91 27 33.82 27 43 27 C43 18.09 43 9.18 43 0 C51.58 0 60.16 0 69 0 C69 26.4 69 52.8 69 80 C60.42 80 51.84 80 43 80 C43 71.09 43 62.18 43 53 C28.81 53 14.62 53 0 53 C0 35.51 0 18.02 0 0 Z " fill="#FDFDFD" transform="translate(0,256)"/>
<path d="M0 0 C1.53718437 -0.01925285 1.53718437 -0.01925285 3.10542297 -0.03889465 C4.21685165 -0.04628159 5.32828033 -0.05366852 6.47338867 -0.0612793 C7.61289474 -0.06935104 8.75240082 -0.07742279 9.92643738 -0.08573914 C12.34156773 -0.09958792 14.75671772 -0.1103065 17.171875 -0.11816406 C20.86585567 -0.1353792 24.55894214 -0.17925999 28.25268555 -0.22338867 C30.59708 -0.2335151 32.94148206 -0.24203136 35.28588867 -0.2487793 C36.39124466 -0.26628738 37.49660065 -0.28379547 38.63545227 -0.30183411 C46.31575407 -0.28010887 46.31575407 -0.28010887 50.25341797 2.07861328 C53.51234437 5.82483134 53.46924767 8.85949099 53.43432617 13.69262695 C53.07885742 16.17700195 53.07885742 16.17700195 50.76635742 19.23950195 C44.3790356 23.84431536 41.4705449 22.17700195 32.07885742 22.17700195 C32.07885742 50.22700195 32.07885742 78.27700195 32.07885742 107.17700195 C24.81885742 107.17700195 17.55885742 107.17700195 10.07885742 107.17700195 C10.07885742 79.12700195 10.07885742 51.07700195 10.07885742 22.17700195 C5.78885742 22.17700195 1.49885742 22.17700195 -2.92114258 22.17700195 C-9.27998163 18.36169852 -9.27998163 18.36169852 -10.92114258 16.17700195 C-11.83020845 11.34503019 -11.61970797 7.3179921 -9.04614258 3.11450195 C-5.89640666 0.24268391 -4.16877513 0.04538368 0 0 Z " fill="#16AAF6" transform="translate(234.921142578125,-0.177001953125)"/>
<path d="M0 0 C4.81303773 3.9694177 9.19969981 8.15300807 13.44067383 12.72387695 C14.68943019 14.05549373 15.93887705 15.38646322 17.18891907 16.71687317 C17.84212946 17.4131312 18.49533985 18.10938923 19.1683445 18.82674599 C23.42358625 23.33840286 27.7365636 27.79501732 32.04379749 32.25697041 C35.80494241 36.15939596 39.53994267 40.08131438 43.22485352 44.0559082 C60.70762719 64.74042691 60.70762719 64.74042691 84.63322449 74.58280945 C89.53881895 74.52702448 94.21800904 74.10701819 99 73 C99 73.33 99 73.66 99 74 C24.09 74 -50.82 74 -128 74 C-128 73.67 -128 73.34 -128 73 C-127.37585362 72.99945523 -126.75170725 72.99891047 -126.10864735 72.99834919 C-110.91845076 72.98337881 -95.7286007 72.94092198 -80.53858662 72.86790943 C-73.19276423 72.83326304 -65.84712943 72.8079044 -58.5012207 72.80444336 C-52.09814709 72.80140294 -45.69540757 72.78090251 -39.292463 72.73947543 C-35.90235721 72.71815012 -32.51272633 72.70554197 -29.12255287 72.71384621 C-25.33679666 72.71872973 -21.55243118 72.69275556 -17.7668457 72.65942383 C-16.08262512 72.67236229 -16.08262512 72.67236229 -14.36437988 72.68556213 C-9.59513193 72.61500886 -6.84238183 72.55944172 -2.80578613 69.87866211 C-0.62621285 66.4041338 -0.36367448 64.37038275 -0.34057617 60.28198242 C-0.33009247 59.62776306 -0.31960876 58.9735437 -0.30880737 58.29949951 C-0.28015401 56.15100101 -0.28633622 54.00412332 -0.29296875 51.85546875 C-0.27984758 50.36043793 -0.26454205 48.86542482 -0.24714661 47.37043762 C-0.20733161 43.44620392 -0.19710853 39.52243431 -0.19311523 35.59802246 C-0.18377703 31.58929395 -0.1463593 27.58083738 -0.11132812 23.57226562 C-0.04678814 15.7148387 -0.01351881 7.85767959 0 0 Z " fill="#32BB5D" transform="translate(373,364)"/>
<path d="M0 0 C8.58 0 17.16 0 26 0 C26 26.4 26 52.8 26 80 C17.42 80 8.84 80 0 80 C0 71.09 0 62.18 0 53 C-8.91 53 -17.82 53 -27 53 C-27 44.42 -27 35.84 -27 27 C-18.09 27 -9.18 27 0 27 C0 18.09 0 9.18 0 0 Z " fill="#FDFDFD" transform="translate(123,176)"/>
<path d="M0 0 C16.84030058 0.25974757 31.80559173 5.60222186 44.1875 17.1875 C44.88875 17.83332031 45.59 18.47914062 46.3125 19.14453125 C51.00419546 23.63758638 51.00419546 23.63758638 52.1875 27.1875 C45.9175 27.1875 39.6475 27.1875 33.1875 27.1875 C33.1875 35.7675 33.1875 44.3475 33.1875 53.1875 C24.2775 53.1875 15.3675 53.1875 6.1875 53.1875 C6.1875 62.0975 6.1875 71.0075 6.1875 80.1875 C0.9075 80.1875 -4.3725 80.1875 -9.8125 80.1875 C-9.90326519 71.51139508 -9.97648159 62.83561115 -10.01974869 54.15913677 C-10.04052623 50.12926627 -10.06866097 46.09974052 -10.11425781 42.07006836 C-10.15807062 38.17318703 -10.18171083 34.27663498 -10.19200897 30.37952614 C-10.19933741 28.9009159 -10.21364622 27.42232144 -10.23542023 25.94385338 C-10.36094454 17.05840412 -9.81317412 9.29458817 -5.8125 1.1875 C-4.16205326 -0.46294674 -2.27061046 0.01624185 0 0 Z " fill="#A8A9A9" transform="translate(9.8125,95.8125)"/>
<path d="M0 0 C1.10424427 2.76061067 1.04167422 3.88237115 0.03125 6.734375 C-6.22527543 19.05589956 -13.21304139 26.58248568 -26.1875 31.8125 C-32.67784364 33.83408245 -38.9315985 34.14535301 -45.66233826 34.12025452 C-46.9331274 34.12153615 -46.9331274 34.12153615 -48.22958905 34.12284368 C-51.05469253 34.12448447 -53.87973601 34.11900013 -56.70483398 34.11352539 C-58.73539732 34.11324319 -60.76596077 34.11340189 -62.79652405 34.1139679 C-68.3000752 34.11425459 -73.80360452 34.1083785 -79.3071506 34.10139394 C-85.06203014 34.09513913 -90.81691019 34.09455491 -96.5717926 34.09336853 C-107.46551585 34.0902615 -118.35922904 34.08205655 -129.25294787 34.07201904 C-141.65674226 34.06083843 -154.06053714 34.05534254 -166.46433532 34.05032361 C-191.9762304 34.03987343 -217.48811171 34.02153573 -243 34 C-243 50.83 -243 67.66 -243 85 C-238.71 85 -234.42 85 -230 85 C-223.64116095 88.81530343 -223.64116095 88.81530343 -222 91 C-221.09093413 95.83197176 -221.30143461 99.85900986 -223.875 104.0625 C-227.02473592 106.93431804 -228.75236745 107.13161828 -232.92114258 107.17700195 C-234.45832695 107.19625481 -234.45832695 107.19625481 -236.02656555 107.21589661 C-237.69370857 107.22697701 -237.69370857 107.22697701 -239.39453125 107.23828125 C-240.53403732 107.246353 -241.6735434 107.25442474 -242.84757996 107.26274109 C-245.26271031 107.27658987 -247.6778603 107.28730846 -250.09301758 107.29516602 C-253.78699824 107.31238115 -257.48008471 107.35626194 -261.17382812 107.40039062 C-263.51822257 107.41051706 -265.86262464 107.41903331 -268.20703125 107.42578125 C-269.86506523 107.45204338 -269.86506523 107.45204338 -271.55659485 107.47883606 C-279.23689665 107.45711082 -279.23689665 107.45711082 -283.17456055 105.09838867 C-286.43348695 101.35217061 -286.39039025 98.31751096 -286.35546875 93.484375 C-286 91 -286 91 -283.6875 87.9375 C-277.30017817 83.33268659 -274.39168748 85 -265 85 C-265 67.84 -265 50.68 -265 33 C-258.18633789 32.98541748 -251.37267578 32.97083496 -244.35253906 32.95581055 C-222.5207862 32.90699396 -200.68909507 32.8435685 -178.8574086 32.77101372 C-175.4630449 32.75974633 -172.06868079 32.74860775 -168.67431641 32.73754883 C-167.99859458 32.73534514 -167.32287275 32.73314146 -166.6266745 32.730871 C-155.70313024 32.69555361 -144.77958603 32.67065816 -133.85600594 32.64965298 C-122.63714079 32.62784654 -111.41834921 32.59452999 -100.19954276 32.55129844 C-93.90242788 32.52739409 -87.60539436 32.50864698 -81.30823517 32.50238609 C-75.37553497 32.49632274 -69.44304289 32.47627731 -63.51041985 32.44572449 C-61.33852269 32.43696437 -59.16659832 32.43321746 -56.99468422 32.43499184 C-40.25816798 32.44434399 -23.64512835 31.76699275 -10.59375 19.79296875 C-5.49869178 14.06102825 -2.40187685 7.20563056 0 0 Z " fill="#26B0F3" transform="translate(510,405)"/>
<path d="M0 0 C0.92245514 -0.00852997 1.84491028 -0.01705994 2.7953186 -0.02584839 C3.80525879 -0.02494202 4.81519897 -0.02403564 5.85574341 -0.02310181 C6.92104279 -0.02981903 7.98634216 -0.03653625 9.08392334 -0.04345703 C12.61484406 -0.06249609 16.1455753 -0.06636424 19.67654419 -0.06851196 C22.12650634 -0.0749358 24.57646771 -0.08166385 27.02642822 -0.08868408 C32.16616596 -0.10067167 37.30583642 -0.10436338 42.44558716 -0.10317993 C49.03556218 -0.10297667 55.62510631 -0.13028034 62.21497917 -0.16472435 C67.27642808 -0.18694855 72.33777257 -0.19101884 77.39926529 -0.18996048 C79.82897553 -0.19232313 82.25868836 -0.20118381 84.68835068 -0.21662521 C88.08560205 -0.23619375 91.48191481 -0.23048235 94.87918091 -0.21841431 C95.88507263 -0.22965332 96.89096436 -0.24089233 97.92733765 -0.25247192 C102.31014592 -0.21285606 104.78953606 -0.17171048 108.57843018 2.18060303 C111.35332413 5.19907214 112.33971118 7.06264333 112.87185669 11.14242554 C112.39547167 15.11230067 110.96645243 17.16279089 108.49685669 20.26742554 C105.34220719 22.3705252 104.59473865 22.51980027 100.99371338 22.53485107 C100.07125824 22.54338104 99.1488031 22.55191101 98.19839478 22.56069946 C97.18845459 22.55979309 96.1785144 22.55888672 95.13796997 22.55795288 C94.07267059 22.5646701 93.00737122 22.57138733 91.90979004 22.57830811 C88.37886932 22.59734717 84.84813808 22.60121531 81.31716919 22.60336304 C78.86720704 22.60978688 76.41724567 22.61651492 73.96728516 22.62353516 C68.82754741 22.63552274 63.68787696 22.63921446 58.54812622 22.63803101 C51.9581512 22.63782774 45.36860707 22.66513141 38.77873421 22.69957542 C33.71728529 22.72179963 28.65594081 22.72586991 23.59444809 22.72481155 C21.16473785 22.72717421 18.73502502 22.73603488 16.3053627 22.75147629 C12.90811133 22.77104483 9.51179856 22.76533342 6.11453247 22.75326538 C5.10864075 22.76450439 4.10274902 22.77574341 3.06637573 22.787323 C-1.31643254 22.74770713 -3.79582268 22.70656155 -7.5847168 20.35424805 C-10.35961076 17.33577893 -11.3459978 15.47220775 -11.87814331 11.39242554 C-11.40175829 7.4225504 -9.97273905 5.37206018 -7.50314331 2.26742554 C-4.34849381 0.16432587 -3.60102527 0.0150508 0 0 Z " fill="#F8EE40" transform="translate(117.50314331054688,452.7325744628906)"/>
<path d="M0 0 C0.80180695 -0.0065712 1.60361389 -0.0131424 2.42971802 -0.01991272 C5.08945809 -0.03966165 7.74914167 -0.05131178 10.40893555 -0.0612793 C11.77037721 -0.06739259 11.77037721 -0.06739259 13.15932274 -0.07362938 C17.96314645 -0.09449683 22.76694153 -0.10879567 27.57080078 -0.11816406 C32.53425375 -0.12923051 37.49725865 -0.1636311 42.46055317 -0.20333576 C46.27555682 -0.22947331 50.09045324 -0.23785334 53.90553856 -0.24144554 C55.73518081 -0.24631885 57.56481803 -0.25795398 59.39437294 -0.27648354 C61.95598538 -0.30081471 64.51643254 -0.29992127 67.078125 -0.29296875 C67.83311783 -0.30577881 68.58811066 -0.31858887 69.36598206 -0.33178711 C74.28425162 -0.28316294 76.77137865 0.68938018 80.2331543 4.17700195 C82.52169424 7.44634473 82.70477647 10.24681715 82.2331543 14.17700195 C80.19321521 17.83482376 78.72896168 19.8464637 75.2331543 22.17700195 C72.57766231 22.3867207 70.02552187 22.48106221 67.36865234 22.48339844 C66.56830566 22.49172195 65.76795898 22.50004547 64.94335938 22.50862122 C62.29381462 22.53274357 59.64451602 22.54149653 56.99487305 22.5480957 C55.15265326 22.55706121 53.31043422 22.56618304 51.46821594 22.57545471 C47.60379262 22.59195395 43.73945603 22.59964637 39.875 22.60253906 C34.92834205 22.60792006 29.98250181 22.64558415 25.03607464 22.69128323 C21.22958926 22.72106055 17.42330048 22.72826278 13.61670876 22.72926521 C11.79346794 22.73346714 9.97022652 22.74590039 8.14710045 22.76678276 C5.59274012 22.79370837 3.0402707 22.78886887 0.48583984 22.77636719 C-0.63889992 22.79861862 -0.63889992 22.79861862 -1.78636169 22.82131958 C-7.54676492 22.74123482 -9.87853695 21.12765373 -13.7668457 17.17700195 C-15.38114494 13.94840349 -15.36255227 10.66706542 -14.7668457 7.17700195 C-11.00646383 0.62439623 -7.03526041 0.02485612 0 0 Z " fill="#F8EE40" transform="translate(147.766845703125,36.822998046875)"/>
<path d="M0 0 C0.64443558 -0.00511093 1.28887115 -0.01022186 1.95283508 -0.01548767 C4.07753864 -0.02935697 6.20191678 -0.02842875 8.32666016 -0.02612305 C9.80872721 -0.03001193 11.29079316 -0.034347 12.77285767 -0.03910828 C15.87806817 -0.0465651 18.98316497 -0.0462835 22.08837891 -0.04101562 C26.0584466 -0.03522673 30.02804688 -0.05214015 33.99803734 -0.0753603 C37.05905864 -0.09012793 40.11996822 -0.09096515 43.18101883 -0.08785057 C44.6441808 -0.08836243 46.10734925 -0.09357472 47.57047653 -0.10366249 C49.62150731 -0.11606674 51.67163874 -0.10921222 53.72265625 -0.09765625 C54.88751556 -0.09828568 56.05237488 -0.0989151 57.25253296 -0.0995636 C60.94773972 0.32747344 63.33320889 1.32986239 66.49072266 3.2746582 C68.70739141 6.59966134 69.26210179 8.31189648 69.49072266 12.2746582 C68.00388035 16.89169484 66.74114087 19.855139 62.49072266 22.2746582 C59.34791565 22.66906738 59.34791565 22.66906738 55.59838867 22.69458008 C54.57080444 22.70728439 54.57080444 22.70728439 53.52246094 22.72024536 C51.26299358 22.74360123 49.00420774 22.74463794 46.74462891 22.7434082 C45.17048369 22.75051062 43.59634106 22.75820974 42.02220154 22.76647949 C38.7244446 22.77992096 35.42692705 22.78149463 32.12915039 22.77563477 C27.90760355 22.76973847 23.68720671 22.80032735 19.4658823 22.84075165 C16.21528458 22.86662883 12.96496379 22.86950612 9.71427727 22.86585999 C8.15816291 22.86755121 6.60203577 22.8771941 5.04602242 22.89500427 C2.86738734 22.91719736 0.69107978 22.90749462 -1.48754883 22.88989258 C-2.72568832 22.89194702 -3.96382782 22.89400146 -5.23948669 22.89611816 C-9.39861322 22.10563006 -10.86179339 20.49923373 -13.50927734 17.2746582 C-15.11234658 14.06851973 -14.99668195 10.75325823 -14.50927734 7.2746582 C-10.76188265 1.11822407 -6.95747509 0.02755668 0 0 Z " fill="#F8EF3F" transform="translate(83.50927734375,489.725341796875)"/>
<path d="M0 0 C0.88141663 -0.01283524 1.76283325 -0.02567047 2.67095947 -0.03889465 C3.62613464 -0.04628159 4.58130981 -0.05366852 5.56542969 -0.0612793 C6.54719177 -0.06935104 7.52895386 -0.07742279 8.54046631 -0.08573914 C10.62184887 -0.09958597 12.70325419 -0.11030543 14.78466797 -0.11816406 C17.96072767 -0.1353542 21.13574042 -0.17923261 24.31152344 -0.22338867 C26.3336512 -0.23351754 28.35578781 -0.24203304 30.37792969 -0.2487793 C31.32500793 -0.26628738 32.27208618 -0.28379547 33.24786377 -0.30183411 C39.05243806 -0.28283948 42.30708799 0.32765778 46.73730469 4.17700195 C48.59457085 7.89153427 48.32231558 12.13279621 47.73730469 16.17700195 C45.54707551 19.00124484 43.90713262 20.59208799 40.73730469 22.17700195 C39.31955464 22.29132786 37.89676667 22.34633081 36.47460938 22.36987305 C35.59319275 22.38593597 34.71177612 22.4019989 33.8036499 22.41854858 C29.76575488 22.46303755 25.72802435 22.50407463 21.68994141 22.52709961 C19.56190037 22.54364635 17.43391462 22.57091932 15.30615234 22.60913086 C12.23603516 22.66397993 9.16722129 22.68578735 6.09667969 22.70043945 C5.14960144 22.72310883 4.20252319 22.7457782 3.22674561 22.76913452 C-1.23261836 22.75491865 -4.29827469 22.63832443 -7.84765625 19.76928711 C-11.13608417 16.23951278 -11.65750351 14.14567689 -11.62207031 9.2824707 C-10.98687717 5.56106742 -8.92290515 3.77387346 -6.26269531 1.17700195 C-3.94979096 0.02054977 -2.57525427 0.03263217 0 0 Z " fill="#F8EE40" transform="translate(16.2626953125,452.822998046875)"/>
<path d="M0 0 C0.92468582 -0.01283524 1.84937164 -0.02567047 2.80207825 -0.03889465 C3.80413803 -0.04628159 4.80619781 -0.05366852 5.83862305 -0.0612793 C6.8671489 -0.06935104 7.89567474 -0.07742279 8.95536804 -0.08573914 C11.13510448 -0.09958571 13.31486266 -0.11030529 15.49462891 -0.11816406 C18.82650907 -0.13537494 22.15739666 -0.1792564 25.48901367 -0.22338867 C27.60554283 -0.23351561 29.72208042 -0.24203171 31.83862305 -0.2487793 C32.83461014 -0.26628738 33.83059723 -0.28379547 34.85676575 -0.30183411 C39.27363583 -0.28800125 41.81169934 -0.26754128 45.64404297 2.07861328 C48.99657999 5.79332975 48.92842738 8.83245705 48.89331055 13.69262695 C48.5378418 16.17700195 48.5378418 16.17700195 46.2253418 19.23950195 C42.84888493 21.67369179 40.40327022 22.29995622 36.34521484 22.35400391 C35.50391525 22.36683914 34.66261566 22.37967438 33.79582214 22.39289856 C32.88955582 22.40028549 31.98328949 22.40767242 31.04956055 22.4152832 C30.1136055 22.42335495 29.17765045 22.4314267 28.21333313 22.43974304 C26.23208462 22.45357297 24.2508124 22.46430001 22.26953125 22.47216797 C19.24717835 22.48937761 16.2259204 22.53327307 13.20385742 22.57739258 C11.27743316 22.58752021 9.35099961 22.59603609 7.42456055 22.6027832 C6.52436691 22.62029129 5.62417328 22.63779938 4.69670105 22.65583801 C-0.85280757 22.63675444 -4.09532274 21.94084076 -8.4621582 18.17700195 C-10.9299898 14.47525456 -11.14288553 11.4720672 -10.4621582 7.17700195 C-7.55630131 1.84959764 -5.96328915 0.07199149 0 0 Z " fill="#F8EF3F" transform="translate(15.462158203125,-0.177001953125)"/>
<path d="M0 0 C1.23687309 -0.02409439 1.23687309 -0.02409439 2.49873352 -0.04867554 C6.27160816 -0.09315418 10.04430726 -0.13419153 13.81738281 -0.15722656 C15.80675964 -0.17378441 17.79607702 -0.20107219 19.78515625 -0.23925781 C22.65420372 -0.29405154 25.52185704 -0.31590407 28.39135742 -0.33056641 C29.27797562 -0.35323578 30.16459381 -0.37590515 31.07807922 -0.39926147 C35.57090122 -0.38390882 37.39978145 -0.27583915 41.04418945 2.58520508 C43.89216893 6.38856452 44.42620978 9.50268088 43.99682617 14.19287109 C41.99148086 18.27783377 40.27533523 20.65474206 35.99682617 22.19287109 C33.12112996 22.39733031 30.34504915 22.49694949 27.46948242 22.49365234 C26.64355087 22.49793747 25.81761932 22.5022226 24.96665955 22.50663757 C23.22257401 22.51237175 21.47846456 22.51288785 19.734375 22.50854492 C17.07209293 22.50538624 14.41092396 22.52885015 11.7487793 22.55419922 C10.05151507 22.55647251 8.35424786 22.55717557 6.65698242 22.55615234 C5.46770897 22.56996696 5.46770897 22.56996696 4.25440979 22.58406067 C-1.33675354 22.53747047 -4.57538073 21.36951319 -8.81567383 17.56787109 C-10.67728704 13.84464468 -10.67859803 10.26720418 -10.00317383 6.19287109 C-7.19530365 1.70027881 -5.20354886 0.09209949 0 0 Z " fill="#F8EF3F" transform="translate(170.003173828125,-0.19287109375)"/>
<path d="M0 0 C0.69134033 -0.00478363 1.38268066 -0.00956726 2.0949707 -0.01449585 C3.55064176 -0.01788486 5.00638996 -0.008752 6.46191406 0.01220703 C8.68207497 0.03899704 10.89718261 0.01243603 13.1171875 -0.01953125 C14.53646942 -0.01622696 15.95574821 -0.00982031 17.375 0 C18.65761719 0.00563965 19.94023437 0.0112793 21.26171875 0.01708984 C25.52842118 0.82287387 26.99834008 2.3296295 29.6875 5.6640625 C30.82531599 8.6790127 30.98071813 11.46121828 30.6875 14.6640625 C28.6718953 18.76992393 26.94177917 21.03604119 22.6875 22.6640625 C18.07420029 23.12162432 13.44613662 23.03437733 8.8125 23.0390625 C7.54535156 23.06355469 6.27820313 23.08804687 4.97265625 23.11328125 C-6.79467724 23.15040218 -6.79467724 23.15040218 -11.3125 18.6640625 C-13.31792966 15.79510506 -13.57890265 13.67705032 -13.25 10.2265625 C-13.19714844 9.48535156 -13.14429687 8.74414062 -13.08984375 7.98046875 C-10.896569 1.44473042 -6.38333254 0.02806742 0 0 Z " fill="#F8EF3F" transform="translate(119.3125,-0.6640625)"/>
<path d="M0 0 C1.22783203 -0.01611328 2.45566406 -0.03222656 3.72070312 -0.04882812 C4.90470703 -0.04947266 6.08871094 -0.05011719 7.30859375 -0.05078125 C8.38810303 -0.05376221 9.4676123 -0.05674316 10.57983398 -0.05981445 C14.65753473 0.44918887 17.15939457 2.22563058 20.34765625 4.6953125 C22.47641568 7.52909515 22.02055687 10.44637065 21.92578125 13.86328125 C21.42093014 17.26695483 20.07568492 19.02106669 17.5625 21.3125 C13.17427587 23.50661207 7.31550122 22.62201422 2.44165039 22.66259766 C0.98575842 22.67914004 -0.4700529 22.70640836 -1.92553711 22.74462891 C-4.03021123 22.79958123 -6.13298507 22.82129616 -8.23828125 22.8359375 C-9.49809814 22.85575684 -10.75791504 22.87557617 -12.0559082 22.89599609 C-16.3202286 22.16018455 -17.74483809 20.61663546 -20.4375 17.3125 C-22.04056924 14.10636153 -21.92490461 10.79110003 -21.4375 7.3125 C-16.26157563 -1.19080433 -9.00982263 -0.02357358 0 0 Z " fill="#F8EF3F" transform="translate(186.4375,489.6875)"/>
<path d="M0 0 C1.22396484 -0.02900391 2.44792969 -0.05800781 3.70898438 -0.08789062 C14.99742796 -0.1676893 14.99742796 -0.1676893 19.6875 4.3125 C22.1553316 8.01424739 22.36822732 11.01743475 21.6875 15.3125 C18.6875 20.8125 18.6875 20.8125 15.6875 22.3125 C11.31737717 22.57090788 6.94344302 22.58353382 2.56665039 22.60766602 C0.39339761 22.62485449 -1.77832346 22.66873807 -3.95117188 22.71289062 C-5.3385305 22.72302026 -6.72590204 22.73153552 -8.11328125 22.73828125 C-9.37309814 22.75286377 -10.63291504 22.76744629 -11.9309082 22.7824707 C-15.8913946 22.23204573 -17.50569813 21.10048822 -20.3125 18.3125 C-22.17105282 14.59539437 -21.89158439 10.35972719 -21.3125 6.3125 C-15.67019855 -1.15973706 -8.59471701 0.06725131 0 0 Z " fill="#F8EF3F" transform="translate(21.3125,489.6875)"/>
<path d="M0 0 C1.35206365 -0.01651623 2.70404154 -0.04375 4.05566406 -0.08203125 C16.72763449 -0.43876971 16.72763449 -0.43876971 20.64794922 2.74853516 C23.59918894 6.33526081 24.18218213 8.54616116 24.14794922 13.24462891 C23.51275608 16.96603218 21.44878406 18.75322615 18.78857422 21.35009766 C14.59961925 23.44457514 9.18522215 22.6179739 4.57714844 22.64526367 C2.55968338 22.66241817 0.54388328 22.70629636 -1.47314453 22.75048828 C-3.39320312 22.76305664 -3.39320312 22.76305664 -5.35205078 22.77587891 C-6.5228418 22.79046143 -7.69363281 22.80504395 -8.89990234 22.82006836 C-12.90877104 22.25113056 -15.0688281 20.8538636 -18.21142578 18.35009766 C-20.06869194 14.63556534 -19.79643668 10.3943034 -19.21142578 6.35009766 C-13.72755873 -0.72120459 -8.40268016 0.07515087 0 0 Z " fill="#F8EF40" transform="translate(19.21142578125,36.64990234375)"/>
<path d="M0 0 C5.61 0 11.22 0 17 0 C16.97381592 2.02850098 16.94763184 4.05700195 16.9206543 6.14697266 C16.83768642 12.86032297 16.7825292 19.57369633 16.74093914 26.28742409 C16.71488074 30.35676896 16.67955295 34.42558714 16.62280273 38.49462891 C16.56834649 42.42392503 16.5385512 46.35271562 16.52561378 50.28236008 C16.5163981 51.77908661 16.49840137 53.27578648 16.47134972 54.77229691 C16.43487428 56.87435222 16.43006175 58.97433766 16.43237305 61.07666016 C16.42126999 62.27134918 16.41016693 63.46603821 16.39872742 64.69692993 C16.87490423 68.85079818 16.87490423 68.85079818 22 74 C14.74 74 7.48 74 0 74 C0 67.07 0 60.14 0 53 C4.95 53 9.9 53 15 53 C15 44.09 15 35.18 15 26 C10.05 26 5.1 26 0 26 C0 17.42 0 8.84 0 0 Z " fill="#ABA7A6" transform="translate(123,363)"/>
<path d="M0 0 C8.91 0 17.82 0 27 0 C27 8.91 27 17.82 27 27 C18.09 27 9.18 27 0 27 C0 18.09 0 9.18 0 0 Z " fill="#A9A9A9" transform="translate(149,229)"/>
<path d="M0 0 C8.91 0 17.82 0 27 0 C27 8.91 27 17.82 27 27 C18.09 27 9.18 27 0 27 C0 18.09 0 9.18 0 0 Z " fill="#A9A9A9" transform="translate(16,149)"/>
<path d="M0 0 C8.91 0 17.82 0 27 0 C27 8.58 27 17.16 27 26 C18.09 26 9.18 26 0 26 C0 17.42 0 8.84 0 0 Z " fill="#FDFDFD" transform="translate(96,363)"/>
<path d="M0 0 C8.58 0 17.16 0 26 0 C26 8.91 26 17.82 26 27 C17.42 27 8.84 27 0 27 C0 18.09 0 9.18 0 0 Z " fill="#A8A8A8" transform="translate(43,336)"/>
<path d="M0 0 C8.58 0 17.16 0 26 0 C26 8.91 26 17.82 26 27 C17.42 27 8.84 27 0 27 C0 18.09 0 9.18 0 0 Z " fill="#FDFDFD" transform="translate(43,309)"/>
<path d="M0 0 C8.91 0 17.82 0 27 0 C27 8.58 27 17.16 27 26 C18.09 26 9.18 26 0 26 C0 17.42 0 8.84 0 0 Z " fill="#FDFDFD" transform="translate(69,283)"/>
<path d="M0 0 C8.91 0 17.82 0 27 0 C27 8.58 27 17.16 27 26 C18.09 26 9.18 26 0 26 C0 17.42 0 8.84 0 0 Z " fill="#FDFDFD" transform="translate(16,283)"/>
<path d="M0 0 C8.58 0 17.16 0 26 0 C26 8.91 26 17.82 26 27 C17.42 27 8.84 27 0 27 C0 18.09 0 9.18 0 0 Z " fill="#A8A8A8" transform="translate(123,256)"/>
<path d="M0 0 C8.58 0 17.16 0 26 0 C26 8.91 26 17.82 26 27 C17.42 27 8.84 27 0 27 C0 18.09 0 9.18 0 0 Z " fill="#FDFDFD" transform="translate(123,229)"/>
<path d="M0 0 C8.91 0 17.82 0 27 0 C27 8.58 27 17.16 27 26 C18.09 26 9.18 26 0 26 C0 17.42 0 8.84 0 0 Z " fill="#FDFDFD" transform="translate(149,203)"/>
<path d="M0 0 C8.91 0 17.82 0 27 0 C27 8.58 27 17.16 27 26 C18.09 26 9.18 26 0 26 C0 17.42 0 8.84 0 0 Z " fill="#FDFDFD" transform="translate(96,203)"/>
<path d="M0 0 C8.58 0 17.16 0 26 0 C26 8.91 26 17.82 26 27 C17.42 27 8.84 27 0 27 C0 18.09 0 9.18 0 0 Z " fill="#A8A8A8" transform="translate(43,176)"/>
<path d="M0 0 C8.58 0 17.16 0 26 0 C26 8.91 26 17.82 26 27 C17.42 27 8.84 27 0 27 C0 18.09 0 9.18 0 0 Z " fill="#FDFDFD" transform="translate(43,149)"/>
<path d="M0 0 C8.91 0 17.82 0 27 0 C27 8.58 27 17.16 27 26 C18.09 26 9.18 26 0 26 C0 17.42 0 8.84 0 0 Z " fill="#FDFDFD" transform="translate(16,123)"/>
<path d="M0 0 C8.58 0 17.16 0 26 0 C26 8.58 26 17.16 26 26 C17.42 26 8.84 26 0 26 C0 17.42 0 8.84 0 0 Z " fill="#A7A7A7" transform="translate(96,390)"/>
<path d="M0 0 C8.58 0 17.16 0 26 0 C26 8.58 26 17.16 26 26 C17.42 26 8.84 26 0 26 C0 17.42 0 8.84 0 0 Z " fill="#FFFFFF" transform="translate(70,390)"/>
<path d="M0 0 C8.58 0 17.16 0 26 0 C26 8.58 26 17.16 26 26 C17.42 26 8.84 26 0 26 C0 17.42 0 8.84 0 0 Z " fill="#A7A7A7" transform="translate(43,390)"/>
<path d="M0 0 C8.58 0 17.16 0 26 0 C26 8.58 26 17.16 26 26 C17.42 26 8.84 26 0 26 C0 17.42 0 8.84 0 0 Z " fill="#FFFFFF" transform="translate(16,390)"/>
<path d="M0 0 C8.58 0 17.16 0 26 0 C26 8.58 26 17.16 26 26 C17.42 26 8.84 26 0 26 C0 17.42 0 8.84 0 0 Z " fill="#A7A7A7" transform="translate(70,363)"/>
<path d="M0 0 C8.58 0 17.16 0 26 0 C26 8.58 26 17.16 26 26 C17.42 26 8.84 26 0 26 C0 17.42 0 8.84 0 0 Z " fill="#FFFFFF" transform="translate(43,363)"/>
<path d="M0 0 C8.58 0 17.16 0 26 0 C26 8.58 26 17.16 26 26 C17.42 26 8.84 26 0 26 C0 17.42 0 8.84 0 0 Z " fill="#A7A7A7" transform="translate(16,363)"/>
<path d="M0 0 C8.58 0 17.16 0 26 0 C26 8.58 26 17.16 26 26 C17.42 26 8.84 26 0 26 C0 17.42 0 8.84 0 0 Z " fill="#A7A7A7" transform="translate(96,336)"/>
<path d="M0 0 C8.58 0 17.16 0 26 0 C26 8.58 26 17.16 26 26 C17.42 26 8.84 26 0 26 C0 17.42 0 8.84 0 0 Z " fill="#FFFFFF" transform="translate(70,336)"/>
<path d="M0 0 C8.58 0 17.16 0 26 0 C26 8.58 26 17.16 26 26 C17.42 26 8.84 26 0 26 C0 17.42 0 8.84 0 0 Z " fill="#FFFFFF" transform="translate(16,336)"/>
<path d="M0 0 C8.58 0 17.16 0 26 0 C26 8.58 26 17.16 26 26 C17.42 26 8.84 26 0 26 C0 17.42 0 8.84 0 0 Z " fill="#A7A7A7" transform="translate(123,310)"/>
<path d="M0 0 C8.58 0 17.16 0 26 0 C26 8.58 26 17.16 26 26 C17.42 26 8.84 26 0 26 C0 17.42 0 8.84 0 0 Z " fill="#FFFFFF" transform="translate(96,310)"/>
<path d="M0 0 C8.58 0 17.16 0 26 0 C26 8.58 26 17.16 26 26 C17.42 26 8.84 26 0 26 C0 17.42 0 8.84 0 0 Z " fill="#A7A7A7" transform="translate(70,310)"/>
<path d="M0 0 C8.58 0 17.16 0 26 0 C26 8.58 26 17.16 26 26 C17.42 26 8.84 26 0 26 C0 17.42 0 8.84 0 0 Z " fill="#A7A7A7" transform="translate(16,310)"/>
<path d="M0 0 C8.58 0 17.16 0 26 0 C26 8.58 26 17.16 26 26 C17.42 26 8.84 26 0 26 C0 17.42 0 8.84 0 0 Z " fill="#A7A7A7" transform="translate(150,283)"/>
<path d="M0 0 C8.58 0 17.16 0 26 0 C26 8.58 26 17.16 26 26 C17.42 26 8.84 26 0 26 C0 17.42 0 8.84 0 0 Z " fill="#FFFFFF" transform="translate(123,283)"/>
<path d="M0 0 C8.58 0 17.16 0 26 0 C26 8.58 26 17.16 26 26 C17.42 26 8.84 26 0 26 C0 17.42 0 8.84 0 0 Z " fill="#A7A7A7" transform="translate(96,283)"/>
<path d="M0 0 C8.58 0 17.16 0 26 0 C26 8.58 26 17.16 26 26 C17.42 26 8.84 26 0 26 C0 17.42 0 8.84 0 0 Z " fill="#A7A7A7" transform="translate(43,283)"/>
<path d="M0 0 C8.58 0 17.16 0 26 0 C26 8.58 26 17.16 26 26 C17.42 26 8.84 26 0 26 C0 17.42 0 8.84 0 0 Z " fill="#A7A7A7" transform="translate(176,256)"/>
<path d="M0 0 C8.58 0 17.16 0 26 0 C26 8.58 26 17.16 26 26 C17.42 26 8.84 26 0 26 C0 17.42 0 8.84 0 0 Z " fill="#FFFFFF" transform="translate(150,256)"/>
<path d="M0 0 C8.58 0 17.16 0 26 0 C26 8.58 26 17.16 26 26 C17.42 26 8.84 26 0 26 C0 17.42 0 8.84 0 0 Z " fill="#FFFFFF" transform="translate(96,256)"/>
<path d="M0 0 C8.58 0 17.16 0 26 0 C26 8.58 26 17.16 26 26 C17.42 26 8.84 26 0 26 C0 17.42 0 8.84 0 0 Z " fill="#A7A7A7" transform="translate(70,256)"/>
<path d="M0 0 C8.58 0 17.16 0 26 0 C26 8.58 26 17.16 26 26 C17.42 26 8.84 26 0 26 C0 17.42 0 8.84 0 0 Z " fill="#A7A7A7" transform="translate(16,256)"/>
<path d="M0 0 C8.58 0 17.16 0 26 0 C26 8.58 26 17.16 26 26 C17.42 26 8.84 26 0 26 C0 17.42 0 8.84 0 0 Z " fill="#A7A7A7" transform="translate(96,230)"/>
<path d="M0 0 C8.58 0 17.16 0 26 0 C26 8.58 26 17.16 26 26 C17.42 26 8.84 26 0 26 C0 17.42 0 8.84 0 0 Z " fill="#FFFFFF" transform="translate(70,230)"/>
<path d="M0 0 C8.58 0 17.16 0 26 0 C26 8.58 26 17.16 26 26 C17.42 26 8.84 26 0 26 C0 17.42 0 8.84 0 0 Z " fill="#A7A7A7" transform="translate(43,230)"/>
<path d="M0 0 C8.58 0 17.16 0 26 0 C26 8.58 26 17.16 26 26 C17.42 26 8.84 26 0 26 C0 17.42 0 8.84 0 0 Z " fill="#FFFFFF" transform="translate(16,230)"/>
<path d="M0 0 C8.58 0 17.16 0 26 0 C26 8.58 26 17.16 26 26 C17.42 26 8.84 26 0 26 C0 17.42 0 8.84 0 0 Z " fill="#A7A7A7" transform="translate(123,203)"/>
<path d="M0 0 C8.58 0 17.16 0 26 0 C26 8.58 26 17.16 26 26 C17.42 26 8.84 26 0 26 C0 17.42 0 8.84 0 0 Z " fill="#A7A7A7" transform="translate(70,203)"/>
<path d="M0 0 C8.58 0 17.16 0 26 0 C26 8.58 26 17.16 26 26 C17.42 26 8.84 26 0 26 C0 17.42 0 8.84 0 0 Z " fill="#FFFFFF" transform="translate(43,203)"/>
<path d="M0 0 C8.58 0 17.16 0 26 0 C26 8.58 26 17.16 26 26 C17.42 26 8.84 26 0 26 C0 17.42 0 8.84 0 0 Z " fill="#A7A7A7" transform="translate(16,203)"/>
<path d="M0 0 C8.58 0 17.16 0 26 0 C26 8.58 26 17.16 26 26 C17.42 26 8.84 26 0 26 C0 17.42 0 8.84 0 0 Z " fill="#A7A7A7" transform="translate(150,176)"/>
<path d="M0 0 C8.58 0 17.16 0 26 0 C26 8.58 26 17.16 26 26 C17.42 26 8.84 26 0 26 C0 17.42 0 8.84 0 0 Z " fill="#A7A7A7" transform="translate(96,176)"/>
<path d="M0 0 C8.58 0 17.16 0 26 0 C26 8.58 26 17.16 26 26 C17.42 26 8.84 26 0 26 C0 17.42 0 8.84 0 0 Z " fill="#FFFFFF" transform="translate(70,176)"/>
<path d="M0 0 C8.58 0 17.16 0 26 0 C26 8.58 26 17.16 26 26 C17.42 26 8.84 26 0 26 C0 17.42 0 8.84 0 0 Z " fill="#FFFFFF" transform="translate(16,176)"/>
<path d="M0 0 C8.58 0 17.16 0 26 0 C26 8.58 26 17.16 26 26 C17.42 26 8.84 26 0 26 C0 17.42 0 8.84 0 0 Z " fill="#FFFFFF" transform="translate(150,150)"/>
<path d="M0 0 C8.58 0 17.16 0 26 0 C26 8.58 26 17.16 26 26 C17.42 26 8.84 26 0 26 C0 17.42 0 8.84 0 0 Z " fill="#A7A7A7" transform="translate(123,150)"/>
<path d="M0 0 C8.58 0 17.16 0 26 0 C26 8.58 26 17.16 26 26 C17.42 26 8.84 26 0 26 C0 17.42 0 8.84 0 0 Z " fill="#A7A7A7" transform="translate(150,123)"/>
<path d="M0 0 C8.58 0 17.16 0 26 0 C26 8.58 26 17.16 26 26 C17.42 26 8.84 26 0 26 C0 17.42 0 8.84 0 0 Z " fill="#FFFFFF" transform="translate(123,123)"/>
<path d="M0 0 C8.58 0 17.16 0 26 0 C26 8.58 26 17.16 26 26 C17.42 26 8.84 26 0 26 C0 17.42 0 8.84 0 0 Z " fill="#A7A7A7" transform="translate(176,96)"/>
<path d="M0 0 C1.5631897 0.00785522 1.5631897 0.00785522 3.15795898 0.01586914 C4.17059814 0.0183667 5.1832373 0.02086426 6.2265625 0.0234375 C7.52263428 0.0325415 8.81870605 0.04164551 10.15405273 0.05102539 C16.31061523 0.08196289 16.31061523 0.08196289 22.59155273 0.11352539 C22.59155273 8.69352539 22.59155273 17.27352539 22.59155273 26.11352539 C14.01155273 26.11352539 5.43155273 26.11352539 -3.40844727 26.11352539 C-3.42907227 22.00915039 -3.44969727 17.90477539 -3.47094727 13.67602539 C-3.48005127 12.37995361 -3.48915527 11.08388184 -3.49853516 9.74853516 C-3.50103271 8.735896 -3.50353027 7.72325684 -3.50610352 6.67993164 C-3.51134033 5.63780518 -3.51657715 4.59567871 -3.52197266 3.52197266 C-3.36883489 0.27314669 -3.24882597 0.15313777 0 0 Z " fill="#FDFEFE" transform="translate(153.408447265625,95.886474609375)"/>
<path d="M0 0 C8.25 0 16.5 0 25 0 C25 8.58 25 17.16 25 26 C16.42 26 7.84 26 -1 26 C-1.020625 22.08125 -1.04125 18.1625 -1.0625 14.125 C-1.071604 12.89023926 -1.08070801 11.65547852 -1.09008789 10.38330078 C-1.09258545 9.41376465 -1.09508301 8.44422852 -1.09765625 7.4453125 C-1.10289307 6.45031738 -1.10812988 5.45532227 -1.11352539 4.43017578 C-1 2 -1 2 0 0 Z " fill="#FEFEFE" transform="translate(97,150)"/>
<path d="M0 0 C18.11664642 -1.17640561 18.11664642 -1.17640561 22.6640625 1.6640625 C27.55209063 8.86367044 26.42101218 17.72009374 26 26 C17.42 26 8.84 26 0 26 C0 17.42 0 8.84 0 0 Z " fill="#A6A7A7" transform="translate(43,123)"/>
<path d="M0 0 C8.58 0 17.16 0 26 0 C26 15.96340909 26 15.96340909 20.9765625 23.5625 C14.81345419 28.60945484 7.57011527 26.72361396 0 26 C0 17.42 0 8.84 0 0 Z " fill="#FEFEFE" transform="translate(176,123)"/>
<path d="M0 0 C8.91 0 17.82 0 27 0 C27.103125 2.743125 27.20625 5.48625 27.3125 8.3125 C27.38078003 9.60281128 27.38078003 9.60281128 27.45043945 10.91918945 C27.4890724 13.03153918 27.43198402 14.92962747 27 17 C24.9765625 18.84375 24.9765625 18.84375 22 20 C21.4011499 20.25612061 20.8022998 20.51224121 20.18530273 20.77612305 C18.16122185 21.63142878 16.11916111 22.41410376 14.0625 23.1875 C13.37220703 23.46013672 12.68191406 23.73277344 11.97070312 24.01367188 C11.29072266 24.27083984 10.61074219 24.52800781 9.91015625 24.79296875 C8.99955444 25.14137817 8.99955444 25.14137817 8.07055664 25.49682617 C6 26 6 26 0 26 C0 17.42 0 8.84 0 0 Z " fill="#FEFDFD" transform="translate(176,283)"/>
<path d="M0 0 C8.58 0 17.16 0 26 0 C27.61881079 14.6849265 27.61881079 14.6849265 24.81933594 18.68847656 C23.21949613 20.21404915 21.62141044 21.38743414 19.75 22.5625 C19.18394043 22.92529053 18.61788086 23.28808105 18.03466797 23.66186523 C11.73522082 27.04566102 7.90298038 26 0 26 C0 17.42 0 8.84 0 0 Z " fill="#FEFEFE" transform="translate(203,96)"/>
<path d="M0 0 C5.61 0 11.22 0 17 0 C17.7425 1.815 18.485 3.63 19.25 5.5 C20.78974188 9.22871966 22.38851433 12.83045293 24.3125 16.375 C26 20 26 20 26 26 C17.42 26 8.84 26 0 26 C0 17.42 0 8.84 0 0 Z " fill="#FEFEFE" transform="translate(176,230)"/>
<path d="M0 0 C8.58 0 17.16 0 26 0 C26 7.26 26 14.52 26 22 C17.42 22 8.84 22 0 22 C0 14.74 0 7.48 0 0 Z " fill="#FFFFFF" transform="translate(176,74)"/>
<path d="M0 0 C8.58 0 17.16 0 26 0 C25.18658547 4.06707264 24.39864753 6.52395804 22.625 10.125 C20.03431336 15.64428894 18.45926623 21.08613158 17 27 C11.39 27 5.78 27 0 27 C0 18.09 0 9.18 0 0 Z " fill="#FEFDFD" transform="translate(123,336)"/>
<path d="M0 0 C8.58 0 17.16 0 26 0 C26 6.93 26 13.86 26 21 C17.42 21 8.84 21 0 21 C0 14.07 0 7.14 0 0 Z " fill="#FFFFFF" transform="translate(96,416)"/>
<path d="M0 0 C8.58 0 17.16 0 26 0 C26 6.93 26 13.86 26 21 C17.42 21 8.84 21 0 21 C0 14.07 0 7.14 0 0 Z " fill="#A7A7A7" transform="translate(70,416)"/>
<path d="M0 0 C8.58 0 17.16 0 26 0 C26 6.93 26 13.86 26 21 C17.42 21 8.84 21 0 21 C0 14.07 0 7.14 0 0 Z " fill="#FFFFFF" transform="translate(43,416)"/>
<path d="M0 0 C8.58 0 17.16 0 26 0 C26 6.93 26 13.86 26 21 C17.42 21 8.84 21 0 21 C0 14.07 0 7.14 0 0 Z " fill="#A7A7A7" transform="translate(203,75)"/>
<path d="M0 0 C3.58072917 0.06510417 7.16145833 0.13020833 10.7421875 0.1953125 C10.7421875 8.7753125 10.7421875 17.3553125 10.7421875 26.1953125 C2.4921875 26.1953125 -5.7578125 26.1953125 -14.2578125 26.1953125 C-12.80338529 18.92317643 -11.9772735 14.86139883 -8.7578125 8.6953125 C-8.44972656 8.08945313 -8.14164062 7.48359375 -7.82421875 6.859375 C-4.40946467 0.2643564 -4.40946467 0.2643564 0 0 Z " fill="#A5A7A7" transform="translate(111.2578125,122.8046875)"/>
<path d="M0 0 C0 8.25 0 16.5 0 25 C-8.58 25 -17.16 25 -26 25 C-27.07637109 12.32274047 -27.07637109 12.32274047 -24.2421875 8.83984375 C-21.89093408 7.28164021 -19.59380165 6.10330247 -17 5 C-15.845 4.4225 -14.69 3.845 -13.5 3.25 C-4.4 0 -4.4 0 0 0 Z " fill="#A5A7A7" transform="translate(149,97)"/>
<path d="M0 0 C8.58 0 17.16 0 26 0 C26 6.93 26 13.86 26 21 C17.28702972 20.88225716 6.50468012 18.50468012 0 12 C0 8.04 0 4.08 0 0 Z " fill="#A7A7A7" transform="translate(16,416)"/>
<path d="M0 0 C5.28 0 10.56 0 16 0 C16 8.91 16 17.82 16 27 C10.72 27 5.44 27 0 27 C0 18.09 0 9.18 0 0 Z " fill="#A8A8A8" transform="translate(0,336)"/>
<path d="M0 0 C5.28 0 10.56 0 16 0 C16 8.91 16 17.82 16 27 C10.72 27 5.44 27 0 27 C0 18.09 0 9.18 0 0 Z " fill="#FDFDFD" transform="translate(0,309)"/>
<path d="M0 0 C5.28 0 10.56 0 16 0 C16 8.91 16 17.82 16 27 C10.72 27 5.44 27 0 27 C0 18.09 0 9.18 0 0 Z " fill="#A8A8A8" transform="translate(0,176)"/>
<path d="M0 0 C5.28 0 10.56 0 16 0 C16 8.91 16 17.82 16 27 C10.72 27 5.44 27 0 27 C0 18.09 0 9.18 0 0 Z " fill="#FDFDFD" transform="translate(0,149)"/>
<path d="M0 0 C5.28 0 10.56 0 16 0 C16 8.58 16 17.16 16 26 C10.72 26 5.44 26 0 26 C0 17.42 0 8.84 0 0 Z " fill="#FFFFFF" transform="translate(0,363)"/>
<path d="M0 0 C5.28 0 10.56 0 16 0 C16 8.58 16 17.16 16 26 C10.72 26 5.44 26 0 26 C0 17.42 0 8.84 0 0 Z " fill="#A7A7A7" transform="translate(0,283)"/>
<path d="M0 0 C5.28 0 10.56 0 16 0 C16 8.58 16 17.16 16 26 C10.72 26 5.44 26 0 26 C0 17.42 0 8.84 0 0 Z " fill="#A7A7A7" transform="translate(0,230)"/>
<path d="M0 0 C5.28 0 10.56 0 16 0 C16 8.58 16 17.16 16 26 C10.72 26 5.44 26 0 26 C0 17.42 0 8.84 0 0 Z " fill="#FFFFFF" transform="translate(0,203)"/>
<path d="M0 0 C5.28 0 10.56 0 16 0 C16 8.58 16 17.16 16 26 C10.72 26 5.44 26 0 26 C0 17.42 0 8.84 0 0 Z " fill="#A7A7A7" transform="translate(0,123)"/>
<path d="M0 0 C5.28 0 10.56 0 16 0 C16 8.91 16 17.82 16 27 C12.37 27.33 8.74 27.66 5 28 C1.79447138 20.86511373 -0.15133341 15.69666177 -0.0625 7.8125 C-0.041875 5.234375 -0.02125 2.65625 0 0 Z " fill="#A9AAAA" transform="translate(0,389)"/>
<path d="M0 0 C4.95 0 9.9 0 15 0 C15 8.91 15 17.82 15 27 C10.05 27 5.1 27 0 27 C0 18.09 0 9.18 0 0 Z " fill="#FDFDFD" transform="translate(123,389)"/>
<path d="M0 0 C3.63 0 7.26 0 11 0 C11 8.91 11 17.82 11 27 C5.72 27 0.44 27 -5 27 C-5.35486125 17.33003103 -5.36690941 9.87412114 -1 1 C-0.67 0.67 -0.34 0.34 0 0 Z " fill="#FCFDFD" transform="translate(5,96)"/>
<path d="M0 0 C0.33 0 0.66 0 1 0 C1 17.49 1 34.98 1 53 C27.4 53 53.8 53 81 53 C81 61.91 81 70.82 81 80 C80.67 80 80.34 80 80 80 C80 71.42 80 62.84 80 54 C62.84 54 45.68 54 28 54 C28 71.16 28 88.32 28 106 C36.58 106 45.16 106 54 106 C54 106.33 54 106.66 54 107 C45.09 107 36.18 107 27 107 C27 89.51 27 72.02 27 54 C18.42 54 9.84 54 1 54 C1 71.49 1 88.98 1 107 C-7.91 107 -16.82 107 -26 107 C-26 106.67 -26 106.34 -26 106 C-17.42 106 -8.84 106 0 106 C0 88.84 0 71.68 0 54 C-13.86 54 -27.72 54 -42 54 C-42 53.67 -42 53.34 -42 53 C-28.14 53 -14.28 53 0 53 C0 44.42 0 35.84 0 27 C-8.58 27 -17.16 27 -26 27 C-26 26.67 -26 26.34 -26 26 C-17.42 26 -8.84 26 0 26 C0 17.42 0 8.84 0 0 Z " fill="#D0D0D0" transform="translate(42,176)"/>
<path d="M0 0 C0.33 0.66 0.66 1.32 1 2 C0.36328125 3.8203125 0.36328125 3.8203125 -0.6875 6.125 C-3.6651486 13.18005592 -5.26573291 20.56479108 -7 28 C-10.63 28 -14.26 28 -18 28 C-18 19.09 -18 10.18 -18 1 C-12.06 0.67 -6.12 0.34 0 0 Z " fill="#AAA9A7" transform="translate(194,148)"/>
<path d="M0 0 C3.96 0 7.92 0 12 0 C12.47981648 3.0207314 12.95887232 6.04158021 13.4375 9.0625 C13.57220703 9.91005859 13.70691406 10.75761719 13.84570312 11.63085938 C13.97783203 12.46552734 14.10996094 13.30019531 14.24609375 14.16015625 C14.42676392 15.29916382 14.42676392 15.29916382 14.61108398 16.46118164 C15.09762156 19.63726718 15.54559405 22.81915838 16 26 C10.72 26 5.44 26 0 26 C0 17.42 0 8.84 0 0 Z " fill="#A8A8A7" transform="translate(176,203)"/>
<path d="M0 0 C4.95 0 9.9 0 15 0 C15 7.26 15 14.52 15 22 C10.05 22 5.1 22 0 22 C0 14.74 0 7.48 0 0 Z " fill="#FFFFFF" transform="translate(230,74)"/>
<path d="M0 0 C8.58 0 17.16 0 26 0 C24.72850418 3.81448747 23.23157711 4.4536898 19.9375 6.6875 C12.17565163 12.18421752 6.3672407 18.19310444 1 26 C0.67 26 0.34 26 0 26 C0 17.42 0 8.84 0 0 Z " fill="#FEFDFB" transform="translate(150,310)"/>
<path d="M0 0 C4.51943634 1.12985908 4.92383 1.75665213 7.5 5.375 C9.96348203 8.81598701 9.96348203 8.81598701 13.19921875 11.4765625 C15 13 15 13 15.42578125 15.375 C15.38839844 16.24125 15.35101563 17.1075 15.3125 18 C15.28800781 18.86625 15.26351562 19.7325 15.23828125 20.625 C15 23 15 23 14 26 C9.38 26 4.76 26 0 26 C0 17.42 0 8.84 0 0 Z " fill="#FEFEFE" transform="translate(203,256)"/>
<path d="M0 0 C1.32 0 2.64 0 4 0 C5.32296487 2.64592975 5.18507494 4.85987932 5.3125 7.8125 C5.6768713 12.71388172 6.15571921 15.62169264 10 19 C12.86608129 20.43304064 14.81300783 20.30644155 18 20 C21.6578218 17.96006092 23.66946174 16.49580738 26 13 C26 17.29 26 21.58 26 26 C17.42 26 8.84 26 0 26 C0 17.42 0 8.84 0 0 Z " fill="#A3A7A8" transform="translate(70,150)"/>
<path d="M0 0 C3.63 0 7.26 0 11 0 C11 8.58 11 17.16 11 26 C7.37 26 3.74 26 0 26 C0 17.42 0 8.84 0 0 Z " fill="#FEFEFE" transform="translate(176,176)"/>
<path d="M0 0 C5.28 0 10.56 0 16 0 C16 3.63 16 7.26 16 11 C16.66 11.33 17.32 11.66 18 12 C16.95199219 12.27714844 15.90398437 12.55429688 14.82421875 12.83984375 C13.44529933 13.20567952 12.0663938 13.57156767 10.6875 13.9375 C9.99720703 14.11990234 9.30691406 14.30230469 8.59570312 14.49023438 C5.70112156 15.2593261 2.84215271 16.05261576 0 17 C0 11.39 0 5.78 0 0 Z " fill="#A9A9A8" transform="translate(229,96)"/>
<path d="M0 0 C9.24 0 18.48 0 28 0 C28 7.26 28 14.52 28 22 C27.67 22 27.34 22 27 22 C27 15.07 27 8.14 27 1 C18.42 1 9.84 1 1 1 C1 16.51 1 32.02 1 48 C4.63 48 8.26 48 12 48 C11.113125 49.03125 10.22625 50.0625 9.3125 51.125 C7.23870648 53.5378735 5.19926452 55.97279435 3.1875 58.4375 C2.1046875 59.7059375 2.1046875 59.7059375 1 61 C0.67 61 0.34 61 0 61 C0 57.04 0 53.08 0 49 C-8.58 49 -17.16 49 -26 49 C-26 48.67 -26 48.34 -26 48 C-17.42 48 -8.84 48 0 48 C0 32.16 0 16.32 0 0 Z " fill="#D3D3D2" transform="translate(202,74)"/>
<path d="M0 0 C4.54572276 1.8182891 6.5785464 3.10855503 10.0625 6.3125 C10.89910156 7.07175781 11.73570313 7.83101563 12.59765625 8.61328125 C14.95129099 10.95160779 17.01826236 13.34090169 19 16 C19 16.33 19 16.66 19 17 C12.73 17 6.46 17 0 17 C0 11.39 0 5.78 0 0 Z " fill="#F9FBFC" transform="translate(43,106)"/>
<path d="M0 0 C4.95 0 9.9 0 15 0 C15 7.26 15 14.52 15 22 C10.71 22 6.42 22 2 22 C3.65 20.68 5.3 19.36 7 18 C9.28177464 14.74032194 9.47992148 11.91935879 9 8 C6.58291088 4.06103995 4.40595131 2.3462629 0 1 C0 0.67 0 0.34 0 0 Z " fill="#A7AAAB" transform="translate(161,74)"/>
<path d="M0 0 C4.29 0 8.58 0 13 0 C12.34 2.64 11.68 5.28 11 8 C10.34 8 9.68 8 9 8 C8.79375 8.556875 8.5875 9.11375 8.375 9.6875 C6.43725543 12.94643405 4.00843777 14.69566469 1 17 C0.67 17 0.34 17 0 17 C0 11.39 0 5.78 0 0 Z " fill="#ABA8A5" transform="translate(203,283)"/>
<path d="M0 0 C0 3.96 0 7.92 0 12 C-3.96 12 -7.92 12 -12 12 C-10.02366525 8.04733049 -8.15894416 6.00484932 -5 3 C-4.443125 2.401875 -3.88625 1.80375 -3.3125 1.1875 C-2 0 -2 0 0 0 Z " fill="#FBFDFE" transform="translate(122,110)"/>
<path d="M0 0 C3.3 0 6.6 0 10 0 C10 3.63 10 7.26 10 11 C5.91031485 9.97757871 5.27801917 9.65096234 2.75 6.625 C2.22921875 6.01914062 1.7084375 5.41328125 1.171875 4.7890625 C0 3 0 3 0 0 Z " fill="#F6FBF9" transform="translate(6,416)"/>
<path d="M0 0 C0.66 0 1.32 0 2 0 C2 4.29 2 8.58 2 13 C10.58 13 19.16 13 28 13 C28 13.33 28 13.66 28 14 C19.42 14 10.84 14 2 14 C2 22.58 2 31.16 2 40 C1.67 40 1.34 40 1 40 C1 31.42 1 22.84 1 14 C-3.29 14 -7.58 14 -12 14 C-11.67 13.34 -11.34 12.68 -11 12 C-7.04 12.33 -3.08 12.66 1 13 C0.67 8.71 0.34 4.42 0 0 Z " fill="#CDCECF" transform="translate(121,109)"/>
<path d="M0 0 C3.3 0 6.6 0 10 0 C6.77932365 3.80625387 3.59755203 7.54081536 0 11 C0 7.37 0 3.74 0 0 Z " fill="#ACABA6" transform="translate(203,123)"/>
<path d="M0 0 C3.26737303 3.26737303 3.95672896 6.83168198 4.125 11.375 C4.08375 12.24125 4.0425 13.1075 4 14 C2.68 14 1.36 14 0 14 C0 9.38 0 4.76 0 0 Z " fill="#E7F0F4" transform="translate(69,135)"/>
<path d="M0 0 C3.21524305 1.40844718 5.32183868 3.10344786 7.75 5.625 C8.67039062 6.57246094 8.67039062 6.57246094 9.609375 7.5390625 C10.29773438 8.26222656 10.29773438 8.26222656 11 9 C10.67 9.66 10.34 10.32 10 11 C8.70145279 9.92492371 7.41141639 8.83956264 6.125 7.75 C5.40570313 7.14671875 4.68640625 6.5434375 3.9453125 5.921875 C2.02947882 4.02912366 1.03550955 2.46342273 0 0 Z " fill="#89C88E" transform="translate(299,290)"/>
</svg>
