<?xml version="1.0" encoding="UTF-8"?>
<svg version="1.1" xmlns="http://www.w3.org/2000/svg" width="512" height="512">
<path d="M0 0 C0.99386719 -0.03738281 1.98773438 -0.07476562 3.01171875 -0.11328125 C10.63479884 0.87005097 15.92744849 5.33637736 21.16821289 10.65063477 C21.80187271 11.27728531 22.43553253 11.90393585 23.08839417 12.54957581 C25.16410292 14.60779405 27.22496575 16.68016371 29.28515625 18.75390625 C30.73610636 20.2021579 32.18764948 21.64981566 33.63975525 23.09690857 C36.67629523 26.12756466 39.70551877 29.165301 42.72973633 32.20825195 C46.58486999 36.0861124 50.45760272 39.94581644 54.33608341 43.80030918 C57.3367167 46.78640242 60.32765197 49.78206433 63.31585503 52.78059196 C64.73892034 54.20630511 66.16490613 55.62910995 67.59398079 57.04879951 C81.58041746 70.96350921 93.35466543 85.47136852 93.69287109 106.12792969 C93.65408801 126.41500843 88.25057653 139.50368241 74.3125 154.3125 C73.39718736 155.30630447 72.48317119 156.30130426 71.5703125 157.29736328 C61.45242518 168.29676743 50.92682249 178.8857777 40.35986328 189.45043945 C37.79527834 192.01492137 35.23773385 194.58630967 32.68173218 197.15934277 C30.6862212 199.16598928 28.68616452 201.16805723 26.68481445 203.16887856 C25.28485924 204.57056637 23.88943937 205.97677929 22.49414062 207.38310242 C10.42106615 219.41274806 10.42106615 219.41274806 0.5 219.5625 C-5.95833624 219.49246985 -9.45797268 218.23093049 -14.375 214 C-19.34673945 208.22203253 -20.02777611 203.75715842 -20.0859375 196.3125 C-18.47266037 184.16547218 -4.9454193 174.4277544 3.25390625 166.2734375 C4.2725953 165.2566197 5.29105922 164.23957633 6.30931091 163.22232056 C8.95542587 160.5799752 11.60453216 157.94064982 14.2543335 155.30200195 C16.97154558 152.59512536 19.6858342 149.88532056 22.40039062 147.17578125 C27.70161497 141.88519584 33.00601178 136.59780627 38.3125 131.3125 C37.51073837 131.31103344 36.70897675 131.30956688 35.88291931 131.30805588 C16.36058057 131.27097969 -3.16157935 131.21195415 -22.68377686 131.12859726 C-32.12463663 131.08881368 -41.56541313 131.05641772 -51.00634766 131.04150391 C-59.2365333 131.02848387 -67.46653566 131.0015102 -75.69661808 130.95788693 C-80.05309932 130.93528002 -84.40935456 130.91958885 -88.76589966 130.92061615 C-92.87001331 130.92136322 -96.97362753 130.90339385 -101.07761192 130.87133217 C-102.58035694 130.86284322 -104.08315804 130.86107643 -105.58591652 130.86669731 C-122.02058796 130.91996093 -122.02058796 130.91996093 -128.52734375 124.49609375 C-128.88957031 123.91988281 -129.25179687 123.34367187 -129.625 122.75 C-130.00527344 122.17121094 -130.38554687 121.59242188 -130.77734375 120.99609375 C-133.81510477 115.37688773 -133.68316692 107.98327203 -132.0390625 101.921875 C-129.80339464 96.91550766 -126.47843455 93.90249478 -121.6875 91.3125 C-118.34302726 90.19767575 -115.81577191 90.17372766 -112.29048157 90.15428162 C-111.31270942 90.14687465 -111.31270942 90.14687465 -110.3151843 90.13931805 C-108.12719901 90.12393888 -105.93924308 90.11558132 -103.7512207 90.10717773 C-102.18429302 90.09759954 -100.61736793 90.08758949 -99.05044556 90.07717896 C-94.79251107 90.0501175 -90.53456549 90.02911465 -86.27659249 90.00917697 C-81.82826983 89.98732508 -77.37998143 89.95993249 -72.9316864 89.93312073 C-64.50634642 89.88318306 -56.08098744 89.83824821 -47.65561026 89.79509836 C-38.06440675 89.74573517 -28.4732376 89.69081364 -18.88206732 89.63541877 C0.8494231 89.52158224 20.58094634 89.41474682 40.3125 89.3125 C37.32919981 86.30418504 34.34240259 83.29939606 31.35253906 80.29760742 C30.33923848 79.27932708 29.32684288 78.26014526 28.31542969 77.23999023 C23.01492309 71.89487542 17.70650784 66.61244196 11.96480942 61.73407078 C9.25615293 59.40366772 6.73150338 56.89376502 4.203125 54.37109375 C3.66903015 53.8403273 3.1349353 53.30956085 2.58465576 52.76271057 C1.47099714 51.65405805 0.35863579 50.54410091 -0.75244141 49.43286133 C-2.44285568 47.74465131 -4.14114446 46.06463396 -5.83984375 44.38476562 C-6.93017632 43.29736492 -8.02003681 42.20949061 -9.109375 41.12109375 C-9.61047791 40.62717636 -10.11158081 40.13325897 -10.62786865 39.62437439 C-16.37786861 33.83708353 -19.79992276 28.84922766 -20 20.625 C-19.93206755 15.00019346 -19.23866748 10.77210567 -15.6875 6.3125 C-10.84910854 1.91396231 -6.57174016 0.15987588 0 0 Z " fill="#000000" transform="translate(132.6875,146.6875)"/>
<path d="M0 0 C4.93118269 3.48790971 8.5680539 7.03910339 10.5625 12.8125 C11.36951686 20.84950354 10.84438897 26.62457073 5.72485352 33.1574707 C-0.02929139 39.38481611 -5.92396124 45.453747 -11.9309082 51.4362793 C-13.50524155 53.0052236 -15.07411589 54.57948558 -16.64257812 56.15429688 C-17.66895022 57.18000842 -18.69563235 58.20540985 -19.72265625 59.23046875 C-20.62894775 60.13563232 -21.53523926 61.0407959 -22.46899414 61.97338867 C-24.60614545 64.06053673 -26.82292584 66.01985394 -29.09178162 67.96260071 C-33.57141064 71.8684024 -37.76175759 76.02399402 -41.9375 80.25 C-42.66453125 80.98154297 -43.3915625 81.71308594 -44.140625 82.46679688 C-45.90859499 84.24639824 -47.67416378 86.02830918 -49.4375 87.8125 C-48.62543091 87.81396656 -47.81336182 87.81543312 -46.97668457 87.81694412 C-27.20399307 87.8540192 -7.43147289 87.91304329 12.34107971 87.99640274 C21.90300777 88.03618748 31.4648536 88.06858285 41.02685547 88.08349609 C49.36251534 88.09651553 57.69799423 88.12348767 66.03355217 88.16711307 C70.44592409 88.18972132 74.85807284 88.20541106 79.27050781 88.20438385 C83.42714851 88.20363686 87.58329599 88.22160306 91.73980904 88.25366783 C93.26190503 88.26215779 94.7840564 88.26392288 96.3061657 88.25830269 C112.89577752 88.20522622 112.89577752 88.20522622 119.40234375 94.62890625 C119.76457031 95.20511719 120.12679687 95.78132813 120.5 96.375 C121.07041016 97.24318359 121.07041016 97.24318359 121.65234375 98.12890625 C124.69010477 103.74811227 124.55816692 111.14172797 122.9140625 117.203125 C120.67839464 122.20949234 117.35343455 125.22250522 112.5625 127.8125 C109.23913671 128.92028776 106.74340747 128.95115415 103.2414093 128.97071838 C102.59772831 128.97565636 101.95404731 128.98059434 101.29086083 128.98568195 C99.13051465 129.00105984 96.97019819 129.00941833 94.80981445 129.01782227 C93.26259092 129.02740056 91.71537001 129.03741062 90.16815186 129.04782104 C85.96393488 129.07488141 81.75970666 129.09588485 77.55545068 129.11582303 C73.16318219 129.13767559 68.7709484 129.16506785 64.37870789 129.19187927 C56.05961604 129.24181603 47.74050496 129.28675122 39.42137545 129.32990164 C29.95108834 129.37926561 20.48083603 129.43418685 11.01058257 129.48958123 C-8.47207932 129.60341637 -27.95477403 129.71025208 -47.4375 129.8125 C-46.78239441 130.46316437 -46.12728882 131.11382874 -45.45233154 131.78421021 C-39.26775843 137.92864464 -33.08805618 144.07792788 -26.91372299 150.23265266 C-23.73956719 153.3963886 -20.5635852 156.55824417 -17.38330078 159.71582031 C-14.31199934 162.76532936 -11.24566466 165.8197532 -8.18265533 168.87759018 C-7.01547624 170.041085 -5.84654346 171.20282339 -4.67580414 172.36273575 C-3.03141577 173.9925243 -1.39347635 175.62854926 0.24316406 177.26611328 C1.17582092 178.19432892 2.10847778 179.12254456 3.06939697 180.07888794 C9.25930942 186.86593971 10.87481034 191.87860231 10.77734375 200.8671875 C10.40576765 205.96115803 8.5076306 208.71410498 5.25 212.5 C-0.52796747 217.47173945 -4.99284158 218.15277611 -12.4375 218.2109375 C-18.10163278 217.45866987 -22.1090984 214.51797218 -26.2199707 210.70922852 C-27.08264557 209.9108255 -27.94532043 209.11242249 -28.83413696 208.28982544 C-32.91855715 204.40314583 -36.93629543 200.45657452 -40.91796875 196.46484375 C-41.77505936 195.60870987 -42.63214996 194.75257599 -43.51521301 193.87049866 C-45.31044209 192.07594465 -47.10443085 190.28014904 -48.8972168 188.4831543 C-51.62501402 185.74998595 -54.35812895 183.02221705 -57.09179688 180.29492188 C-58.84667498 178.53938313 -60.60124294 176.78353429 -62.35546875 175.02734375 C-63.56664619 173.81920265 -63.56664619 173.81920265 -64.80229187 172.58665466 C-69.00998415 168.36169298 -73.0622655 164.06603284 -76.92990112 159.52655029 C-79.25478574 156.8832947 -81.81133507 154.53725385 -84.375 152.125 C-97.15701625 139.59526039 -102.74361581 125.4382036 -102.9375 107.75 C-102.85816039 99.21882819 -101.93699507 91.68910645 -98.4375 83.8125 C-98.03660156 82.88695312 -97.63570313 81.96140625 -97.22265625 81.0078125 C-90.77987103 67.82344622 -78.20922468 57.40388958 -67.95703125 47.09375 C-67.33721563 46.46985886 -66.71740002 45.84596771 -66.07880211 45.20317078 C-62.81104308 41.91478247 -59.54018504 38.6295128 -56.2668457 35.34667969 C-52.9063377 31.9750208 -49.55769807 28.59181614 -46.21140003 25.20606232 C-43.6125849 22.58106851 -41.00489018 19.96503228 -38.3947506 17.3513031 C-37.15590055 16.10760807 -35.92040636 14.86056018 -34.6884861 13.61000061 C-32.96679906 11.86384499 -31.23277768 10.13087764 -29.49536133 8.40039062 C-28.99906219 7.89128143 -28.50276306 7.38217224 -27.99142456 6.8576355 C-20.13179417 -0.88902986 -10.67148236 -3.68651209 0 0 Z " fill="#000000" transform="translate(388.4375,148.1875)"/>
<path d="M0 0 C0.95296463 -0.0071553 1.90592926 -0.01431061 2.88777161 -0.02168274 C3.93189713 -0.02437164 4.97602264 -0.02706055 6.05178833 -0.02983093 C7.70361366 -0.03968773 7.70361366 -0.03968773 9.3888092 -0.04974365 C13.04355944 -0.06949674 16.69826843 -0.08114727 20.35305786 -0.09111023 C21.60282536 -0.09518576 22.85259285 -0.09926128 24.14023209 -0.10346031 C30.07921541 -0.12218198 36.01818567 -0.136741 41.95719135 -0.14507228 C48.7857997 -0.15481179 55.61408105 -0.18104198 62.44257438 -0.22157317 C68.37615946 -0.25556744 74.30966613 -0.26723372 80.24335098 -0.27127647 C82.75577121 -0.27612885 85.2681883 -0.287704 87.78054428 -0.30631447 C109.03984068 -0.45393351 125.97218043 1.48996746 142.07962036 16.80732727 C154.06491957 29.10046807 159.66660402 43.26761019 159.65139771 60.3014679 C159.65811493 61.39193924 159.66483215 62.48241058 159.67175293 63.60592651 C159.6906736 67.19263831 159.6946537 70.7791625 159.69680786 74.36592102 C159.70323826 76.86881079 159.70996681 79.37169981 159.71697998 81.87458801 C159.72893671 87.11308502 159.73274823 92.35153474 159.73147583 97.59004211 C159.7302736 103.62957076 159.7514028 109.66874255 159.78296316 115.7081809 C159.81234192 121.53984344 159.81945003 127.37136542 159.81825638 133.20309448 C159.82061291 135.6749823 159.82943934 138.14687292 159.84492111 140.61871338 C159.86455977 144.07706733 159.8587512 147.53450481 159.84671021 150.99287415 C159.85794922 152.00817703 159.86918823 153.02347992 159.88076782 154.06954956 C159.81887246 161.08055485 158.60396749 166.86222748 153.54446411 171.98701477 C152.96825317 172.34924133 152.39204224 172.7114679 151.79837036 173.08467102 C150.93018677 173.65508118 150.93018677 173.65508118 150.04446411 174.23701477 C144.4252581 177.2747758 137.03164239 177.14283794 130.97024536 175.49873352 C125.96387802 173.26306566 122.95086514 169.93810557 120.36087036 165.14717102 C119.4481763 162.40908883 119.23081618 160.78720934 119.21611023 157.96792603 C119.20576248 156.69171638 119.20576248 156.69171638 119.19520569 155.38972473 C119.19128563 153.99409302 119.19128563 153.99409302 119.18728638 152.57026672 C119.18059937 151.58781479 119.17391235 150.60536285 119.16702271 149.59313965 C119.15296318 147.45694536 119.14107201 145.32073597 119.13107491 143.18451881 C119.11466789 139.8005287 119.09142823 136.41664981 119.06617737 133.03271484 C118.99540582 123.41019742 118.93537414 113.78763375 118.88406372 104.16499329 C118.85220648 98.28056513 118.81090983 92.3962635 118.76386833 86.5119381 C118.74788425 84.27174858 118.73554616 82.03152991 118.72696114 79.79129982 C118.71475712 76.65108587 118.69058429 73.51116715 118.66384888 70.37104797 C118.66325974 69.45074799 118.66267059 68.530448 118.6620636 67.58226013 C118.57235124 59.59809238 117.685133 52.47872659 112.36087036 46.14717102 C105.31415849 40.78069702 97.70181169 41.00056856 89.25979614 41.00532532 C87.75620041 41.00011368 87.75620041 41.00011368 86.222229 40.99479675 C84.05170365 40.98746193 81.8811709 40.98210448 79.71063614 40.97850609 C76.27179184 40.97131788 72.83308834 40.95563438 69.39428711 40.93716431 C59.61900741 40.8847997 49.84380693 40.83671327 40.06838989 40.82124329 C34.08315541 40.81115169 28.09827884 40.78180098 22.11318588 40.73992348 C19.83671655 40.72762995 17.56019665 40.72248919 15.28369522 40.72472191 C12.09565364 40.72707976 8.90863655 40.70487181 5.72073364 40.67720032 C4.31930115 40.68710243 4.31930115 40.68710243 2.88955688 40.69720459 C-3.87281893 40.60111261 -9.5487126 39.19821969 -14.47897339 34.33076477 C-15.02231323 33.46644836 -15.02231323 33.46644836 -15.57662964 32.58467102 C-15.95690308 32.00588196 -16.33717651 31.4270929 -16.72897339 30.83076477 C-19.76673441 25.21155875 -19.63479656 17.81794305 -17.99069214 11.75654602 C-15.75502428 6.75017868 -12.43006418 3.7371658 -7.63912964 1.14717102 C-4.7758667 0.19275004 -2.97271742 0.01533542 0 0 Z " fill="#000000" transform="translate(352.6391296386719,-0.1471710205078125)"/>
<path d="M0 0 C1.66496773 -0.01007584 1.66496773 -0.01007584 3.36357117 -0.02035522 C7.01521334 -0.03927916 10.66667129 -0.04325617 14.31835938 -0.04541016 C16.86608963 -0.05184035 19.41381914 -0.05856888 21.96154785 -0.06558228 C27.2942099 -0.07753986 32.62680379 -0.08135043 37.95947266 -0.08007812 C44.10806181 -0.07887589 50.25630043 -0.1000049 56.40480089 -0.13156545 C62.34109992 -0.16094139 68.27729253 -0.1680524 74.21366882 -0.16685867 C76.73021377 -0.16921548 79.24676145 -0.17804343 81.76325989 -0.19352341 C85.28387467 -0.21315845 88.80358891 -0.20735485 92.32421875 -0.1953125 C93.35822311 -0.20655151 94.39222748 -0.21779053 95.45756531 -0.22937012 C102.55110508 -0.16783587 108.24187613 0.91386395 113.50195312 6.10693359 C113.86417969 6.68314453 114.22640625 7.25935547 114.59960938 7.85302734 C115.17001953 8.72121094 115.17001953 8.72121094 115.75195312 9.60693359 C118.78971415 15.22613961 118.6577763 22.61975531 117.01367188 28.68115234 C114.77800402 33.68751968 111.45304392 36.70053257 106.66210938 39.29052734 C103.90314976 40.21018055 102.25208258 40.42073701 99.40693665 40.43528748 C98.10548454 40.44563522 98.10548454 40.44563522 96.77774048 40.45619202 C95.35405655 40.46011208 95.35405655 40.46011208 93.90161133 40.46411133 C92.39867271 40.47414185 92.39867271 40.47414185 90.8653717 40.484375 C88.68661533 40.49843532 86.50784413 40.51032624 84.32906532 40.5203228 C80.87786638 40.53672816 77.42677657 40.5599677 73.97563171 40.58522034 C64.1619511 40.65599685 54.34822514 40.716028 44.53442383 40.76733398 C38.53328771 40.79918763 32.53227576 40.84048332 26.53124046 40.88752937 C24.24639312 40.90351552 21.96151716 40.91585267 19.67663002 40.92443657 C16.47415244 40.93663781 13.27196468 40.96080951 10.06958008 40.98754883 C9.13057861 40.98813797 8.19157715 40.98872711 7.22412109 40.98933411 C-0.80904037 41.07787427 -7.96357462 41.93030707 -14.33789062 47.29052734 C-19.66524575 54.28587225 -19.48455559 61.82552686 -19.47973633 70.20800781 C-19.48321075 71.19089783 -19.48668518 72.17378784 -19.49026489 73.1864624 C-19.49759883 75.3144258 -19.50295676 77.44239673 -19.50655556 79.57036972 C-19.51374499 82.94200532 -19.5294294 86.31349742 -19.54789734 89.68508911 C-19.60025615 99.26920633 -19.6483474 108.85324274 -19.66381836 118.4375 C-19.67391108 124.30602835 -19.70326451 130.17419179 -19.74513817 136.04257584 C-19.75743 138.27438724 -19.76257276 140.5062502 -19.76033974 142.73809433 C-19.75798134 145.86387735 -19.78019372 148.98861616 -19.80786133 152.11425781 C-19.79795921 153.48763809 -19.79795921 153.48763809 -19.78785706 154.88876343 C-19.88501473 161.59499742 -21.33074772 167.2445826 -26.15429688 172.13037109 C-26.73050781 172.49259766 -27.30671875 172.85482422 -27.90039062 173.22802734 C-28.76857422 173.7984375 -28.76857422 173.7984375 -29.65429688 174.38037109 C-35.27350289 177.41813212 -42.6671186 177.28619427 -48.72851562 175.64208984 C-53.73488297 173.40642199 -56.74789585 170.08146189 -59.33789062 165.29052734 C-60.2853685 162.44809372 -60.46958032 160.67489677 -60.48506165 157.72732544 C-60.49221695 156.79118912 -60.49937225 155.8550528 -60.50674438 154.89054871 C-60.50943329 153.86512466 -60.51212219 152.83970062 -60.51489258 151.78320312 C-60.52146378 150.70149338 -60.52803497 149.61978363 -60.5348053 148.5052948 C-60.55455741 144.91547578 -60.5662088 141.32569876 -60.57617188 137.73583984 C-60.5802474 136.50813747 -60.58432293 135.2804351 -60.58852196 134.01552963 C-60.60724346 128.18119729 -60.62180244 122.3468814 -60.63013393 116.51252472 C-60.63890715 110.46998347 -60.65811197 104.42769491 -60.69458008 98.38525391 C-60.73314264 91.89135781 -60.75183467 85.39768916 -60.75633812 78.90368271 C-60.76118968 76.43591946 -60.77276246 73.96815939 -60.79137611 71.50046158 C-60.94065585 50.38747093 -58.88187791 33.56016123 -43.67773438 17.57177734 C-31.31378463 5.51744237 -17.11651825 -0.01500374 0 0 Z " fill="#000000" transform="translate(60.337890625,-0.29052734375)"/>
<path d="M0 0 C4.89872999 2.85759249 7.79346527 7.1303958 9.5625 12.4375 C9.65959439 13.94358369 9.70167191 15.45354904 9.70967102 16.96273804 C9.72040398 18.35432129 9.72040398 18.35432129 9.73135376 19.77401733 C9.73404266 20.79009064 9.73673157 21.80616394 9.73950195 22.85302734 C9.74607315 23.92498352 9.75264435 24.9969397 9.75941467 26.10137939 C9.77916628 29.6587328 9.79081811 33.21604383 9.80078125 36.7734375 C9.80485678 37.99010731 9.8089323 39.20677711 9.81313133 40.4603157 C9.83400586 46.90729859 9.84829829 53.35426014 9.85766602 59.80126953 C9.86769118 66.43974021 9.90305671 73.07790452 9.94283772 79.71626854 C9.96907903 84.8363606 9.97736483 89.95637326 9.98094749 95.07652664 C9.98579863 97.5219614 9.9973702 99.96739297 10.01598549 102.41276169 C10.16611639 123.45230134 8.04952119 140.22777056 -7.09765625 156.15625 C-19.461606 168.21058498 -33.65887238 173.74303109 -50.77539062 173.72802734 C-52.44035835 173.73810318 -52.44035835 173.73810318 -54.13896179 173.74838257 C-57.79060397 173.76730651 -61.44206191 173.77128352 -65.09375 173.7734375 C-67.64148025 173.77986769 -70.18920976 173.78659622 -72.73693848 173.79360962 C-78.06960053 173.8055672 -83.40219441 173.80937778 -88.73486328 173.80810547 C-94.88345243 173.80690324 -101.03169106 173.82803224 -107.18019152 173.8595928 C-113.11649055 173.88896873 -119.05268315 173.89607974 -124.98905945 173.89488602 C-127.5056044 173.89724283 -130.02215207 173.90607078 -132.53865051 173.92155075 C-136.05926529 173.9411858 -139.57897953 173.93538219 -143.09960938 173.92333984 C-144.13361374 173.93457886 -145.1676181 173.94581787 -146.23295593 173.95739746 C-153.32649571 173.89586321 -159.01726675 172.8141634 -164.27734375 167.62109375 C-164.63957031 167.04488281 -165.00179688 166.46867188 -165.375 165.875 C-165.75527344 165.29621094 -166.13554687 164.71742188 -166.52734375 164.12109375 C-169.56510477 158.50188773 -169.43316692 151.10827203 -167.7890625 145.046875 C-165.55339464 140.04050766 -162.22843455 137.02749478 -157.4375 134.4375 C-154.67854039 133.5178468 -153.0274732 133.30729034 -150.18232727 133.29273987 C-149.31469254 133.28584137 -148.4470578 133.27894287 -147.5531311 133.27183533 C-146.60400848 133.26922195 -145.65488586 133.26660858 -144.67700195 133.26391602 C-143.67504288 133.257229 -142.6730838 133.25054199 -141.64076233 133.24365234 C-139.46200595 133.22959202 -137.28323476 133.2177011 -135.10445595 133.20770454 C-131.65325701 133.19129918 -128.20216719 133.16805964 -124.75102234 133.14280701 C-114.93734173 133.0720305 -105.12361576 133.01199934 -95.30981445 132.96069336 C-89.30867834 132.92883972 -83.30766639 132.88754402 -77.30663109 132.84049797 C-75.02178374 132.82451182 -72.73690779 132.81217467 -70.45202065 132.80359077 C-67.24954307 132.79138954 -64.0473553 132.76721784 -60.8449707 132.74047852 C-59.90596924 132.73988937 -58.96696777 132.73930023 -57.99951172 132.73869324 C-49.96635025 132.65015308 -42.81181601 131.79772028 -36.4375 126.4375 C-31.12981548 119.46798454 -31.2908029 111.96439554 -31.2956543 103.61181641 C-31.29217987 102.63867996 -31.28870544 101.66554352 -31.28512573 100.66291809 C-31.27779224 98.55623567 -31.27243408 96.44954565 -31.26883507 94.34285355 C-31.261645 91.00482227 -31.24596012 87.6669359 -31.22749329 84.32894897 C-31.17513746 74.840413 -31.12704372 65.35195866 -31.11157227 55.86328125 C-31.10147897 50.05310591 -31.07212414 44.2432991 -31.03025246 38.4332695 C-31.01796149 36.22378707 -31.01281771 34.01425258 -31.01505089 31.80473709 C-31.01740956 28.71008324 -30.9951949 25.61648375 -30.9675293 22.52197266 C-30.97413071 21.61573654 -30.98073212 20.70950043 -30.98753357 19.77580261 C-30.88982906 13.09776233 -29.42255786 7.46107473 -24.62109375 2.59765625 C-24.04488281 2.23542969 -23.46867188 1.87320312 -22.875 1.5 C-22.29621094 1.11972656 -21.71742188 0.73945313 -21.12109375 0.34765625 C-14.98998289 -2.96684219 -6.30251123 -2.81448021 0 0 Z " fill="#000000" transform="translate(502.4375,338.5625)"/>
<path d="M0 0 C4.89872999 2.85759249 7.79346527 7.1303958 9.5625 12.4375 C9.65780404 13.81547836 9.69998263 15.19753016 9.70726013 16.57878113 C9.71415863 17.4211734 9.72105713 18.26356567 9.72816467 19.13148499 C9.73077805 20.05255539 9.73339142 20.97362579 9.73608398 21.92260742 C9.742771 22.89530579 9.74945801 23.86800415 9.75634766 24.87017822 C9.77040677 26.98509146 9.78229808 29.10001995 9.79229546 31.21495628 C9.80870332 34.56534199 9.83194304 37.91561541 9.85719299 41.26594543 C9.92796198 50.79288125 9.98799393 60.31986377 10.03930664 69.84692383 C10.07116574 75.67299803 10.11246288 81.49894449 10.15950203 87.32491493 C10.17548504 89.54277553 10.18782363 91.76066556 10.19640923 93.97856712 C10.20861468 97.08764929 10.23278808 100.19643344 10.25952148 103.30541992 C10.26011063 104.21636917 10.26069977 105.12731842 10.26130676 106.06587219 C10.35162186 114.02548699 11.25629392 121.1274171 16.5625 127.4375 C23.60921187 132.803974 31.22155867 132.58410246 39.66357422 132.5793457 C41.16716995 132.58455734 41.16716995 132.58455734 42.70114136 132.58987427 C44.87166671 132.59720909 47.04219946 132.60256654 49.21273422 132.60616493 C52.65157852 132.61335314 56.09028202 132.62903664 59.52908325 132.64750671 C69.30436296 132.69987132 79.07956344 132.74795775 88.85498047 132.76342773 C94.84021495 132.77351933 100.82509152 132.80287004 106.81018448 132.84474754 C109.08665381 132.85704107 111.36317371 132.86218183 113.63967514 132.85994911 C116.82771672 132.85759126 120.01473381 132.87979921 123.20263672 132.9074707 C124.13692505 132.90086929 125.07121338 132.89426788 126.03381348 132.88746643 C132.79618929 132.98355841 138.47208296 134.38645133 143.40234375 139.25390625 C143.76457031 139.83011719 144.12679687 140.40632812 144.5 141 C145.07041016 141.86818359 145.07041016 141.86818359 145.65234375 142.75390625 C148.69010477 148.37311227 148.55816692 155.76672797 146.9140625 161.828125 C144.67839464 166.83449234 141.35343455 169.84750522 136.5625 172.4375 C133.69923706 173.39192098 131.89608779 173.5693356 128.92337036 173.58467102 C127.49392342 173.59540398 127.49392342 173.59540398 126.03559875 173.60635376 C124.99147324 173.60904266 123.94734772 173.61173157 122.87158203 173.61450195 C121.77036514 173.62107315 120.66914825 173.62764435 119.53456116 173.63441467 C115.87981092 173.65416776 112.22510193 173.66581829 108.5703125 173.67578125 C107.32054501 173.67985678 106.07077751 173.6839323 104.78313828 173.68813133 C98.84415495 173.706853 92.90518469 173.72141202 86.96617901 173.7297433 C80.13757066 173.73948281 73.30928931 173.765713 66.48079598 173.80624419 C60.5472109 173.84023846 54.61370423 173.85190474 48.68001938 173.85594749 C46.16759915 173.86079987 43.65518206 173.87237502 41.14282608 173.89098549 C19.88352968 174.03860453 2.95118993 172.09470356 -13.15625 156.77734375 C-25.10697085 144.51966945 -30.74333773 130.36749124 -30.72802734 113.375 C-30.73474457 112.29428223 -30.74146179 111.21356445 -30.74838257 110.10009766 C-30.76730155 106.54585104 -30.77128325 102.99179376 -30.7734375 99.4375 C-30.77986801 96.95703047 -30.78659656 94.4765617 -30.79360962 91.99609375 C-30.80556593 86.8046696 -30.80929196 81.61331194 -30.80810547 76.421875 C-30.807902 69.77741207 -30.83524098 63.13337549 -30.86964989 56.48901367 C-30.89190646 51.36912077 -30.89594343 46.24933085 -30.89488602 41.12939453 C-30.89724241 38.67983527 -30.90606805 36.23027318 -30.92155075 33.78076172 C-30.94119126 30.35353811 -30.93538015 26.92723915 -30.92333984 23.5 C-30.93457886 22.49404785 -30.94581787 21.4880957 -30.95739746 20.45166016 C-30.89519268 13.46799787 -29.65939702 7.70096989 -24.62109375 2.59765625 C-24.04488281 2.23542969 -23.46867187 1.87320312 -22.875 1.5 C-22.00681641 0.92958984 -22.00681641 0.92958984 -21.12109375 0.34765625 C-14.98998289 -2.96684219 -6.30251123 -2.81448021 0 0 Z " fill="#000000" transform="translate(30.4375,338.5625)"/>
</svg>
