<?xml version="1.0" encoding="UTF-8"?>
<svg version="1.1" xmlns="http://www.w3.org/2000/svg" width="512" height="512">
<path d="M0 0 C1.66650123 -0.00417737 3.33299962 -0.0096571 4.99949276 -0.01631981 C9.56002483 -0.03074021 14.12037566 -0.02654036 18.6809175 -0.019153 C23.60673313 -0.01441519 28.53250989 -0.02693661 33.45831299 -0.03717041 C43.10107973 -0.05435176 52.74378128 -0.05519978 62.38655935 -0.04995751 C70.2256606 -0.04591331 78.0647426 -0.04736233 85.90384293 -0.05270576 C87.02026929 -0.05345419 88.13669566 -0.05420261 89.28695313 -0.05497371 C91.55509702 -0.05650521 93.8232409 -0.05804356 96.09138478 -0.05958868 C117.35360282 -0.07331134 138.61578404 -0.06787769 159.87800123 -0.05640347 C179.32060689 -0.04647151 198.76311738 -0.05941156 218.20570837 -0.08333766 C238.180192 -0.10773269 258.1546313 -0.11733552 278.12912953 -0.11068493 C289.33896154 -0.1071936 300.54872037 -0.10941917 311.75854111 -0.12693596 C321.30124082 -0.14166296 330.84381581 -0.1422868 340.3865131 -0.12486505 C345.25283767 -0.11635682 350.11893947 -0.11420126 354.98525238 -0.1295166 C359.44514624 -0.1433788 363.9046268 -0.13858086 368.36449684 -0.11927737 C369.97274415 -0.11552175 371.58102469 -0.11842662 373.18924235 -0.12888902 C389.33094222 -0.22638378 401.28494306 3.56126497 413.290802 14.70018005 C424.38990492 26.42753408 425.9918486 39.34804006 425.92848206 54.84687805 C425.93265943 56.51337928 425.93813916 58.17987767 425.94480187 59.84637082 C425.95922226 64.40690288 425.95502242 68.96725371 425.94763505 73.52779555 C425.94289724 78.45361118 425.95541867 83.37938794 425.96565247 88.30519104 C425.98283381 97.94795778 425.98368184 107.59065933 425.97843956 117.2334374 C425.97439537 125.07253865 425.97584439 132.91162065 425.98118782 140.75072098 C425.98193624 141.86714734 425.98268466 142.98357371 425.98345577 144.13383118 C425.98498727 146.40197507 425.98652562 148.67011895 425.98807073 150.93826284 C426.00179339 172.20048087 425.99635974 193.46266209 425.98488552 214.72487928 C425.97495356 234.16748494 425.98789361 253.60999544 426.01181971 273.05258642 C426.03621475 293.02707005 426.04581757 313.00150936 426.03916699 332.97600758 C426.03567565 344.18583959 426.03790122 355.39559842 426.05541801 366.60541916 C426.07014502 376.14811888 426.07076886 385.69069387 426.0533471 395.23339115 C426.04483888 400.09971572 426.04268331 404.96581752 426.05799866 409.83213043 C426.07186086 414.29202429 426.06706291 418.75150485 426.04775942 423.21137489 C426.04400381 424.8196222 426.04690868 426.42790274 426.05737107 428.0361204 C426.15486584 444.17782028 422.36721708 456.13182111 411.228302 468.13768005 C399.27504597 479.45058309 386.03394353 480.83877541 370.34451294 480.79173279 C368.61880046 480.79744339 366.89309174 480.8044103 365.16738892 480.81253052 C360.50651484 480.83039364 355.84582971 480.82930738 351.18493176 480.82358813 C347.28798715 480.82048862 343.39107844 480.82659667 339.49413896 480.83262688 C330.30295691 480.84664582 321.11186789 480.84513066 311.92068481 480.83372498 C302.44449191 480.82222541 292.96858141 480.83635625 283.49242568 480.86312145 C275.34440678 480.88527198 267.1964766 480.89191791 259.04842973 480.88604504 C254.18688829 480.88267525 249.3255282 480.88509303 244.46401215 480.90229607 C239.89691878 480.91775454 235.33024506 480.91382199 230.76316833 480.89499092 C229.08862132 480.89130307 227.41404326 480.89441924 225.73952484 480.90487671 C223.45142544 480.91807452 221.16471823 480.90655199 218.87667847 480.8888855 C217.59731289 480.88867621 216.31794731 480.88846693 214.99981308 480.8882513 C209.77700038 480.13243127 206.73479947 477.64451949 203.165802 473.88768005 C200.76776625 468.72267997 200.78698665 463.98745125 201.540802 458.38768005 C203.85127752 453.41127124 206.82535398 451.07760638 211.540802 448.38768005 C214.84643269 447.8882513 214.84643269 447.8882513 218.50376892 447.8888855 C219.51873814 447.88080867 219.51873814 447.88080867 220.5542118 447.87256867 C222.80898705 447.85935299 225.06266272 447.87441171 227.31741333 447.88938904 C228.93914793 447.88556382 230.56087914 447.87994304 232.18260193 447.87266541 C235.66937266 447.86072755 239.15584219 447.86119438 242.64261818 447.87125969 C248.16109133 447.88684303 253.67925625 447.873126 259.19770813 447.85522461 C269.92040671 447.82441712 280.64301089 447.82290245 291.36574554 447.82487488 C305.00339153 447.82626795 318.64096451 447.81585331 332.278557 447.77629715 C337.75885805 447.76139767 343.23888518 447.7616085 348.71919024 447.77377498 C352.13615159 447.77850088 355.5530091 447.77094281 358.96995354 447.76023102 C360.54809776 447.75783402 362.12625969 447.76052773 363.70438385 447.76883888 C377.30034882 448.17090477 377.30034882 448.17090477 388.978302 442.13768005 C391.99918242 436.82093052 392.79075451 431.6022094 392.7952776 425.55441475 C392.79848407 424.90069871 392.80169055 424.24698268 392.8049942 423.57345706 C392.81326925 421.39165923 392.80737881 419.2101377 392.80149841 417.02833557 C392.80452024 415.44478325 392.80840988 413.86123238 392.81309098 412.27768409 C392.82337572 407.93264552 392.82118794 403.58768942 392.81691039 399.24264407 C392.81444403 394.55406221 392.8234562 389.86550024 392.83094788 385.17692566 C392.84369942 375.99397626 392.845488 366.8110561 392.84314761 357.62809934 C392.8413648 350.16409472 392.8431133 342.70009898 392.84737206 335.23609543 C392.84826484 333.64280776 392.84826484 333.64280776 392.84917566 332.01733246 C392.85038741 329.85950677 392.85160154 327.70168109 392.85281803 325.54385541 C392.86369533 305.30611502 392.86153018 285.06839129 392.85543319 264.83064996 C392.85026388 246.31702229 392.86151952 227.80344724 392.88053141 209.28982998 C392.89990385 190.27936132 392.90816685 171.26891755 392.90440816 152.25843894 C392.90249521 141.58578439 392.90499281 130.91317461 392.9191227 120.24052811 C392.93102988 111.15479503 392.93244881 102.0691343 392.92033253 92.98340024 C392.91443921 88.3483797 392.91335697 83.71349153 392.92533493 79.07847977 C392.93617784 74.83333309 392.93310934 70.58842959 392.91907325 66.34329437 C392.91642193 64.80970637 392.9188065 63.27609941 392.92680911 61.74253 C393.26234774 48.37994795 393.26234774 48.37994795 387.290802 36.95018005 C381.97405247 33.92929964 376.75533135 33.13772754 370.7075367 33.13320446 C370.05382066 33.12999798 369.40010462 33.1267915 368.72657901 33.12348786 C366.54478118 33.1152128 364.36325965 33.12110325 362.18145752 33.12698364 C360.5979052 33.12396182 359.01435433 33.12007218 357.43080604 33.11539108 C353.08576747 33.10510634 348.74081137 33.10729411 344.39576602 33.11157167 C339.70718415 33.11403802 335.01862219 33.10502585 330.33004761 33.09753418 C321.14709821 33.08478264 311.96417805 33.08299406 302.78122129 33.08533444 C295.31721667 33.08711725 287.85322093 33.08536875 280.38921738 33.08111 C279.3270256 33.08051481 278.26483382 33.07991962 277.17045441 33.0793064 C275.01262872 33.07809465 272.85480304 33.07688052 270.69697736 33.07566402 C250.45923697 33.06478672 230.22151324 33.06695187 209.98377191 33.07304887 C191.47014424 33.07821818 172.95656919 33.06696254 154.44295193 33.04795065 C135.43248327 33.02857821 116.4220395 33.02031521 97.41156089 33.0240739 C86.73890634 33.02598685 76.06629656 33.02348925 65.39365005 33.00935936 C56.30791698 32.99745218 47.22225625 32.99603325 38.13652219 33.00814953 C33.50150164 33.01404285 28.86661348 33.01512509 24.23160172 33.00314713 C19.98645504 32.99230421 15.74155154 32.99537272 11.49641632 33.00940881 C9.96282832 33.01206012 8.42922136 33.00967555 6.89565195 33.00167295 C-6.46693011 32.66613431 -6.46693011 32.66613431 -17.896698 38.63768005 C-20.97272636 44.05148998 -21.70904802 49.33717022 -21.71075439 55.49108887 C-21.71372453 56.17070614 -21.71669467 56.85032341 -21.71975482 57.55053514 C-21.7273428 59.80891939 -21.72092249 62.06703954 -21.71456909 64.32542419 C-21.71732137 65.95217056 -21.7210027 67.57891559 -21.72554016 69.20565796 C-21.73363164 72.69943116 -21.73582584 76.19314043 -21.73359299 79.68692207 C-21.73075371 85.2129957 -21.74513379 90.73894213 -21.76257324 96.26498413 C-21.80954471 111.97554125 -21.83354705 127.686089 -21.84005737 143.39671326 C-21.84380775 152.08066801 -21.86183176 160.76447812 -21.89515173 169.44837087 C-21.91536331 174.94040555 -21.91773773 180.43206718 -21.90687156 185.92412388 C-21.90426402 189.34098977 -21.91826982 192.75763844 -21.93695259 196.17444801 C-21.94227339 197.75706948 -21.94077966 199.33973098 -21.93191719 200.92233658 C-21.92077995 203.0858281 -21.93424324 205.24785264 -21.95367432 207.41125488 C-21.95530862 209.22553277 -21.95530862 209.22553277 -21.95697594 211.07646275 C-22.73317411 216.19404124 -25.2745629 219.26227671 -28.959198 222.76268005 C-34.12419808 225.16071581 -38.8594268 225.14149541 -44.459198 224.38768005 C-49.43373025 222.07807579 -51.78255462 219.11047615 -54.459198 214.38768005 C-54.96256256 210.9342556 -54.96256256 210.9342556 -54.96713257 207.06526184 C-54.97337253 206.34989687 -54.97961249 205.63453189 -54.98604155 204.89748919 C-55.00193658 202.51155528 -54.98938151 200.12664803 -54.97677612 197.7407074 C-54.98219911 196.02531846 -54.98932277 194.30993419 -54.99801636 192.59455872 C-55.0162399 187.94124781 -55.00918401 183.28829201 -54.99650002 178.63497496 C-54.98635753 173.75587236 -54.99577008 168.87679974 -55.00204468 163.99769592 C-55.00932158 155.79804546 -54.99973656 147.5985391 -54.98068237 139.39891052 C-54.9589571 129.94108618 -54.96593317 120.48360736 -54.987988 111.02579153 C-55.00619285 102.89133781 -55.00867423 94.75698762 -54.99823332 86.62252009 C-54.99202066 81.77079977 -54.9911002 76.91924128 -55.00437927 72.06753159 C-55.01600976 67.49881375 -55.00778176 62.93053666 -54.98480225 58.361866 C-54.97955147 56.69307433 -54.98096601 55.02424502 -54.98985291 53.35546875 C-55.06909421 36.95167383 -51.48909664 24.86285972 -40.146698 12.63768005 C-28.41934397 1.53857714 -15.49883799 -0.06336654 0 0 Z " fill="#000000" transform="translate(70.45919799804688,15.612319946289063)"/>
<path d="M0 0 C1.44011969 -0.00571379 2.88023486 -0.01268192 4.32034302 -0.02079773 C8.20479637 -0.03863419 12.08902265 -0.0375787 15.97350454 -0.03185534 C19.2286715 -0.02874927 22.48379572 -0.03487171 25.73895657 -0.04089409 C33.42496605 -0.05490683 41.1108643 -0.05340555 48.796875 -0.04199219 C56.69837093 -0.03051736 64.59952717 -0.04458327 72.50097835 -0.07138866 C79.31067715 -0.0936164 86.12026987 -0.10016708 92.93000233 -0.09431225 C96.98579559 -0.09095793 101.04137125 -0.09325515 105.09713364 -0.11056328 C108.91408389 -0.12614354 112.73053495 -0.12195582 116.54746628 -0.10325813 C117.93890799 -0.09960246 119.33038763 -0.10259127 120.72179413 -0.11314392 C136.34599876 -0.22248732 147.7630626 4.08762825 159.21923828 14.71655273 C169.74969145 25.84306929 171.92683433 38.10505676 171.87329102 52.93481445 C171.8790048 54.37493414 171.88597294 55.81504931 171.89408875 57.25515747 C171.91192521 61.13961082 171.91086972 65.02383711 171.90514636 68.908319 C171.90204029 72.16348595 171.90816272 75.41861018 171.91418511 78.67377102 C171.92819784 86.3597805 171.92669656 94.04567875 171.9152832 101.73168945 C171.90380837 109.63318538 171.91787428 117.53434162 171.94467968 125.4357928 C171.96690742 132.2454916 171.9734581 139.05508432 171.96760327 145.86481678 C171.96424895 149.92061004 171.96654617 153.97618571 171.98385429 158.03194809 C171.99943455 161.84889834 171.99524684 165.66534941 171.97654915 169.48228073 C171.97289348 170.87372245 171.97588228 172.26520208 171.98643494 173.65660858 C172.09577833 189.28081322 167.78566276 200.69787705 157.15673828 212.15405273 C146.03022173 222.6845059 133.76823426 224.86164878 118.93847656 224.80810547 C117.49835687 224.81381926 116.0582417 224.82078739 114.61813354 224.8289032 C110.73368019 224.84673966 106.84945391 224.84568417 102.96497202 224.83996081 C99.70980506 224.83685474 96.45468084 224.84297718 93.19951999 224.84899956 C85.51351052 224.86301229 77.82761226 224.86151102 70.14160156 224.85009766 C62.24010564 224.83862283 54.33894939 224.85268873 46.43749821 224.87949413 C39.62779942 224.90172187 32.81820669 224.90827255 26.00847423 224.90241772 C21.95268098 224.8990634 17.89710531 224.90136062 13.84134293 224.91866875 C10.02439267 224.93424901 6.20794161 224.93006129 2.39101028 224.9113636 C0.99956857 224.90770793 -0.39191106 224.91069674 -1.78331757 224.92124939 C-17.4075222 225.03059279 -28.82458604 220.72047722 -40.28076172 210.09155273 C-50.81121488 198.96503618 -52.98835776 186.70304871 -52.93481445 171.87329102 C-52.94052824 170.43317133 -52.94749637 168.99305616 -52.95561218 167.552948 C-52.97344865 163.66849464 -52.97239316 159.78426836 -52.9666698 155.89978647 C-52.96356373 152.64461952 -52.96968616 149.38949529 -52.97570854 146.13433444 C-52.98972128 138.44832497 -52.98822 130.76242672 -52.97680664 123.07641602 C-52.96533181 115.17492009 -52.97939772 107.27376384 -53.00620311 99.37231266 C-53.02843085 92.56261387 -53.03498154 85.75302114 -53.0291267 78.94328868 C-53.02577239 74.88749543 -53.02806961 70.83191976 -53.04537773 66.77615738 C-53.06095799 62.95920712 -53.05677028 59.14275606 -53.03807259 55.32582474 C-53.03441692 53.93438302 -53.03740572 52.54290339 -53.04795837 51.15149689 C-53.15730177 35.52729225 -48.8471862 24.11022841 -38.21826172 12.65405273 C-27.09174517 2.12359957 -14.82975769 -0.05354331 0 0 Z M-16.46826172 38.15405273 C-21.07180254 45.40811706 -20.82332314 52.44051851 -20.80541992 60.8059082 C-20.81053085 62.04093079 -20.81564178 63.27595337 -20.82090759 64.54840088 C-20.83239259 67.92046537 -20.8348825 71.29228332 -20.83234429 74.66435003 C-20.83127067 77.48719491 -20.83616799 80.31001739 -20.84094971 83.13285744 C-20.85202582 89.79700355 -20.85249317 96.46109329 -20.84643555 103.12524414 C-20.84039826 109.98206867 -20.85270479 116.83868786 -20.87400562 123.69547737 C-20.89166513 129.59890826 -20.8976161 135.50227406 -20.89436787 141.40573037 C-20.89256161 144.92433074 -20.89512495 148.44278466 -20.90908241 151.96136093 C-20.92408019 155.88879085 -20.91465265 159.8159626 -20.90307617 163.7434082 C-20.91071991 164.89694794 -20.91836365 166.05048767 -20.92623901 167.23898315 C-20.88194749 174.0539643 -20.72836056 181.43346019 -16.25584888 186.98716545 C-9.38744751 193.2935558 -0.85046622 192.69737642 7.87109375 192.67871094 C9.10611633 192.68382187 10.34113892 192.6889328 11.61358643 192.69419861 C14.98565091 192.70568361 18.35746887 192.70817352 21.72953558 192.70563531 C24.55238045 192.70456168 27.37520294 192.70945901 30.19804299 192.71424073 C36.8621891 192.72531684 43.52627884 192.72578418 50.19042969 192.71972656 C57.04725421 192.71368927 63.90387341 192.72599581 70.76066291 192.74729663 C76.66409381 192.76495614 82.5674596 192.77090711 88.47091591 192.76765889 C91.98951629 192.76585263 95.50797021 192.76841597 99.02654648 192.78237343 C102.9539764 192.7973712 106.88114815 192.78794367 110.80859375 192.77636719 C111.96213348 192.78401093 113.11567322 192.79165466 114.3041687 192.79953003 C121.11914985 192.7552385 128.49864574 192.60165158 134.052351 188.1291399 C140.35874135 181.26073853 139.76256197 172.72375723 139.74389648 164.00219727 C139.74900742 162.76717468 139.75411835 161.5321521 139.75938416 160.25970459 C139.77086916 156.8876401 139.77335906 153.51582214 139.77082086 150.14375544 C139.76974723 147.32091056 139.77464455 144.49808808 139.77942628 141.67524803 C139.79050238 135.01110192 139.79096973 128.34701218 139.78491211 121.68286133 C139.77887482 114.8260368 139.79118135 107.96941761 139.81248218 101.1126281 C139.83014169 95.20919721 139.83609266 89.30583141 139.83284444 83.4023751 C139.83103817 79.88377473 139.83360151 76.3653208 139.84755898 72.84674454 C139.86255675 68.91931462 139.85312922 64.99214287 139.84155273 61.06469727 C139.84919647 59.91115753 139.85684021 58.7576178 139.86471558 57.56912231 C139.82042405 50.75414116 139.66683712 43.37464527 135.19432545 37.82094002 C128.32592408 31.51454966 119.78894278 32.11072905 111.06738281 32.12939453 C109.83236023 32.1242836 108.59733765 32.11917267 107.32489014 32.11390686 C103.95282565 32.10242186 100.58100769 32.09993195 97.20894098 32.10247016 C94.38609611 32.10354379 91.56327363 32.09864646 88.74043357 32.09386474 C82.07628746 32.08278863 75.41219773 32.08232129 68.74804688 32.08837891 C61.89122235 32.0944162 55.03460315 32.08210966 48.17781365 32.06080884 C42.27438276 32.04314933 36.37101696 32.03719836 30.46756065 32.04044658 C26.94896027 32.04225284 23.43050635 32.0396895 19.91193008 32.02573204 C15.98450016 32.01073427 12.05732842 32.0201618 8.12988281 32.03173828 C6.97634308 32.02409454 5.82280334 32.01645081 4.63430786 32.00857544 C-2.87257665 32.05736374 -11.06041138 32.2642672 -16.46826172 38.15405273 Z " fill="#000000" transform="translate(68.53076171875,271.595947265625)"/>
<path d="M0 0 C1.33285034 -0.01051392 1.33285034 -0.01051392 2.69262695 -0.02124023 C5.6183229 -0.03878886 8.54304489 -0.02720857 11.46875 -0.01367188 C13.50846542 -0.01636769 15.54817959 -0.02025085 17.58789062 -0.02526855 C21.85819765 -0.03115936 26.1281695 -0.02261394 30.3984375 -0.00390625 C35.86619751 0.01888287 41.33317211 0.00575757 46.80090332 -0.01819611 C51.01145319 -0.03266525 55.22181752 -0.02804293 59.43237305 -0.01768494 C61.44816176 -0.01502075 63.46396743 -0.01827656 65.47973633 -0.02760315 C68.29944337 -0.03778699 71.11788682 -0.02224194 73.9375 0 C74.76677002 -0.00809692 75.59604004 -0.01619385 76.45043945 -0.02453613 C81.74342582 0.05262914 84.83974023 0.91576783 88.96875 4.51757812 C93.25627871 9.43267539 93.54709386 13.32532856 93.48632812 19.54882812 C93.4933374 20.43739502 93.50034668 21.32596191 93.50756836 22.24145508 C93.52511698 25.16715102 93.51353669 28.09187301 93.5 31.01757812 C93.50269581 33.05729355 93.50657898 35.09700772 93.51159668 37.13671875 C93.51748749 41.40702577 93.50894207 45.67699763 93.49023438 49.94726562 C93.46744526 55.41502564 93.48057055 60.88200023 93.50452423 66.34973145 C93.51899337 70.56028132 93.51437105 74.77064565 93.50401306 78.98120117 C93.50134887 80.99698988 93.50460469 83.01279556 93.51393127 85.02856445 C93.52411511 87.8482715 93.50857006 90.66671495 93.48632812 93.48632812 C93.49442505 94.31559814 93.50252197 95.14486816 93.51086426 95.99926758 C93.43346664 101.30819118 92.44824599 104.28434799 88.96875 108.51757812 C85.14944828 112.14591476 82.08595994 112.82758271 76.96875 113.01757812 C71.85154006 112.82758271 68.78805172 112.14591476 64.96875 108.51757812 C60.44069877 103.18057353 60.36799428 98.77595908 60.359375 92.08789062 C60.34283875 91.09755829 60.32630249 90.10722595 60.30926514 89.08688354 C60.26086671 85.93871813 60.23943189 82.79103551 60.21875 79.64257812 C60.19058356 77.50192894 60.1606552 75.36130217 60.12890625 73.22070312 C60.05511027 67.98641554 60.00341996 62.75226327 59.96875 57.51757812 C59.452832 58.0362615 58.93691401 58.55494488 58.40536213 59.08934593 C45.85270272 71.70825201 33.29175248 84.31884985 20.72151661 96.92024803 C14.64285092 103.01438404 8.56702553 109.11130218 2.49780273 115.21484375 C-2.79200065 120.53454433 -8.08705244 125.84895436 -13.38847905 131.15707266 C-16.19548134 133.96798664 -18.99978088 136.7814828 -21.79781151 139.6013298 C-24.43178914 142.25567755 -27.07273054 144.90289135 -29.7191658 147.54481697 C-31.15102124 148.97789056 -32.57540691 150.4184154 -33.9995575 151.85914612 C-34.85626038 152.71172501 -35.71296326 153.56430389 -36.59562683 154.44271851 C-37.3358266 155.18568365 -38.07602636 155.9286488 -38.83865643 156.69412804 C-43.4318908 160.51404876 -47.82791129 160.90474888 -53.59765625 160.76757812 C-58.41015504 160.27319623 -61.15499819 158.48855987 -64.34375 154.95507812 C-66.87487316 151.29901134 -67.23884695 149.20663352 -67.34375 144.76757812 C-67.38113281 143.74148437 -67.41851562 142.71539062 -67.45703125 141.65820312 C-66.3778976 133.69835493 -58.90162871 128.11820207 -53.48925781 122.74853516 C-52.51288087 121.77272303 -51.53694543 120.79646897 -50.56141663 119.81980896 C-47.92363419 117.18145472 -45.27974853 114.54929537 -42.6346941 111.91823435 C-39.86710962 109.16318608 -37.10522013 106.40244052 -34.3427124 103.64230347 C-29.11591051 98.42170786 -23.88403314 93.20622978 -18.65029693 87.99258697 C-12.68989032 82.05456589 -6.73518867 76.11083781 -0.78095102 70.16663194 C11.46262828 57.94393534 23.71332549 45.72839753 35.96875 33.51757812 C35.41831024 33.5139325 34.86787048 33.51028687 34.30075073 33.50653076 C28.55749708 33.46463136 22.81503705 33.39523426 17.07226562 33.31005859 C14.93074491 33.28188069 12.78912082 33.26065037 10.64746094 33.24658203 C7.56391593 33.22510888 4.48160982 33.17843496 1.3984375 33.12695312 C0.44508514 33.12572449 -0.50826721 33.12449585 -1.49050903 33.12322998 C-7.17199948 32.99881732 -10.53668586 32.33088132 -15.03125 28.51757812 C-18.65958663 24.6982764 -19.34125458 21.63478806 -19.53125 16.51757812 C-19.34125458 11.40036819 -18.65958663 8.33687985 -15.03125 4.51757812 C-9.95704676 0.34684579 -6.28944792 -0.06140965 0 0 Z " fill="#000000" transform="translate(323.03125,95.482421875)"/>
</svg>
