<?xml version="1.0" encoding="UTF-8"?>
<svg version="1.1" xmlns="http://www.w3.org/2000/svg" width="512" height="530">
<path d="M0 0 C0.7738504 0.00215515 1.54770081 0.0043103 2.34500122 0.00653076 C13.73393188 0.05743791 24.74933115 0.40910294 35.8125 3.3125 C36.98643311 3.61051514 36.98643311 3.61051514 38.18408203 3.91455078 C78.80427078 14.47500881 114.67257143 39.56470513 136.53125 75.7265625 C145.26189446 90.69060171 151.62966268 106.51045486 155.8125 123.3125 C156.29396484 125.19582031 156.29396484 125.19582031 156.78515625 127.1171875 C165.37916402 165.59631868 157.02280172 209.38322143 136.60668945 242.75756836 C134.75764457 245.66880448 132.81235581 248.50314015 130.8125 251.3125 C130.41224609 251.87501465 130.01199219 252.4375293 129.59960938 253.01708984 C106.56679934 284.83682622 73.74607068 305.8690094 35.8125 315.3125 C33.92917969 315.79396484 33.92917969 315.79396484 32.0078125 316.28515625 C-4.50787479 324.44064445 -44.79008176 317.1537673 -77.1875 299.3125 C-78.24195313 298.74789063 -79.29640625 298.18328125 -80.3828125 297.6015625 C-92.15287825 291.05580792 -102.40639403 282.51624902 -112.1875 273.3125 C-112.826875 272.73757813 -113.46625 272.16265625 -114.125 271.5703125 C-125.33247316 261.06330642 -134.1100575 247.85672072 -141.1875 234.3125 C-141.79078125 233.20777344 -142.3940625 232.10304688 -143.015625 230.96484375 C-159.55608956 199.64583369 -164.70731108 158.78784713 -156.1875 124.3125 C-155.9723877 123.43932129 -155.75727539 122.56614258 -155.53564453 121.66650391 C-148.30509389 93.48551867 -134.70246029 69.67007457 -115.1875 48.3125 C-114.43984375 47.49265625 -113.6921875 46.6728125 -112.921875 45.828125 C-93.53960162 25.58441725 -67.17808061 11.49924262 -40.1875 4.625 C-39.39311523 4.42237549 -38.59873047 4.21975098 -37.78027344 4.01098633 C-25.15868216 0.94014241 -12.93185902 -0.06481092 0 0 Z " fill="#000000" transform="translate(353.1875,211.6875)"/>
<path d="M0 0 C70.29 0 140.58 0 213 0 C213 17.49 213 34.98 213 53 C230.49 53 247.98 53 266 53 C266 95.24 266 137.48 266 181 C256.1 183.475 256.1 183.475 246 186 C242.64928311 186.98495054 239.40072862 187.95767818 236.125 189.125 C235.31949707 189.41157471 234.51399414 189.69814941 233.68408203 189.9934082 C212.18968438 197.93878403 192.18827967 209.84923676 175 225 C174.02804688 225.85078125 173.05609375 226.7015625 172.0546875 227.578125 C153.92385087 243.68149602 140.02011798 262.43433847 129 284 C128.66774414 284.64533691 128.33548828 285.29067383 127.99316406 285.95556641 C123.46457085 294.86210874 120.16860923 303.97988474 117.1640625 313.4921875 C116 317 116 317 115 318 C113.50716202 318.09571971 112.00980345 318.12188227 110.51390076 318.12025452 C109.54489838 318.12162918 108.575896 318.12300385 107.57752991 318.12442017 C106.50579025 318.12082489 105.4340506 318.11722961 104.32983398 318.11352539 C102.64712402 318.11374443 102.64712402 318.11374443 100.93041992 318.1139679 C97.20229189 318.1132682 93.47421311 318.10547315 89.74609375 318.09765625 C87.16919482 318.09579227 84.59229553 318.09436827 82.01539612 318.09336853 C75.91324885 318.08993342 69.81112206 318.0820426 63.70898253 318.07201904 C56.08268448 318.05976273 48.45638356 318.05427519 40.83007812 318.04882812 C27.22003818 318.03907716 13.61003716 318.01904686 0 318 C0 300.51 0 283.02 0 265 C-17.16 265 -34.32 265 -52 265 C-52 195.04 -52 125.08 -52 53 C-34.84 53 -17.68 53 0 53 C0 35.51 0 18.02 0 0 Z " fill="#000000" transform="translate(52,0)"/>
</svg>
