<?xml version="1.0" encoding="UTF-8"?>
<svg version="1.1" xmlns="http://www.w3.org/2000/svg" width="512" height="512">
<path d="M0 0 C4.72610042 2.65901872 7.5829614 6.35434973 9.6875 11.3125 C10.0234375 13.828125 10.0234375 13.828125 10.0625 16.5625 C10.09085937 17.45453125 10.11921875 18.3465625 10.1484375 19.265625 C9.06574387 26.4224134 4.96667694 31.62903916 -0.109375 36.53515625 C-0.66183899 37.08433212 -1.21430298 37.633508 -1.7835083 38.19932556 C-3.53395643 39.93418379 -5.29806358 41.65438397 -7.0625 43.375 C-8.23003646 44.53102325 -9.39671028 45.68791841 -10.5625 46.84570312 C-15.70815715 51.93582569 -20.88280494 56.93806526 -26.40155029 61.6264801 C-28.35871315 63.3532736 -30.20117746 65.15430208 -32.03808594 67.00805664 C-32.65520447 67.62951065 -33.272323 68.25096466 -33.90814209 68.89125061 C-34.3715802 69.36026291 -34.83501831 69.82927521 -35.3125 70.3125 C-34.69627274 70.31488835 -34.08004547 70.31727671 -33.44514465 70.31973743 C-18.4292016 70.37895443 -3.41343708 70.45454714 11.60232544 70.54821491 C18.86393784 70.59312047 26.12550178 70.63254709 33.38720703 70.65893555 C39.71883163 70.68195822 46.05030216 70.7154036 52.38180447 70.76120156 C55.73225173 70.78507686 59.08240646 70.80228764 62.43295288 70.81011391 C66.1794902 70.81975042 69.92547413 70.8478063 73.671875 70.88012695 C74.77455215 70.87869186 75.87722931 70.87725677 77.01332092 70.8757782 C83.92914735 70.96003707 90.05707542 71.48104917 95.7109375 75.890625 C100.00956922 81.20800759 102.01722366 85.91423012 101.5625 92.875 C100.75846166 98.37237838 98.31743896 101.76834731 94.3125 105.5625 C87.85114167 109.87007222 81.40222671 109.61674364 73.89892578 109.63134766 C72.71786758 109.64139328 71.53680939 109.6514389 70.31996155 109.66178894 C67.09520473 109.68731693 63.87054338 109.70421094 60.64571619 109.71721697 C57.27042333 109.73288782 53.89521869 109.75966535 50.51998901 109.7852478 C44.13472322 109.8319658 37.7494407 109.86874357 31.36409175 109.90192068 C24.09196865 109.94019151 16.81993431 109.98958861 9.54788613 110.03990483 C-5.40551024 110.14312082 -20.35896051 110.23241468 -35.3125 110.3125 C-33.23424535 112.40377049 -31.1542584 114.49326761 -29.07324219 116.58178711 C-28.48815887 117.17089622 -27.90307556 117.76000534 -27.30026245 118.36696625 C-23.74589212 121.93094003 -20.11099207 125.32454565 -16.27929688 128.59033203 C-12.04136871 132.30114947 -8.06641155 136.29064236 -4.0625 140.25 C-2.73605469 141.53293945 -2.73605469 141.53293945 -1.3828125 142.84179688 C4.2434643 148.41283077 8.69639419 153.22710189 10.25390625 161.21875 C10.24398318 167.80767009 9.1787542 172.35340682 4.6875 177.3125 C0.44145122 180.62441805 -3.11183901 182.44380521 -8.5 182.625 C-9.21542969 182.66238281 -9.93085937 182.69976562 -10.66796875 182.73828125 C-18.57966725 181.46446273 -23.85850028 176.34406318 -29.25732422 170.86938477 C-30.00630478 170.12580719 -30.75528534 169.38222961 -31.52696228 168.61611938 C-33.98369183 166.17183041 -36.42569929 163.71341193 -38.8671875 161.25390625 C-40.57666409 159.54458472 -42.28680825 157.83593058 -43.99758911 156.12791443 C-47.57281569 152.55406963 -51.14098936 148.9733731 -54.70410156 145.38745117 C-59.27207701 140.79103864 -63.85550846 136.21041486 -68.44407463 131.63456821 C-71.97382931 128.11176525 -75.49618099 124.58163629 -79.01623917 121.04914665 C-80.70388122 119.35698901 -82.39361781 117.66691763 -84.08547592 115.9789753 C-86.445772 113.62158767 -88.79614081 111.25473315 -91.14404297 108.88500977 C-91.84429092 108.18926346 -92.54453888 107.49351715 -93.26600647 106.77668762 C-98.38315975 101.58022707 -100.59620721 97.83233177 -100.625 90.375 C-100.64175781 89.37597656 -100.65851563 88.37695312 -100.67578125 87.34765625 C-99.79379071 79.97876755 -95.03143648 75.59503908 -90.01464844 70.6105957 C-89.27442947 69.86351349 -88.53421051 69.11643127 -87.77156067 68.34671021 C-85.32928917 65.88617896 -82.87613377 63.43685185 -80.421875 60.98828125 C-78.71620616 59.27805039 -77.01090959 57.56744819 -75.30596924 55.85649109 C-71.73324873 52.27484116 -68.15490935 48.69892172 -64.57275391 45.12670898 C-59.986579 40.5520257 -55.41645182 35.96168002 -50.85064316 31.3666811 C-47.33348209 27.83116085 -43.80704305 24.30501096 -40.27783966 20.78151512 C-38.58909872 19.09292741 -36.90345421 17.40123701 -35.22100067 15.70638466 C-32.86612351 13.33660523 -30.49881854 10.97996637 -28.12792969 8.6262207 C-27.43780289 7.92642593 -26.74767609 7.22663116 -26.03663635 6.50563049 C-18.61941967 -0.79991367 -10.07400568 -4.60632973 0 0 Z " fill="#000000" transform="translate(100.3125,165.6875)"/>
<path d="M0 0 C0.71542969 -0.03738281 1.43085938 -0.07476562 2.16796875 -0.11328125 C10.07966725 1.16053727 15.35850028 6.28093682 20.75732422 11.75561523 C21.50630478 12.49919281 22.25528534 13.24277039 23.02696228 14.00888062 C25.48369183 16.45316959 27.92569929 18.91158807 30.3671875 21.37109375 C32.07666409 23.08041528 33.78680825 24.78906942 35.49758911 26.49708557 C39.07281569 30.07093037 42.64098936 33.6516269 46.20410156 37.23754883 C50.77207701 41.83396136 55.35550846 46.41458514 59.94407463 50.99043179 C63.47382931 54.51323475 66.99618099 58.04336371 70.51623917 61.57585335 C72.20388122 63.26801099 73.89361781 64.95808237 75.58547592 66.6460247 C77.945772 69.00341233 80.29614081 71.37026685 82.64404297 73.73999023 C83.34429092 74.43573654 84.04453888 75.13148285 84.76600647 75.84831238 C89.88315975 81.04477293 92.09620721 84.79266823 92.125 92.25 C92.14175781 93.24902344 92.15851563 94.24804688 92.17578125 95.27734375 C91.29379071 102.64623245 86.53143648 107.02996092 81.51464844 112.0144043 C80.77442947 112.76148651 80.03421051 113.50856873 79.27156067 114.27828979 C76.82928917 116.73882104 74.37613377 119.18814815 71.921875 121.63671875 C70.21620616 123.34694961 68.51090959 125.05755181 66.80596924 126.76850891 C63.23324873 130.35015884 59.65490935 133.92607828 56.07275391 137.49829102 C51.486579 142.0729743 46.91645182 146.66331998 42.35064316 151.2583189 C38.83348209 154.79383915 35.30704305 158.31998904 31.77783966 161.84348488 C30.08909872 163.53207259 28.40345421 165.22376299 26.72100067 166.91861534 C24.36612351 169.28839477 21.99881854 171.64503363 19.62792969 173.9987793 C18.59273949 175.04847145 18.59273949 175.04847145 17.53663635 176.11936951 C12.60152156 180.98018194 7.63729303 184.73627166 0.375 184.75 C-5.7600076 184.51967548 -10.36335767 182.23264982 -14.5625 177.8125 C-17.20145078 173.75257572 -18.49235507 170.97264487 -18.5625 166.0625 C-18.59085937 165.17046875 -18.61921875 164.2784375 -18.6484375 163.359375 C-17.56574387 156.2025866 -13.46667694 150.99596084 -8.390625 146.08984375 C-7.83816101 145.54066788 -7.28569702 144.991492 -6.7164917 144.42567444 C-4.96604357 142.69081621 -3.20193642 140.97061603 -1.4375 139.25 C-0.26996354 138.09397675 0.89671028 136.93708159 2.0625 135.77929688 C7.20815715 130.68917431 12.38280494 125.68693474 17.90155029 120.9985199 C19.85871315 119.2717264 21.70117746 117.47069792 23.53808594 115.61694336 C24.46376373 114.68476234 24.46376373 114.68476234 25.40814209 113.73374939 C25.8715802 113.26473709 26.33501831 112.79572479 26.8125 112.3125 C26.19627274 112.31011165 25.58004547 112.30772329 24.94514465 112.30526257 C9.9292016 112.24604557 -5.08656292 112.17045286 -20.10232544 112.07678509 C-27.36393784 112.03187953 -34.62550178 111.99245291 -41.88720703 111.96606445 C-48.21883163 111.94304178 -54.55030216 111.9095964 -60.88180447 111.86379844 C-64.23225173 111.83992314 -67.58240646 111.82271236 -70.93295288 111.81488609 C-74.6794902 111.80524958 -78.42547413 111.7771937 -82.171875 111.74487305 C-83.27455215 111.74630814 -84.37722931 111.74774323 -85.51332092 111.7492218 C-92.42914735 111.66496293 -98.55707542 111.14395083 -104.2109375 106.734375 C-108.50956922 101.41699241 -110.51722366 96.71076988 -110.0625 89.75 C-109.25846166 84.25262162 -106.81743896 80.85665269 -102.8125 77.0625 C-96.35114167 72.75492778 -89.90222671 73.00825636 -82.39892578 72.99365234 C-81.21786758 72.98360672 -80.03680939 72.9735611 -78.81996155 72.96321106 C-75.59520473 72.93768307 -72.37054338 72.92078906 -69.14571619 72.90778303 C-65.77042333 72.89211218 -62.39521869 72.86533465 -59.01998901 72.8397522 C-52.63472322 72.7930342 -46.2494407 72.75625643 -39.86409175 72.72307932 C-32.59196865 72.68480849 -25.31993431 72.63541139 -18.04788613 72.58509517 C-3.09448976 72.48187918 11.85896051 72.39258532 26.8125 72.3125 C24.57005247 70.05600867 22.32482519 67.80230279 20.07910156 65.54907227 C19.44710846 64.91305336 18.81511536 64.27703445 18.16397095 63.62174225 C14.46601328 59.91451783 10.703597 56.36078714 6.71289062 52.96826172 C2.66686891 49.44306654 -1.1219676 45.64560855 -4.9375 41.875 C-5.77410156 41.06740234 -6.61070312 40.25980469 -7.47265625 39.42773438 C-12.95682251 34.00042152 -17.25128792 29.11623645 -18.75390625 21.40625 C-18.74398318 14.81732991 -17.6787542 10.27159318 -13.1875 5.3125 C-8.94145122 2.00058195 -5.38816099 0.18119479 0 0 Z " fill="#000000" transform="translate(420.1875,163.6875)"/>
<path d="M0 0 C4.82586908 2.6017729 7.90793301 6.0040141 9.88643903 11.07242686 C10.80342639 14.30434031 11.04848969 16.89855822 11.05135059 20.24742031 C11.05718279 21.42547062 11.06301498 22.60352094 11.06902391 23.81726974 C11.06524458 25.10237648 11.06146526 26.38748322 11.05757141 27.71153259 C11.06059311 29.09765709 11.06448269 30.48377992 11.06916398 31.86989981 C11.07945023 35.673787 11.07726057 39.47758001 11.07298338 43.28147495 C11.07051732 47.38584656 11.07952881 51.49019542 11.08702087 55.59455872 C11.09977298 63.63329192 11.10156095 71.67199173 11.09922061 79.71073335 C11.09743795 86.24419205 11.09918597 92.77764061 11.10344505 99.3110981 C11.10433784 100.70562916 11.10433784 100.70562916 11.10524866 102.12833257 C11.1064604 104.01695525 11.10767453 105.90557793 11.10889103 107.79420061 C11.11976843 125.50720516 11.11760306 143.22019068 11.11150619 160.93319631 C11.1063362 177.13969173 11.11759427 193.34612704 11.13660441 209.55261057 C11.1559731 226.19227261 11.16424055 242.83190622 11.16048115 259.47157961 C11.15856772 268.81397355 11.16107056 278.15631634 11.17519569 287.4987011 C11.18709807 295.45145104 11.1885272 303.40411833 11.17640553 311.35686939 C11.17050895 315.41444094 11.16943887 319.47186121 11.18140793 323.52942276 C11.19223992 327.24467911 11.18919557 330.9596574 11.17514624 334.6749006 C11.17123556 336.65376822 11.18206827 338.63264806 11.19344312 340.61148685 C11.13970975 349.41470086 10.169067 355.72699537 3.796875 362.28125 C-1.63320402 366.21805729 -7.7616977 366.059409 -14.203125 365.28125 C-19.08623483 363.66225102 -22.43984262 360.57968926 -25.203125 356.28125 C-26.81139204 352.16103456 -27.45382961 348.72968347 -27.45760059 344.317873 C-27.46343279 343.14043939 -27.46926498 341.96300577 -27.47527391 340.74989235 C-27.47149458 339.46546773 -27.46771526 338.18104311 -27.46382141 336.85769653 C-27.46684312 335.47228473 -27.4707327 334.08687459 -27.47541398 332.70146739 C-27.48570026 328.8995108 -27.48351056 325.09764844 -27.47923338 321.2956841 C-27.4767673 317.19333837 -27.48577888 313.09101539 -27.49327087 308.98867798 C-27.50602326 300.95361978 -27.50781088 292.91859498 -27.50547061 284.88352837 C-27.50368786 278.35246193 -27.50543617 271.82140564 -27.50969505 265.29034042 C-27.51029024 264.36094177 -27.51088543 263.43154312 -27.51149866 262.47398087 C-27.5127104 260.58592392 -27.51392454 258.69786697 -27.51514103 256.80981003 C-27.5260187 239.1015441 -27.52385303 221.39329721 -27.51775619 203.68503021 C-27.51258709 187.48567687 -27.52384188 171.28638367 -27.54285441 155.08704223 C-27.56222741 138.45302541 -27.57048973 121.81903705 -27.56673115 105.18500888 C-27.56481826 95.84649545 -27.56731526 86.5080332 -27.58144569 77.16952896 C-27.59335362 69.21936945 -27.59477101 61.26929262 -27.58265553 53.31913199 C-27.57676264 49.26346179 -27.57567867 45.20794288 -27.58765793 41.15228271 C-27.59850248 37.43759093 -27.59543053 33.723177 -27.58139624 30.0084983 C-27.57749218 28.03235813 -27.5883081 26.05620569 -27.59969312 24.08009446 C-27.55496934 16.74057919 -27.39944954 10.10957508 -22.484375 4.22265625 C-21.8965625 3.76761719 -21.30875 3.31257813 -20.703125 2.84375 C-19.82140625 2.13412109 -19.82140625 2.13412109 -18.921875 1.41015625 C-13.76493076 -1.97701849 -5.73003489 -1.86937308 0 0 Z " fill="#000000" transform="translate(264.203125,73.71875)"/>
</svg>
