<?xml version="1.0" encoding="UTF-8"?>
<svg version="1.1" xmlns="http://www.w3.org/2000/svg" width="512" height="512">
<path d="M0 0 C5.89093797 3.64211517 9.68357461 9.26642927 11.51171875 15.875 C12.69782099 23.19137804 10.56598872 28.91945965 6.8828125 35.1640625 C5.03202993 37.51491625 2.97045169 39.58591013 0.82910156 41.671875 C0.23354965 42.26801102 -0.36200226 42.86414703 -0.9756012 43.47834778 C-2.92491555 45.42489989 -4.88795738 47.35693664 -6.8515625 49.2890625 C-8.21435451 50.64438554 -9.57625966 52.00060086 -10.93731689 53.35766602 C-14.50579716 56.91094183 -18.08612837 60.45203557 -21.66912842 63.99066162 C-25.32967294 67.61014153 -28.97878933 71.24110356 -32.62890625 74.87109375 C-39.78057659 81.97998481 -46.94482919 89.07604887 -54.1171875 96.1640625 C-53.23363398 96.16465959 -52.35008045 96.16525668 -51.43975258 96.16587186 C0.9097556 96.20175435 53.25920627 96.25837568 105.60866112 96.34198345 C111.89226473 96.35200109 118.1758686 96.36184519 124.45947266 96.37158203 C126.33592632 96.37449409 126.33592632 96.37449409 128.25028813 96.37746498 C148.51420813 96.40849849 168.7781168 96.42546941 189.04205608 96.43725672 C209.8298352 96.44966127 230.61755478 96.47714696 251.40529633 96.51867557 C264.23571228 96.54383084 277.06602953 96.55717829 289.89647049 96.55549207 C298.69100828 96.55546235 307.48544542 96.5700621 316.279944 96.59622678 C321.35631596 96.61089567 326.4324815 96.61905598 331.50887108 96.60986519 C336.15647737 96.60159297 340.80366849 96.61169269 345.45121312 96.63639912 C347.13235805 96.64209419 348.81354218 96.64104961 350.4946754 96.63257495 C367.72321244 96.55316777 367.72321244 96.55316777 375.16015625 103.19921875 C375.98193359 104.20275391 375.98193359 104.20275391 376.8203125 105.2265625 C377.38621094 105.89816406 377.95210938 106.56976563 378.53515625 107.26171875 C382.32920678 112.61737848 381.49132518 119.92680749 380.8828125 126.1640625 C378.60937927 132.49439812 373.62912683 137.24721373 367.69991332 140.28097028 C364.04937446 141.42532495 360.59470822 141.44063851 356.80919933 141.41853809 C355.99709589 141.42174457 355.18499244 141.42495105 354.3482798 141.42825469 C351.61567546 141.43658358 348.88328864 141.4306203 346.15068054 141.42475891 C344.17628596 141.42777828 342.20189255 141.43166668 340.22750121 141.43635148 C334.79286897 141.44666797 329.35830242 141.44444038 323.92366469 141.44017088 C318.06600515 141.43771025 312.20836171 141.44670959 306.35070801 141.45420837 C294.87109718 141.46697617 283.39150971 141.46874645 271.91189297 141.46640811 C262.58284406 141.46462701 253.25380163 141.46633292 243.92475319 141.47063255 C242.5849443 141.47123495 241.24513541 141.47183615 239.90532652 141.47243616 C237.88640625 141.4733434 235.86748598 141.47425207 233.84856571 141.47516851 C215.07408309 141.48359981 196.29960307 141.48793255 177.52511883 141.48376179 C176.46318147 141.48352722 176.46318147 141.48352722 175.37979084 141.48328792 C171.79150156 141.48248213 168.20321229 141.48163636 164.61492302 141.48077462 C163.9022662 141.48060353 163.18960938 141.48043244 162.45535689 141.48025617 C161.01419083 141.47990952 159.57302477 141.47956099 158.13185871 141.47921058 C135.70873986 141.47385372 113.28566034 141.48178209 90.86254883 141.50024414 C65.67467887 141.52095822 40.48683327 141.53168792 15.29895431 141.52766865 C12.61340924 141.5272733 9.92786418 141.52691176 7.24231911 141.52657127 C6.58106191 141.52648054 5.91980472 141.52638981 5.23850943 141.52629633 C-4.74611585 141.5251301 -14.7307083 141.53181675 -24.71532631 141.54238319 C-36.0709274 141.55427861 -47.42647061 141.55572261 -58.78207246 141.54359303 C-64.57742349 141.53769125 -70.37266856 141.53664076 -76.16801262 141.54859543 C-81.47222868 141.55940995 -86.77624975 141.55640375 -92.08045652 141.54233374 C-94.00035584 141.53967456 -95.92027022 141.54209146 -97.8401548 141.55006961 C-100.44902259 141.56015917 -103.05721042 141.55176782 -105.66605091 141.53879261 C-106.78510509 141.54975663 -106.78510509 141.54975663 -107.92676643 141.56094214 C-114.00455931 141.49825188 -119.60136094 140.2985704 -124.359375 136.26171875 C-124.89820312 135.59011719 -125.43703125 134.91851562 -125.9921875 134.2265625 C-126.54648438 133.55753906 -127.10078125 132.88851562 -127.671875 132.19921875 C-130.71439167 127.91502636 -131.47581983 124.8521308 -131.6171875 119.5390625 C-131.66875 118.39179688 -131.7203125 117.24453125 -131.7734375 116.0625 C-130.09643539 106.10030889 -122.484981 98.95433497 -115.56689453 92.11206055 C-114.61265037 91.15402346 -113.65926513 90.19513021 -112.70666504 89.23545837 C-110.14133171 86.65628304 -107.56375869 84.08968605 -104.98322535 81.52572989 C-102.2713717 78.82783275 -99.569794 76.11967722 -96.8666687 73.41304016 C-92.32938563 68.87306399 -87.78412684 64.34119647 -83.23388672 59.81420898 C-77.98717484 54.59412516 -72.753029 49.36169702 -67.52548707 44.12242097 C-62.47611103 39.0622361 -57.41824988 34.01061587 -52.35641098 28.96290016 C-50.21116713 26.82338678 -48.0688329 24.68102254 -45.92883682 22.5362606 C-43.40594638 20.00856946 -40.87564593 17.48852871 -38.33963013 14.97400856 C-36.97652325 13.61904529 -35.62066857 12.25679821 -34.2651062 10.89428711 C-24.57576243 1.3210007 -13.91275205 -6.02698166 0 0 Z " fill="#000000" transform="translate(131.1171875,90.8359375)"/>
<path d="M0 0 C1.21815517 -0.00480972 1.21815517 -0.00480972 2.46091953 -0.0097166 C5.19352387 -0.01804549 7.92591069 -0.0120822 10.65851879 -0.00622082 C12.63291337 -0.00924019 14.60730679 -0.01312859 16.58169812 -0.01781338 C22.01633037 -0.02812988 27.45089692 -0.02590228 32.88553464 -0.02163279 C38.74319418 -0.01917216 44.60083763 -0.0281715 50.45849133 -0.03567028 C61.93810216 -0.04843807 73.41768962 -0.05020836 84.89730636 -0.04787002 C94.22635528 -0.04608892 103.5553977 -0.04779483 112.88444614 -0.05209446 C114.22425503 -0.05269686 115.56406392 -0.05329806 116.90387281 -0.05389806 C118.92279309 -0.05480531 120.94171336 -0.05571397 122.96063362 -0.05663041 C141.73511624 -0.06506172 160.50959626 -0.06939445 179.28408051 -0.06522369 C180.34601786 -0.06498913 180.34601786 -0.06498913 181.4294085 -0.06474983 C185.01769778 -0.06394403 188.60598704 -0.06309826 192.19427631 -0.06223653 C192.90693313 -0.06206544 193.61958995 -0.06189435 194.35384244 -0.06171808 C195.7950085 -0.06137142 197.23617456 -0.06102289 198.67734063 -0.06067249 C221.10045947 -0.05531562 243.52353899 -0.063244 265.94665051 -0.08170605 C291.13452047 -0.10242013 316.32236607 -0.11314983 341.51024503 -0.10913056 C344.19579009 -0.10873521 346.88133516 -0.10837366 349.56688023 -0.10803318 C350.22813742 -0.10794245 350.88939461 -0.10785172 351.57068991 -0.10775824 C361.55531519 -0.10659201 371.53990764 -0.11327866 381.52452564 -0.1238451 C392.88012673 -0.13574052 404.23566994 -0.13718451 415.5912718 -0.12505493 C421.38662282 -0.11915316 427.18186789 -0.11810266 432.97721195 -0.13005733 C438.28142801 -0.14087186 443.58544908 -0.13786566 448.88965585 -0.12379565 C450.80955517 -0.12113647 452.72946955 -0.12355337 454.64935414 -0.13153151 C457.25822192 -0.14162108 459.86640975 -0.13322972 462.47525024 -0.12025452 C463.22128636 -0.12756386 463.96732248 -0.13487321 464.73596576 -0.14240405 C470.81375864 -0.07971379 476.41056027 1.11996769 481.16857433 5.15681934 C481.70740246 5.82842091 482.24623058 6.50002247 482.80138683 7.19197559 C483.35568371 7.86099903 483.90998058 8.53002247 484.48107433 9.21931934 C487.52359101 13.50351174 488.28501916 16.56640729 488.42638683 21.87947559 C488.47794933 23.02674122 488.52951183 24.17400684 488.58263683 25.35603809 C486.90563472 35.3182292 479.29418034 42.46420312 472.37609386 49.30647755 C471.42184971 50.26451464 470.46846447 51.22340788 469.51586437 52.18307972 C466.95053104 54.76225505 464.37295802 57.32885204 461.79242468 59.8928082 C459.08057103 62.59070534 456.37899333 65.29886088 453.67586803 68.00549793 C449.13858497 72.54547411 444.59332617 77.07734163 440.04308605 81.60432911 C434.79637418 86.82441293 429.56222833 92.05684107 424.3346864 97.29611713 C419.28531036 102.35630199 414.22744922 107.40792223 409.16561031 112.45563793 C407.02036646 114.59515131 404.87803224 116.73751555 402.73803616 118.88227749 C400.21514571 121.40996863 397.68484526 123.93000939 395.14882946 126.44452953 C393.78572259 127.7994928 392.4298679 129.16173989 391.07430553 130.52425098 C384.18040964 137.33557293 377.75935298 143.28685762 367.67638683 143.50447559 C361.93371055 143.39150491 357.41528596 142.37926723 352.97716808 138.59041309 C348.12822093 133.48732825 345.11622828 128.09130543 344.83654308 120.96541309 C345.42600033 112.16889732 349.8152151 105.75209326 355.98009777 99.74666309 C356.57564968 99.15052708 357.17120159 98.55439106 357.78480053 97.94019032 C359.73411488 95.99363821 361.69715671 94.06160146 363.66076183 92.12947559 C365.02355384 90.77415255 366.385459 89.41793723 367.74651623 88.06087208 C371.3149965 84.50759627 374.89532771 80.96650252 378.47832775 77.42787647 C382.13887228 73.80839656 385.78798867 70.17743453 389.43810558 66.54744434 C396.58977593 59.43855328 403.75402852 52.34248922 410.92638683 45.25447559 C410.04283331 45.25387851 409.15927979 45.25328142 408.24895191 45.25266623 C355.89944373 45.21678375 303.54999307 45.16016241 251.20053822 45.07655464 C244.9169346 45.06653701 238.63333073 45.05669291 232.34972668 45.04695606 C230.47327302 45.044044 230.47327302 45.044044 228.5589112 45.04107311 C208.29499121 45.01003961 188.03108254 44.99306869 167.76714325 44.98128137 C146.97936414 44.96887682 126.19164455 44.94139113 105.40390301 44.89986253 C92.57348706 44.87470725 79.74316981 44.8613598 66.91272885 44.86304602 C58.11819105 44.86307574 49.32375391 44.84847599 40.52925533 44.82231131 C35.45288338 44.80764242 30.37671784 44.79948211 25.30032825 44.8086729 C20.65272196 44.81694512 16.00553085 44.8068454 11.35798621 44.78213897 C9.67684128 44.7764439 7.99565715 44.77748848 6.31452394 44.78596315 C-10.91401311 44.86537033 -10.91401311 44.86537033 -18.35095692 38.21931934 C-19.17273426 37.21578419 -19.17273426 37.21578419 -20.01111317 36.19197559 C-20.85996082 35.18457325 -20.85996082 35.18457325 -21.72595692 34.15681934 C-25.52000744 28.80115961 -24.68212585 21.4917306 -24.07361317 15.25447559 C-21.80017994 8.92413997 -16.81992749 4.17132436 -10.89071399 1.13756782 C-7.24017513 -0.00678685 -3.78550888 -0.02210042 0 0 Z " fill="#000000" transform="translate(24.073613166809082,279.7455244064331)"/>
</svg>
